  0
SECTION
  2
HEADER
  9
$ACADVER
  1
AC1014
  9
$HANDSEED
  5
FFFF
  9
$MEASUREMENT
 70
     1
  0
ENDSEC
  0
SECTION
  2
TABLES
  0
TABLE
  2
VPORT
  5
8
330
0
100
AcDbSymbolTable
 70
     4
  0
VPORT
  5
2E
330
8
100
AcDbSymbolTableRecord
100
AcDbViewportTableRecord
  2
*ACTIVE
 70
     0
 10
0.0
 20
0.0
 11
1.0
 21
1.0
 12
210.0
 22
148.5
 13
0.0
 23
0.0
 14
10.0
 24
10.0
 15
10.0
 25
10.0
 16
0.0
 26
0.0
 36
1.0
 17
0.0
 27
0.0
 37
0.0
 40
341.0
 41
1.24
 42
50.0
 43
0.0
 44
0.0
 50
0.0
 51
0.0
 71
     0
 72
   100
 73
     1
 74
     3
 75
     0
 76
     0
 77
     0
 78
     0
  0
ENDTAB
  0
TABLE
  2
LTYPE
  5
5
330
0
100
AcDbSymbolTable
 70
     1
  0
LTYPE
  5
14
330
5
100
AcDbSymbolTableRecord
100
AcDbLinetypeTableRecord
  2
BYBLOCK
 70
     0
  3

 72
    65
 73
     0
 40
0.0
  0
LTYPE
  5
15
330
5
100
AcDbSymbolTableRecord
100
AcDbLinetypeTableRecord
  2
BYLAYER
 70
     0
  3

 72
    65
 73
     0
 40
0.0
  0
LTYPE
  5
16
330
5
100
AcDbSymbolTableRecord
100
AcDbLinetypeTableRecord
  2
CONTINUOUS
 70
     0
  3
Solid line
 72
    65
 73
     0
 40
0.0
  0
ENDTAB
  0
TABLE
  2
LAYER
  5
2
100
AcDbSymbolTable
 70
2
  0
LAYER
  5
50
100
AcDbSymbolTableRecord
100
AcDbLayerTableRecord
  2
0
 70
0
  6
CONTINUOUS
  0
LAYER
  5
51
100
AcDbSymbolTableRecord
100
AcDbLayerTableRecord
  2
Layer_1
 70
0
  6
CONTINUOUS
  0
ENDTAB
  0
TABLE
  2
STYLE
  5
3
330
0
100
AcDbSymbolTable
 70
     1
  0
STYLE
  5
11
330
3
100
AcDbSymbolTableRecord
100
AcDbTextStyleTableRecord
  2
STANDARD
 70
     0
 40
0.0
 41
1.0
 50
0.0
 71
     0
 42
2.5
  3
txt
  4

  0
ENDTAB
  0
TABLE
  2
VIEW
  5
6
330
0
100
AcDbSymbolTable
 70
     0
  0
ENDTAB
  0
TABLE
  2
UCS
  5
7
330
0
100
AcDbSymbolTable
 70
     0
  0
ENDTAB
  0
TABLE
  2
APPID
  5
9
330
0
100
AcDbSymbolTable
 70
     2
  0
APPID
  5
12
330
9
100
AcDbSymbolTableRecord
100
AcDbRegAppTableRecord
  2
ACAD
 70
     0
  0
ENDTAB
  0
TABLE
  2
DIMSTYLE
  5
A
330
0
100
AcDbSymbolTable
 70
     1
  0
DIMSTYLE
105
27
330
A
100
AcDbSymbolTableRecord
100
AcDbDimStyleTableRecord
  2
ISO-25
 70
     0
  3

  4

  5

  6

  7

 40
1.0
 41
2.5
 42
0.625
 43
3.75
 44
1.25
 45
0.0
 46
0.0
 47
0.0
 48
0.0
140
2.5
141
2.5
142
0.0
143
0.03937007874016
144
1.0
145
0.0
146
1.0
147
0.625
 71
     0
 72
     0
 73
     0
 74
     0
 75
     0
 76
     0
 77
     1
 78
     8
170
     0
171
     3
172
     1
173
     0
174
     0
175
     0
176
     0
177
     0
178
     0
270
     2
271
     2
272
     2
273
     2
274
     3
340
11
275
     0
280
     0
281
     0
282
     0
283
     0
284
     8
285
     0
286
     0
287
     3
288
     0
  0
ENDTAB
  0
TABLE
  2
BLOCK_RECORD
  5
1
330
0
100
AcDbSymbolTable
 70
     1
  0
BLOCK_RECORD
  5
1F
330
1
100
AcDbSymbolTableRecord
100
AcDbBlockTableRecord
  2
*MODEL_SPACE
  0
BLOCK_RECORD
  5
1B
330
1
100
AcDbSymbolTableRecord
100
AcDbBlockTableRecord
  2
*PAPER_SPACE
  0
ENDTAB
  0
ENDSEC
  0
SECTION
  2
BLOCKS
  0
BLOCK
  5
20
330
1F
100
AcDbEntity
  8
0
100
AcDbBlockBegin
  2
*MODEL_SPACE
 70
     0
 10
0.0
 20
0.0
 30
0.0
  3
*MODEL_SPACE
  1

  0
ENDBLK
  5
21
330
1F
100
AcDbEntity
  8
0
100
AcDbBlockEnd
  0
BLOCK
  5
1C
330
1B
100
AcDbEntity
 67
     1
  8
0
100
AcDbBlockBegin
  2
*PAPER_SPACE
  1

  0
ENDBLK
  5
1D
330
1B
100
AcDbEntity
 67
     1
  8
0
100
AcDbBlockEnd
  0
ENDSEC
  0
SECTION
  2
ENTITIES
  0
LINE
  5
100
100
AcDbEntity
  8
Layer_1
 62
7
100
AcDbLine
 10
56.042184
 20
107.347361
 30
0.0
 11
14.042582
 21
107.270117
 31
0.0
  0
LINE
  5
101
100
AcDbEntity
  8
Layer_1
 62
7
100
AcDbLine
 10
10.061776
 20
102.964595
 30
0.0
 11
13.117224
 21
63.081498
 31
0.0
  0
SPLINE
  5
102
100
AcDbEntity
  8
Layer_1
 62
7
100
AcDbSpline
 70
0
 71
3
 72
13
 73
9
 74
7
 40
0.000000
 40
0.000000
 40
0.000000
 40
0.000000
 40
1.096799
 40
2.183672
 40
3.280471
 40
4.377269
 40
5.464143
 40
6.560942
 40
6.560942
 40
6.560942
 40
6.560942
 10
10.061627
 20
102.963977
 30
0.0
 10
10.062813
 20
103.331914
 30
0.0
 10
10.065174
 20
104.064457
 30
0.0
 10
10.446063
 20
105.111019
 30
0.0
 10
11.074674
 20
106.020389
 30
0.0
 10
11.932060
 20
106.718241
 30
0.0
 10
12.945603
 20
107.179866
 30
0.0
 10
13.675715
 20
107.239550
 30
0.0
 10
14.042430
 20
107.269528
 30
0.0
 11
10.061627
 21
102.963977
 31
0.0
 11
10.128552
 21
104.058732
 31
0.0
 11
10.485762
 21
105.085229
 31
0.0
 11
11.112919
 21
105.985030
 31
0.0
 11
11.960878
 21
106.680682
 31
0.0
 11
12.956271
 21
107.117131
 31
0.0
 11
14.042430
 21
107.269528
 31
0.0
  0
LINE
  5
103
100
AcDbEntity
  8
Layer_1
 62
7
100
AcDbLine
 10
19.969806
 20
60.593769
 30
0.0
 11
58.914525
 21
100.556695
 31
0.0
  0
SPLINE
  5
104
100
AcDbEntity
  8
Layer_1
 62
7
100
AcDbSpline
 70
0
 71
3
 72
13
 73
9
 74
7
 40
0.000000
 40
0.000000
 40
0.000000
 40
0.000000
 40
1.527781
 40
3.029693
 40
4.557474
 40
6.085255
 40
7.587166
 40
9.114948
 40
9.114948
 40
9.114948
 40
9.114948
 10
19.970015
 20
60.594644
 30
0.0
 10
19.571208
 20
60.267811
 30
0.0
 10
18.780349
 20
59.619681
 30
0.0
 10
17.240831
 20
59.295704
 30
0.0
 10
15.706674
 20
59.531011
 30
0.0
 10
14.378512
 20
60.334125
 30
0.0
 10
13.404843
 20
61.569862
 30
0.0
 10
13.213525
 20
62.574316
 30
0.0
 10
13.117050
 20
63.080832
 30
0.0
 11
19.970015
 21
60.594644
 31
0.0
 11
18.714456
 21
59.724192
 31
0.0
 11
17.250446
 21
59.388912
 31
0.0
 11
15.741202
 21
59.626183
 31
0.0
 11
14.430898
 21
60.411816
 31
0.0
 11
13.522420
 21
61.607811
 31
0.0
 11
13.117050
 21
63.080832
 31
0.0
  0
SPLINE
  5
105
100
AcDbEntity
  8
Layer_1
 62
7
100
AcDbSpline
 70
0
 71
3
 72
13
 73
9
 74
7
 40
0.000000
 40
0.000000
 40
0.000000
 40
0.000000
 40
1.562740
 40
3.097891
 40
4.660632
 40
6.223372
 40
7.758523
 40
9.321263
 40
9.321263
 40
9.321263
 40
9.321263
 10
56.042384
 20
107.348402
 30
0.0
 10
56.566774
 20
107.289154
 30
0.0
 10
57.606295
 20
107.171704
 30
0.0
 10
58.934067
 20
106.258731
 30
0.0
 10
59.831585
 20
104.947662
 30
0.0
 10
60.147046
 20
103.390444
 30
0.0
 10
59.877174
 20
101.801838
 30
0.0
 10
59.237326
 20
100.974195
 30
0.0
 10
58.914553
 20
100.556688
 30
0.0
 11
56.042384
 21
107.348402
 31
0.0
 11
57.575611
 21
107.046120
 31
0.0
 11
58.855978
 21
106.199156
 31
0.0
 11
59.734001
 21
104.906394
 31
0.0
 11
60.049906
 21
103.375916
 31
0.0
 11
59.765696
 21
101.867303
 31
0.0
 11
58.914553
 21
100.556688
 31
0.0
  0
LINE
  5
106
100
AcDbEntity
  8
Layer_1
 62
7
100
AcDbLine
 10
15.698787
 20
63.738571
 30
0.0
 11
15.698787
 21
63.738571
 31
0.0
  0
SPLINE
  5
107
100
AcDbEntity
  8
Layer_1
 62
7
100
AcDbSpline
 70
0
 71
3
 72
25
 73
21
 74
19
 40
0.000000
 40
0.000000
 40
0.000000
 40
0.000000
 40
0.505998
 40
1.004755
 40
1.510753
 40
2.016751
 40
2.515507
 40
3.021505
 40
3.527503
 40
4.026260
 40
4.532258
 40
5.038256
 40
5.537012
 40
6.043010
 40
6.549008
 40
7.047765
 40
7.553763
 40
8.059761
 40
8.558518
 40
9.064516
 40
9.064516
 40
9.064516
 40
9.064516
 10
15.698787
 20
63.738571
 30
0.0
 10
15.756770
 20
63.898812
 30
0.0
 10
15.871905
 20
64.217002
 30
0.0
 10
16.238863
 20
64.583708
 30
0.0
 10
16.698277
 20
64.809624
 30
0.0
 10
17.210302
 20
64.862245
 30
0.0
 10
17.708407
 20
64.737522
 30
0.0
 10
18.134561
 20
64.449988
 30
0.0
 10
18.435930
 20
64.033577
 30
0.0
 10
18.577027
 20
63.539657
 30
0.0
 10
18.541076
 20
63.026880
 30
0.0
 10
18.331143
 20
62.557667
 30
0.0
 10
17.973940
 20
62.188518
 30
0.0
 10
17.511900
 20
61.963260
 30
0.0
 10
17.000533
 20
61.910475
 30
0.0
 10
16.502427
 20
62.035197
 30
0.0
 10
16.075616
 20
62.322896
 30
0.0
 10
15.776872
 20
62.738650
 30
0.0
 10
15.626022
 20
63.235012
 30
0.0
 10
15.674416
 20
63.569913
 30
0.0
 10
15.698787
 20
63.738571
 30
0.0
 11
15.698787
 21
63.738571
 31
0.0
 11
15.905430
 21
64.200450
 31
0.0
 11
16.252255
 21
64.558878
 31
0.0
 11
16.707087
 21
64.780603
 31
0.0
 11
17.210408
 21
64.832584
 31
0.0
 11
17.694228
 21
64.711439
 31
0.0
 11
18.113664
 21
64.428405
 31
0.0
 11
18.410341
 21
64.018507
 31
0.0
 11
18.547336
 21
63.538934
 31
0.0
 11
18.511940
 21
63.034176
 31
0.0
 11
18.305296
 21
62.572296
 31
0.0
 11
17.958471
 21
62.213869
 31
0.0
 11
17.503640
 21
61.992143
 31
0.0
 11
17.000319
 21
61.940162
 31
0.0
 11
16.516499
 21
62.061308
 31
0.0
 11
16.097063
 21
62.344341
 31
0.0
 11
15.800386
 21
62.754239
 31
0.0
 11
15.663391
 21
63.233812
 31
0.0
 11
15.698787
 21
63.738571
 31
0.0
  0
LINE
  5
108
100
AcDbEntity
  8
Layer_1
 62
7
100
AcDbLine
 10
12.643364
 20
103.621716
 30
0.0
 11
12.643364
 21
103.621716
 31
0.0
  0
SPLINE
  5
109
100
AcDbEntity
  8
Layer_1
 62
7
100
AcDbSpline
 70
0
 71
3
 72
25
 73
21
 74
19
 40
0.000000
 40
0.000000
 40
0.000000
 40
0.000000
 40
0.505998
 40
1.004755
 40
1.510753
 40
2.016751
 40
2.515507
 40
3.021505
 40
3.527503
 40
4.026260
 40
4.532258
 40
5.038256
 40
5.537012
 40
6.043010
 40
6.549008
 40
7.047765
 40
7.553763
 40
8.059761
 40
8.558518
 40
9.064516
 40
9.064516
 40
9.064516
 40
9.064516
 10
12.643364
 20
103.621716
 30
0.0
 10
12.701347
 20
103.781957
 30
0.0
 10
12.816483
 20
104.100147
 30
0.0
 10
13.183440
 20
104.466853
 30
0.0
 10
13.642854
 20
104.692769
 30
0.0
 10
14.154879
 20
104.745390
 30
0.0
 10
14.652985
 20
104.620667
 30
0.0
 10
15.079138
 20
104.333133
 30
0.0
 10
15.380507
 20
103.916722
 30
0.0
 10
15.521604
 20
103.422802
 30
0.0
 10
15.485653
 20
102.910025
 30
0.0
 10
15.275721
 20
102.440812
 30
0.0
 10
14.918517
 20
102.071664
 30
0.0
 10
14.456478
 20
101.846405
 30
0.0
 10
13.945110
 20
101.793620
 30
0.0
 10
13.447005
 20
101.918342
 30
0.0
 10
13.020193
 20
102.206041
 30
0.0
 10
12.721449
 20
102.621795
 30
0.0
 10
12.570599
 20
103.118157
 30
0.0
 10
12.618993
 20
103.453059
 30
0.0
 10
12.643364
 20
103.621716
 30
0.0
 11
12.643364
 21
103.621716
 31
0.0
 11
12.850008
 21
104.083595
 31
0.0
 11
13.196833
 21
104.442023
 31
0.0
 11
13.651664
 21
104.663748
 31
0.0
 11
14.154985
 21
104.715729
 31
0.0
 11
14.638805
 21
104.594584
 31
0.0
 11
15.058241
 21
104.311551
 31
0.0
 11
15.354918
 21
103.901652
 31
0.0
 11
15.491913
 21
103.422079
 31
0.0
 11
15.456517
 21
102.917321
 31
0.0
 11
15.249874
 21
102.455441
 31
0.0
 11
14.903049
 21
102.097014
 31
0.0
 11
14.448217
 21
101.875288
 31
0.0
 11
13.944896
 21
101.823307
 31
0.0
 11
13.461076
 21
101.944453
 31
0.0
 11
13.041640
 21
102.227486
 31
0.0
 11
12.744963
 21
102.637384
 31
0.0
 11
12.607968
 21
103.116957
 31
0.0
 11
12.643364
 21
103.621716
 31
0.0
  0
LINE
  5
10a
100
AcDbEntity
  8
Layer_1
 62
7
100
AcDbLine
 10
54.643327
 20
103.700615
 30
0.0
 11
54.643327
 21
103.700615
 31
0.0
  0
SPLINE
  5
10b
100
AcDbEntity
  8
Layer_1
 62
7
100
AcDbSpline
 70
0
 71
3
 72
25
 73
21
 74
19
 40
0.000000
 40
0.000000
 40
0.000000
 40
0.000000
 40
0.505998
 40
1.004755
 40
1.510753
 40
2.016751
 40
2.515507
 40
3.021505
 40
3.527503
 40
4.026260
 40
4.532258
 40
5.038256
 40
5.537012
 40
6.043010
 40
6.549008
 40
7.047765
 40
7.553763
 40
8.059761
 40
8.558518
 40
9.064516
 40
9.064516
 40
9.064516
 40
9.064516
 10
54.643327
 20
103.700615
 30
0.0
 10
54.701310
 20
103.860856
 30
0.0
 10
54.816445
 20
104.179046
 30
0.0
 10
55.183403
 20
104.545752
 30
0.0
 10
55.642817
 20
104.771668
 30
0.0
 10
56.154842
 20
104.824289
 30
0.0
 10
56.652947
 20
104.699566
 30
0.0
 10
57.079101
 20
104.412032
 30
0.0
 10
57.380470
 20
103.995621
 30
0.0
 10
57.521567
 20
103.501701
 30
0.0
 10
57.485616
 20
102.988924
 30
0.0
 10
57.275683
 20
102.519711
 30
0.0
 10
56.918480
 20
102.150562
 30
0.0
 10
56.456441
 20
101.925304
 30
0.0
 10
55.945073
 20
101.872519
 30
0.0
 10
55.446967
 20
101.997241
 30
0.0
 10
55.020156
 20
102.284940
 30
0.0
 10
54.721412
 20
102.700694
 30
0.0
 10
54.570562
 20
103.197056
 30
0.0
 10
54.618956
 20
103.531957
 30
0.0
 10
54.643327
 20
103.700615
 30
0.0
 11
54.643327
 21
103.700615
 31
0.0
 11
54.849971
 21
104.162494
 31
0.0
 11
55.196796
 21
104.520922
 31
0.0
 11
55.651627
 21
104.742647
 31
0.0
 11
56.154948
 21
104.794628
 31
0.0
 11
56.638768
 21
104.673483
 31
0.0
 11
57.058204
 21
104.390449
 31
0.0
 11
57.354881
 21
103.980551
 31
0.0
 11
57.491876
 21
103.500978
 31
0.0
 11
57.456480
 21
102.996219
 31
0.0
 11
57.249836
 21
102.534340
 31
0.0
 11
56.903012
 21
102.175912
 31
0.0
 11
56.448180
 21
101.954187
 31
0.0
 11
55.944859
 21
101.902206
 31
0.0
 11
55.461039
 21
102.023352
 31
0.0
 11
55.041603
 21
102.306385
 31
0.0
 11
54.744926
 21
102.716283
 31
0.0
 11
54.607931
 21
103.195856
 31
0.0
 11
54.643327
 21
103.700615
 31
0.0
  0
LINE
  5
10c
100
AcDbEntity
  8
Layer_1
 62
7
100
AcDbLine
 10
167.767995
 20
102.269113
 30
0.0
 11
207.168073
 21
102.259809
 31
0.0
  0
SPLINE
  5
10d
100
AcDbEntity
  8
Layer_1
 62
7
100
AcDbSpline
 70
0
 71
3
 72
13
 73
9
 74
7
 40
0.000000
 40
0.000000
 40
0.000000
 40
0.000000
 40
2.090407
 40
4.118865
 40
6.209271
 40
8.299678
 40
10.328136
 40
12.418543
 40
12.418543
 40
12.418543
 40
12.418543
 10
167.770129
 20
110.269508
 30
0.0
 10
167.065407
 20
110.159235
 30
0.0
 10
165.676847
 20
109.941959
 30
0.0
 10
164.148318
 20
108.351346
 30
0.0
 10
163.581594
 20
106.270594
 30
0.0
 10
164.147249
 20
104.189551
 30
0.0
 10
165.674961
 20
102.598153
 30
0.0
 10
167.063409
 20
102.380163
 30
0.0
 10
167.768074
 20
102.269529
 30
0.0
 11
167.770129
 21
110.269508
 31
0.0
 11
165.752457
 21
109.722882
 31
0.0
 11
164.318307
 21
108.288359
 31
0.0
 11
163.772207
 21
106.270545
 31
0.0
 11
164.317271
 21
104.252450
 31
0.0
 11
165.750683
 21
102.817191
 31
0.0
 11
167.768074
 21
102.269529
 31
0.0
  0
LINE
  5
10e
100
AcDbEntity
  8
Layer_1
 62
7
100
AcDbLine
 10
167.770306
 20
110.270444
 30
0.0
 11
207.169799
 21
110.258557
 31
0.0
  0
SPLINE
  5
10f
100
AcDbEntity
  8
Layer_1
 62
7
100
AcDbSpline
 70
0
 71
3
 72
16
 73
12
 74
10
 40
0.000000
 40
0.000000
 40
0.000000
 40
0.000000
 40
1.396561
 40
2.773115
 40
4.169676
 40
5.566236
 40
6.942791
 40
8.339352
 40
9.735912
 40
11.112467
 40
12.509027
 40
12.509027
 40
12.509027
 40
12.509027
 10
207.167976
 20
102.259343
 30
0.0
 10
207.635923
 20
102.306690
 30
0.0
 10
208.565113
 20
102.400706
 30
0.0
 10
209.793530
 20
103.136411
 30
0.0
 10
210.707046
 20
104.214391
 30
0.0
 10
211.191776
 20
105.549945
 30
0.0
 10
211.192140
 20
106.966651
 30
0.0
 10
210.708097
 20
108.302455
 30
0.0
 10
209.795134
 20
109.380903
 30
0.0
 10
208.567096
 20
110.117240
 30
0.0
 10
207.637954
 20
110.211734
 30
0.0
 10
207.170031
 20
110.259321
 30
0.0
 11
207.167976
 21
102.259343
 31
0.0
 11
208.543358
 21
102.501635
 31
0.0
 11
209.736031
 21
103.188972
 31
0.0
 11
210.635239
 21
104.257526
 31
0.0
 11
211.112402
 21
105.570041
 31
0.0
 11
211.112755
 21
106.946596
 31
0.0
 11
210.636267
 21
108.259357
 31
0.0
 11
209.737609
 21
109.328372
 31
0.0
 11
208.545289
 21
110.016322
 31
0.0
 11
207.170031
 21
110.259321
 31
0.0
  0
LINE
  5
110
100
AcDbEntity
  8
Layer_1
 62
7
100
AcDbLine
 10
208.594891
 20
105.995994
 30
0.0
 11
208.594891
 21
105.995994
 31
0.0
  0
SPLINE
  5
111
100
AcDbEntity
  8
Layer_1
 62
7
100
AcDbSpline
 70
0
 71
3
 72
25
 73
21
 74
19
 40
0.000000
 40
0.000000
 40
0.000000
 40
0.000000
 40
0.505997
 40
1.004752
 40
1.510749
 40
2.016746
 40
2.515501
 40
3.021498
 40
3.527495
 40
4.026250
 40
4.532247
 40
5.038243
 40
5.536999
 40
6.042995
 40
6.548992
 40
7.047747
 40
7.553744
 40
8.059741
 40
8.558496
 40
9.064493
 40
9.064493
 40
9.064493
 40
9.064493
 10
208.594891
 20
105.995994
 30
0.0
 10
208.608642
 20
106.165847
 30
0.0
 10
208.635949
 20
106.503123
 30
0.0
 10
208.454282
 20
106.989052
 30
0.0
 10
208.130066
 20
107.385261
 30
0.0
 10
207.686062
 20
107.645640
 30
0.0
 10
207.181119
 20
107.738895
 30
0.0
 10
206.674067
 20
107.654160
 30
0.0
 10
206.227057
 20
107.400383
 30
0.0
 10
205.893696
 20
107.009571
 30
0.0
 10
205.713588
 20
106.528123
 30
0.0
 10
205.709849
 20
106.014102
 30
0.0
 10
205.881629
 20
105.529999
 30
0.0
 10
206.208506
 20
105.133299
 30
0.0
 10
206.651844
 20
104.873042
 30
0.0
 10
207.156786
 20
104.779788
 30
0.0
 10
207.664505
 20
104.864400
 30
0.0
 10
208.108854
 20
105.118668
 30
0.0
 10
208.452102
 20
105.507654
 30
0.0
 10
208.547067
 20
105.832434
 30
0.0
 10
208.594891
 20
105.995994
 30
0.0
 11
208.594891
 21
105.995994
 31
0.0
 11
208.598578
 21
106.501978
 31
0.0
 11
208.431792
 21
106.972020
 31
0.0
 11
208.110006
 21
107.362514
 31
0.0
 11
207.673655
 21
107.618699
 31
0.0
 11
207.183194
 21
107.709279
 31
0.0
 11
206.684122
 21
107.625851
 31
0.0
 11
206.244084
 21
107.376053
 31
0.0
 11
205.920409
 21
106.996591
 31
0.0
 11
205.743124
 21
106.522668
 31
0.0
 11
205.739437
 21
106.016685
 31
0.0
 11
205.906223
 21
105.546643
 31
0.0
 11
206.228009
 21
105.156148
 31
0.0
 11
206.664360
 21
104.899963
 31
0.0
 11
207.154821
 21
104.809383
 31
0.0
 11
207.653893
 21
104.892811
 31
0.0
 11
208.093931
 21
105.142610
 31
0.0
 11
208.417606
 21
105.522072
 31
0.0
 11
208.594891
 21
105.995994
 31
0.0
  0
LINE
  5
112
100
AcDbEntity
  8
Layer_1
 62
7
100
AcDbLine
 10
169.194989
 20
106.006181
 30
0.0
 11
169.194989
 21
106.006181
 31
0.0
  0
SPLINE
  5
113
100
AcDbEntity
  8
Layer_1
 62
7
100
AcDbSpline
 70
0
 71
3
 72
25
 73
21
 74
19
 40
0.000000
 40
0.000000
 40
0.000000
 40
0.000000
 40
0.505997
 40
1.004752
 40
1.510749
 40
2.016746
 40
2.515501
 40
3.021498
 40
3.527495
 40
4.026250
 40
4.532247
 40
5.038243
 40
5.536999
 40
6.042995
 40
6.548992
 40
7.047747
 40
7.553744
 40
8.059741
 40
8.558496
 40
9.064493
 40
9.064493
 40
9.064493
 40
9.064493
 10
169.194989
 20
106.006181
 30
0.0
 10
169.208740
 20
106.176034
 30
0.0
 10
169.236046
 20
106.513309
 30
0.0
 10
169.054380
 20
106.999238
 30
0.0
 10
168.730164
 20
107.395447
 30
0.0
 10
168.286159
 20
107.655827
 30
0.0
 10
167.781217
 20
107.749081
 30
0.0
 10
167.274165
 20
107.664346
 30
0.0
 10
166.827155
 20
107.410570
 30
0.0
 10
166.493794
 20
107.019757
 30
0.0
 10
166.313685
 20
106.538309
 30
0.0
 10
166.309947
 20
106.024289
 30
0.0
 10
166.481726
 20
105.540185
 30
0.0
 10
166.808604
 20
105.143485
 30
0.0
 10
167.251942
 20
104.883229
 30
0.0
 10
167.756884
 20
104.789974
 30
0.0
 10
168.264603
 20
104.874586
 30
0.0
 10
168.708951
 20
105.128854
 30
0.0
 10
169.052200
 20
105.517841
 30
0.0
 10
169.147164
 20
105.842620
 30
0.0
 10
169.194989
 20
106.006181
 30
0.0
 11
169.194989
 21
106.006181
 31
0.0
 11
169.198676
 21
106.512164
 31
0.0
 11
169.031890
 21
106.982206
 31
0.0
 11
168.710103
 21
107.372701
 31
0.0
 11
168.273752
 21
107.628885
 31
0.0
 11
167.783291
 21
107.719465
 31
0.0
 11
167.284220
 21
107.636037
 31
0.0
 11
166.844182
 21
107.386239
 31
0.0
 11
166.520506
 21
107.006777
 31
0.0
 11
166.343221
 21
106.532854
 31
0.0
 11
166.339534
 21
106.026871
 31
0.0
 11
166.506320
 21
105.556829
 31
0.0
 11
166.828107
 21
105.166335
 31
0.0
 11
167.264458
 21
104.910150
 31
0.0
 11
167.754919
 21
104.819570
 31
0.0
 11
168.253990
 21
104.902998
 31
0.0
 11
168.694028
 21
105.152796
 31
0.0
 11
169.017703
 21
105.532258
 31
0.0
 11
169.194989
 21
106.006181
 31
0.0
  0
LINE
  5
114
100
AcDbEntity
  8
Layer_1
 62
7
100
AcDbLine
 10
167.777363
 20
93.209827
 30
0.0
 11
207.177129
 21
93.308930
 31
0.0
  0
SPLINE
  5
115
100
AcDbEntity
  8
Layer_1
 62
7
100
AcDbSpline
 70
0
 71
3
 72
13
 73
9
 74
7
 40
0.000000
 40
0.000000
 40
0.000000
 40
0.000000
 40
2.089759
 40
4.117622
 40
6.207381
 40
8.297140
 40
10.325002
 40
12.414762
 40
12.414762
 40
12.414762
 40
12.414762
 10
167.757154
 20
101.209673
 30
0.0
 10
167.053019
 20
101.097166
 30
0.0
 10
165.665606
 20
100.875486
 30
0.0
 10
164.142421
 20
99.280797
 30
0.0
 10
163.581843
 20
97.199121
 30
0.0
 10
164.152933
 20
95.120304
 30
0.0
 10
165.684158
 20
93.533333
 30
0.0
 10
167.072674
 20
93.318667
 30
0.0
 10
167.777368
 20
93.209720
 30
0.0
 11
167.757154
 21
101.209673
 31
0.0
 11
165.741860
 21
100.656786
 31
0.0
 11
164.312481
 21
99.218349
 31
0.0
 11
163.772335
 21
97.199602
 31
0.0
 11
164.322676
 21
95.183611
 31
0.0
 11
165.759305
 21
93.752416
 31
0.0
 11
167.777368
 21
93.209720
 31
0.0
  0
LINE
  5
116
100
AcDbEntity
  8
Layer_1
 62
7
100
AcDbLine
 10
167.757187
 20
101.209962
 30
0.0
 11
207.156979
 21
101.309063
 31
0.0
  0
SPLINE
  5
117
100
AcDbEntity
  8
Layer_1
 62
7
100
AcDbSpline
 70
0
 71
3
 72
13
 73
9
 74
7
 40
0.000000
 40
0.000000
 40
0.000000
 40
0.000000
 40
2.089750
 40
4.117604
 40
6.207354
 40
8.297105
 40
10.324958
 40
12.414709
 40
12.414709
 40
12.414709
 40
12.414709
 10
207.177187
 20
93.309270
 30
0.0
 10
207.881318
 20
93.421781
 30
0.0
 10
209.268724
 20
93.643468
 30
0.0
 10
210.791896
 20
95.238154
 30
0.0
 10
211.352469
 20
97.319822
 30
0.0
 10
210.781384
 20
99.398630
 30
0.0
 10
209.250172
 20
100.985598
 30
0.0
 10
207.861664
 20
101.200272
 30
0.0
 10
207.156974
 20
101.309223
 30
0.0
 11
207.177187
 21
93.309270
 31
0.0
 11
209.192469
 21
93.862167
 31
0.0
 11
210.621838
 21
95.300602
 31
0.0
 11
211.161979
 21
97.319340
 31
0.0
 11
210.611643
 21
99.335323
 31
0.0
 11
209.175024
 21
100.766518
 31
0.0
 11
207.156974
 21
101.309223
 31
0.0
  0
LINE
  5
118
100
AcDbEntity
  8
Layer_1
 62
7
100
AcDbLine
 10
208.611789
 20
97.185504
 30
0.0
 11
208.611789
 21
97.185504
 31
0.0
  0
SPLINE
  5
119
100
AcDbEntity
  8
Layer_1
 62
7
100
AcDbSpline
 70
0
 71
3
 72
25
 73
21
 74
19
 40
0.000000
 40
0.000000
 40
0.000000
 40
0.000000
 40
0.505997
 40
1.004752
 40
1.510749
 40
2.016746
 40
2.515502
 40
3.021499
 40
3.527496
 40
4.026251
 40
4.532248
 40
5.038245
 40
5.537000
 40
6.042997
 40
6.548994
 40
7.047750
 40
7.553747
 40
8.059744
 40
8.558499
 40
9.064496
 40
9.064496
 40
9.064496
 40
9.064496
 10
208.611789
 20
97.185504
 30
0.0
 10
208.608994
 20
97.355890
 30
0.0
 10
208.603443
 20
97.694223
 30
0.0
 10
208.375480
 20
98.160231
 30
0.0
 10
208.014346
 20
98.523109
 30
0.0
 10
207.547170
 20
98.739174
 30
0.0
 10
207.035561
 20
98.782990
 30
0.0
 10
206.539124
 20
98.649451
 30
0.0
 10
206.118850
 20
98.353495
 30
0.0
 10
205.824986
 20
97.932178
 30
0.0
 10
205.692446
 20
97.435525
 30
0.0
 10
205.738605
 20
96.923568
 30
0.0
 10
205.956550
 20
96.458418
 30
0.0
 10
206.320380
 20
96.095309
 30
0.0
 10
206.786881
 20
95.879302
 30
0.0
 10
207.298490
 20
95.835486
 30
0.0
 10
207.795602
 20
95.968967
 30
0.0
 10
208.213180
 20
96.265154
 30
0.0
 10
208.517062
 20
96.685613
 30
0.0
 10
208.580062
 20
97.018075
 30
0.0
 10
208.611789
 20
97.185504
 30
0.0
 11
208.611789
 21
97.185504
 31
0.0
 11
208.566359
 21
97.689458
 31
0.0
 11
208.354748
 21
98.141097
 31
0.0
 11
207.996587
 21
98.498523
 31
0.0
 11
207.537436
 21
98.711156
 31
0.0
 11
207.040500
 21
98.753715
 31
0.0
 11
206.551879
 21
98.622252
 31
0.0
 11
206.138157
 21
98.330932
 31
0.0
 11
205.852832
 21
97.921852
 31
0.0
 11
205.722372
 21
97.432962
 31
0.0
 11
205.767802
 21
96.929009
 31
0.0
 11
205.979413
 21
96.477370
 31
0.0
 11
206.337574
 21
96.119943
 31
0.0
 11
206.796725
 21
95.907310
 31
0.0
 11
207.293662
 21
95.864751
 31
0.0
 11
207.782283
 21
95.996214
 31
0.0
 11
208.196004
 21
96.287535
 31
0.0
 11
208.481329
 21
96.696615
 31
0.0
 11
208.611789
 21
97.185504
 31
0.0
  0
LINE
  5
11a
100
AcDbEntity
  8
Layer_1
 62
7
100
AcDbLine
 10
169.211968
 20
97.085954
 30
0.0
 11
169.211968
 21
97.085954
 31
0.0
  0
SPLINE
  5
11b
100
AcDbEntity
  8
Layer_1
 62
7
100
AcDbSpline
 70
0
 71
3
 72
25
 73
21
 74
19
 40
0.000000
 40
0.000000
 40
0.000000
 40
0.000000
 40
0.505997
 40
1.004752
 40
1.510749
 40
2.016746
 40
2.515502
 40
3.021499
 40
3.527496
 40
4.026251
 40
4.532248
 40
5.038245
 40
5.537000
 40
6.042997
 40
6.548994
 40
7.047750
 40
7.553747
 40
8.059744
 40
8.558499
 40
9.064496
 40
9.064496
 40
9.064496
 40
9.064496
 10
169.211968
 20
97.085954
 30
0.0
 10
169.209173
 20
97.256340
 30
0.0
 10
169.203622
 20
97.594674
 30
0.0
 10
168.975659
 20
98.060681
 30
0.0
 10
168.614525
 20
98.423559
 30
0.0
 10
168.147349
 20
98.639625
 30
0.0
 10
167.635740
 20
98.683440
 30
0.0
 10
167.139303
 20
98.549902
 30
0.0
 10
166.719029
 20
98.253946
 30
0.0
 10
166.425165
 20
97.832629
 30
0.0
 10
166.292625
 20
97.335975
 30
0.0
 10
166.338784
 20
96.824018
 30
0.0
 10
166.556729
 20
96.358868
 30
0.0
 10
166.920559
 20
95.995759
 30
0.0
 10
167.387060
 20
95.779752
 30
0.0
 10
167.898669
 20
95.735936
 30
0.0
 10
168.395781
 20
95.869417
 30
0.0
 10
168.813359
 20
96.165604
 30
0.0
 10
169.117241
 20
96.586063
 30
0.0
 10
169.180241
 20
96.918525
 30
0.0
 10
169.211968
 20
97.085954
 30
0.0
 11
169.211968
 21
97.085954
 31
0.0
 11
169.166538
 21
97.589908
 31
0.0
 11
168.954927
 21
98.041547
 31
0.0
 11
168.596766
 21
98.398973
 31
0.0
 11
168.137615
 21
98.611606
 31
0.0
 11
167.640679
 21
98.654166
 31
0.0
 11
167.152058
 21
98.522702
 31
0.0
 11
166.738336
 21
98.231382
 31
0.0
 11
166.453011
 21
97.822302
 31
0.0
 11
166.322551
 21
97.333412
 31
0.0
 11
166.367981
 21
96.829459
 31
0.0
 11
166.579592
 21
96.377820
 31
0.0
 11
166.937753
 21
96.020394
 31
0.0
 11
167.396904
 21
95.807760
 31
0.0
 11
167.893841
 21
95.765201
 31
0.0
 11
168.382462
 21
95.896665
 31
0.0
 11
168.796183
 21
96.187985
 31
0.0
 11
169.081508
 21
96.597065
 31
0.0
 11
169.211968
 21
97.085954
 31
0.0
  0
LINE
  5
11c
100
AcDbEntity
  8
Layer_1
 62
7
100
AcDbLine
 10
167.774244
 20
84.151026
 30
0.0
 11
217.773986
 21
84.155227
 31
0.0
  0
SPLINE
  5
11d
100
AcDbEntity
  8
Layer_1
 62
7
100
AcDbSpline
 70
0
 71
3
 72
16
 73
12
 74
10
 40
0.000000
 40
0.000000
 40
0.000000
 40
0.000000
 40
1.396056
 40
2.772127
 40
4.168183
 40
5.564239
 40
6.940310
 40
8.336366
 40
9.732422
 40
11.108492
 40
12.504548
 40
12.504548
 40
12.504548
 40
12.504548
 10
167.772836
 20
92.150349
 30
0.0
 10
167.305104
 20
92.102611
 30
0.0
 10
166.376333
 20
92.007818
 30
0.0
 10
165.148909
 20
91.271513
 30
0.0
 10
164.236371
 20
90.193391
 30
0.0
 10
163.752444
 20
88.858110
 30
0.0
 10
163.752561
 20
87.441931
 30
0.0
 10
164.236707
 20
86.106730
 30
0.0
 10
165.149423
 20
85.028758
 30
0.0
 10
166.376968
 20
84.292655
 30
0.0
 10
167.305754
 20
84.198015
 30
0.0
 10
167.773495
 20
84.150354
 30
0.0
 11
167.772836
 21
92.150349
 31
0.0
 11
166.398157
 21
91.906981
 31
0.0
 11
165.206397
 21
91.219027
 31
0.0
 11
164.308149
 21
90.150326
 31
0.0
 11
163.831769
 21
88.838063
 31
0.0
 11
163.831882
 21
87.461992
 31
0.0
 11
164.308478
 21
86.149807
 31
0.0
 11
165.206902
 21
85.081254
 31
0.0
 11
166.398775
 21
84.393496
 31
0.0
 11
167.773495
 21
84.150354
 31
0.0
  0
LINE
  5
11e
100
AcDbEntity
  8
Layer_1
 62
7
100
AcDbLine
 10
167.773694
 20
92.151326
 30
0.0
 11
217.773510
 21
92.155451
 31
0.0
  0
SPLINE
  5
11f
100
AcDbEntity
  8
Layer_1
 62
7
100
AcDbSpline
 70
0
 71
3
 72
13
 73
9
 74
7
 40
0.000000
 40
0.000000
 40
0.000000
 40
0.000000
 40
2.089336
 40
4.116809
 40
6.206145
 40
8.295481
 40
10.322954
 40
12.412291
 40
12.412291
 40
12.412291
 40
12.412291
 10
217.773451
 20
84.154714
 30
0.0
 10
218.477677
 20
84.265679
 30
0.0
 10
219.865278
 20
84.484324
 30
0.0
 10
221.391757
 20
86.075176
 30
0.0
 10
221.957187
 20
88.155056
 30
0.0
 10
221.391405
 20
90.234841
 30
0.0
 10
219.864656
 20
91.825435
 30
0.0
 10
218.477019
 20
92.043844
 30
0.0
 10
217.772774
 20
92.154690
 30
0.0
 11
217.773451
 21
84.154714
 31
0.0
 11
219.789536
 21
84.703102
 31
0.0
 11
221.221918
 21
86.137998
 31
0.0
 11
221.766772
 21
88.155040
 31
0.0
 11
221.221577
 21
90.171990
 31
0.0
 11
219.788951
 21
91.606643
 31
0.0
 11
217.772774
 21
92.154690
 31
0.0
  0
LINE
  5
120
100
AcDbEntity
  8
Layer_1
 62
7
100
AcDbLine
 10
218.785940
 20
87.117090
 30
0.0
 11
218.785940
 21
87.117090
 31
0.0
  0
SPLINE
  5
121
100
AcDbEntity
  8
Layer_1
 62
7
100
AcDbSpline
 70
0
 71
3
 72
25
 73
21
 74
19
 40
0.000000
 40
0.000000
 40
0.000000
 40
0.000000
 40
0.505997
 40
1.004753
 40
1.510750
 40
2.016747
 40
2.515502
 40
3.021499
 40
3.527497
 40
4.026252
 40
4.532249
 40
5.038246
 40
5.537002
 40
6.042999
 40
6.548996
 40
7.047751
 40
7.553749
 40
8.059746
 40
8.558501
 40
9.064498
 40
9.064498
 40
9.064498
 40
9.064498
 10
218.785940
 20
87.117090
 30
0.0
 10
218.895149
 20
87.247905
 30
0.0
 10
219.112005
 20
87.507663
 30
0.0
 10
219.243906
 20
88.009392
 30
0.0
 10
219.207610
 20
88.520059
 30
0.0
 10
218.995112
 20
88.988869
 30
0.0
 10
218.636434
 20
89.356311
 30
0.0
 10
218.173363
 20
89.579576
 30
0.0
 10
217.661830
 20
89.630123
 30
0.0
 10
217.164087
 20
89.503174
 30
0.0
 10
216.739250
 20
89.213787
 30
0.0
 10
216.439694
 20
88.796058
 30
0.0
 10
216.300770
 20
88.301524
 30
0.0
 10
216.338956
 20
87.788920
 30
0.0
 10
216.550980
 20
87.320596
 30
0.0
 10
216.909659
 20
86.953154
 30
0.0
 10
217.373203
 20
86.729403
 30
0.0
 10
217.882845
 20
86.680793
 30
0.0
 10
218.387612
 20
86.800547
 30
0.0
 10
218.652527
 20
87.011070
 30
0.0
 10
218.785940
 20
87.117090
 30
0.0
 11
218.785940
 21
87.117090
 31
0.0
 11
219.080818
 21
87.528284
 31
0.0
 11
219.215710
 21
88.008452
 31
0.0
 11
219.178102
 21
88.513049
 31
0.0
 11
218.969437
 21
88.974018
 31
0.0
 11
218.621045
 21
89.330922
 31
0.0
 11
218.165247
 21
89.550651
 31
0.0
 11
217.661704
 21
89.600426
 31
0.0
 11
217.178421
 21
89.477162
 31
0.0
 11
216.760230
 21
89.192294
 31
0.0
 11
216.465352
 21
88.781101
 31
0.0
 11
216.330460
 21
88.300933
 31
0.0
 11
216.368068
 21
87.796335
 31
0.0
 11
216.576733
 21
87.335367
 31
0.0
 11
216.925125
 21
86.978463
 31
0.0
 11
217.380923
 21
86.758733
 31
0.0
 11
217.884466
 21
86.708958
 31
0.0
 11
218.367749
 21
86.832223
 31
0.0
 11
218.785940
 21
87.117090
 31
0.0
  0
LINE
  5
122
100
AcDbEntity
  8
Layer_1
 62
7
100
AcDbLine
 10
168.786001
 20
87.112751
 30
0.0
 11
168.786001
 21
87.112751
 31
0.0
  0
SPLINE
  5
123
100
AcDbEntity
  8
Layer_1
 62
7
100
AcDbSpline
 70
0
 71
3
 72
25
 73
21
 74
19
 40
0.000000
 40
0.000000
 40
0.000000
 40
0.000000
 40
0.505997
 40
1.004753
 40
1.510750
 40
2.016747
 40
2.515502
 40
3.021499
 40
3.527497
 40
4.026252
 40
4.532249
 40
5.038246
 40
5.537002
 40
6.042999
 40
6.548996
 40
7.047751
 40
7.553749
 40
8.059746
 40
8.558501
 40
9.064498
 40
9.064498
 40
9.064498
 40
9.064498
 10
168.786001
 20
87.112751
 30
0.0
 10
168.895210
 20
87.243565
 30
0.0
 10
169.112066
 20
87.503323
 30
0.0
 10
169.243967
 20
88.005052
 30
0.0
 10
169.207671
 20
88.515719
 30
0.0
 10
168.995173
 20
88.984529
 30
0.0
 10
168.636495
 20
89.351971
 30
0.0
 10
168.173424
 20
89.575236
 30
0.0
 10
167.661891
 20
89.625783
 30
0.0
 10
167.164148
 20
89.498834
 30
0.0
 10
166.739311
 20
89.209448
 30
0.0
 10
166.439755
 20
88.791718
 30
0.0
 10
166.300830
 20
88.297184
 30
0.0
 10
166.339017
 20
87.784580
 30
0.0
 10
166.551041
 20
87.316256
 30
0.0
 10
166.909719
 20
86.948814
 30
0.0
 10
167.373264
 20
86.725064
 30
0.0
 10
167.882906
 20
86.676453
 30
0.0
 10
168.387673
 20
86.796207
 30
0.0
 10
168.652588
 20
87.006730
 30
0.0
 10
168.786001
 20
87.112751
 30
0.0
 11
168.786001
 21
87.112751
 31
0.0
 11
169.080879
 21
87.523944
 31
0.0
 11
169.215771
 21
88.004112
 31
0.0
 11
169.178163
 21
88.508710
 31
0.0
 11
168.969498
 21
88.969678
 31
0.0
 11
168.621106
 21
89.326582
 31
0.0
 11
168.165308
 21
89.546312
 31
0.0
 11
167.661765
 21
89.596087
 31
0.0
 11
167.178482
 21
89.472823
 31
0.0
 11
166.760291
 21
89.187955
 31
0.0
 11
166.465413
 21
88.776761
 31
0.0
 11
166.330521
 21
88.296593
 31
0.0
 11
166.368129
 21
87.791996
 31
0.0
 11
166.576794
 21
87.331027
 31
0.0
 11
166.925186
 21
86.974123
 31
0.0
 11
167.380984
 21
86.754394
 31
0.0
 11
167.884527
 21
86.704619
 31
0.0
 11
168.367810
 21
86.827883
 31
0.0
 11
168.786001
 21
87.112751
 31
0.0
  0
LINE
  5
124
100
AcDbEntity
  8
Layer_1
 62
7
100
AcDbLine
 10
167.784561
 20
74.563642
 30
0.0
 11
229.783089
 21
74.752096
 31
0.0
  0
SPLINE
  5
125
100
AcDbEntity
  8
Layer_1
 62
7
100
AcDbSpline
 70
0
 71
3
 72
16
 73
12
 74
10
 40
0.000000
 40
0.000000
 40
0.000000
 40
0.000000
 40
1.395855
 40
2.771732
 40
4.167587
 40
5.563441
 40
6.939319
 40
8.335174
 40
9.731028
 40
11.106906
 40
12.502760
 40
12.502760
 40
12.502760
 40
12.502760
 10
167.759995
 20
82.564004
 30
0.0
 10
167.292484
 20
82.514799
 30
0.0
 10
166.364152
 20
82.417093
 30
0.0
 10
165.139194
 20
81.677110
 30
0.0
 10
164.230075
 20
80.596377
 30
0.0
 10
163.750217
 20
79.259854
 30
0.0
 10
163.754498
 20
77.843891
 30
0.0
 10
164.242430
 20
76.510294
 30
0.0
 10
165.158069
 20
75.435079
 30
0.0
 10
166.387479
 20
74.702518
 30
0.0
 10
167.316385
 20
74.610428
 30
0.0
 10
167.784185
 20
74.564051
 30
0.0
 11
167.759995
 21
82.564004
 31
0.0
 11
166.386285
 21
82.316354
 31
0.0
 11
165.196825
 21
81.624815
 31
0.0
 11
164.301961
 21
80.553541
 31
0.0
 11
163.829578
 21
79.240048
 31
0.0
 11
163.833738
 21
77.864176
 31
0.0
 11
164.314057
 21
76.553564
 31
0.0
 11
165.215383
 21
75.487722
 31
0.0
 11
166.409003
 21
74.803389
 31
0.0
 11
167.784185
 21
74.564051
 31
0.0
  0
LINE
  5
126
100
AcDbEntity
  8
Layer_1
 62
7
100
AcDbLine
 10
167.760188
 20
82.563822
 30
0.0
 11
229.758715
 21
82.752276
 31
0.0
  0
SPLINE
  5
127
100
AcDbEntity
  8
Layer_1
 62
7
100
AcDbSpline
 70
0
 71
3
 72
16
 73
12
 74
10
 40
0.000000
 40
0.000000
 40
0.000000
 40
0.000000
 40
1.396018
 40
2.772052
 40
4.168070
 40
5.564088
 40
6.940122
 40
8.336140
 40
9.732158
 40
11.108192
 40
12.504210
 40
12.504210
 40
12.504210
 40
12.504210
 10
229.783834
 20
74.751527
 30
0.0
 10
230.251410
 20
74.800658
 30
0.0
 10
231.179868
 20
74.898216
 30
0.0
 10
232.405065
 20
75.638141
 30
0.0
 10
233.314382
 20
76.718929
 30
0.0
 10
233.794353
 20
78.055594
 30
0.0
 10
233.790071
 20
79.471727
 30
0.0
 10
233.302025
 20
80.805465
 30
0.0
 10
232.386189
 20
81.880734
 30
0.0
 10
231.156539
 20
82.613237
 30
0.0
 10
230.227508
 20
82.705178
 30
0.0
 10
229.759644
 20
82.751480
 30
0.0
 11
229.783834
 21
74.751527
 31
0.0
 11
231.157746
 21
74.998982
 31
0.0
 11
232.347425
 21
75.690453
 31
0.0
 11
233.242482
 21
76.761780
 31
0.0
 11
233.714974
 21
78.075407
 31
0.0
 11
233.710813
 21
79.451435
 31
0.0
 11
233.230385
 21
80.762181
 31
0.0
 11
232.328866
 21
81.828074
 31
0.0
 11
231.135026
 21
82.512338
 31
0.0
 11
229.759644
 21
82.751480
 31
0.0
  0
LINE
  5
128
100
AcDbEntity
  8
Layer_1
 62
7
100
AcDbLine
 10
168.822616
 20
79.563475
 30
0.0
 11
168.822616
 21
79.563475
 31
0.0
  0
SPLINE
  5
129
100
AcDbEntity
  8
Layer_1
 62
7
100
AcDbSpline
 70
0
 71
3
 72
25
 73
21
 74
19
 40
0.000000
 40
0.000000
 40
0.000000
 40
0.000000
 40
0.505997
 40
1.004753
 40
1.510750
 40
2.016747
 40
2.515503
 40
3.021500
 40
3.527497
 40
4.026252
 40
4.532250
 40
5.038247
 40
5.537002
 40
6.042999
 40
6.548997
 40
7.047752
 40
7.553749
 40
8.059746
 40
8.558502
 40
9.064499
 40
9.064499
 40
9.064499
 40
9.064499
 10
168.822616
 20
79.563475
 30
0.0
 10
168.693214
 20
79.674354
 30
0.0
 10
168.436261
 20
79.894525
 30
0.0
 10
167.936265
 20
80.032855
 30
0.0
 10
167.425175
 20
80.003115
 30
0.0
 10
166.953676
 20
79.796652
 30
0.0
 10
166.581662
 20
79.442718
 30
0.0
 10
166.352472
 20
78.982551
 30
0.0
 10
166.295364
 20
78.471709
 30
0.0
 10
166.415915
 20
77.972378
 30
0.0
 10
166.699825
 20
77.543861
 30
0.0
 10
167.113676
 20
77.238969
 30
0.0
 10
167.606387
 20
77.093709
 30
0.0
 10
168.119438
 20
77.125314
 30
0.0
 10
168.590445
 20
77.331311
 30
0.0
 10
168.962460
 20
77.685244
 30
0.0
 10
169.192141
 20
78.145879
 30
0.0
 10
169.247288
 20
78.654855
 30
0.0
 10
169.134022
 20
79.161117
 30
0.0
 10
168.926916
 20
79.428713
 30
0.0
 10
168.822616
 20
79.563475
 30
0.0
 11
168.822616
 21
79.563475
 31
0.0
 11
168.415241
 21
79.863605
 31
0.0
 11
167.936844
 21
80.004649
 31
0.0
 11
167.431805
 21
79.973520
 31
0.0
 11
166.968196
 21
79.770788
 31
0.0
 11
166.606851
 21
79.427005
 31
0.0
 11
166.381290
 21
78.974065
 31
0.0
 11
166.325057
 21
78.471202
 31
0.0
 11
166.442108
 21
77.986376
 31
0.0
 11
166.721586
 21
77.564564
 31
0.0
 11
167.128961
 21
77.264433
 31
0.0
 11
167.607358
 21
77.123390
 31
0.0
 11
168.112397
 21
77.154519
 31
0.0
 11
168.576005
 21
77.357251
 31
0.0
 11
168.937351
 21
77.701033
 31
0.0
 11
169.162912
 21
78.153974
 31
0.0
 11
169.219145
 21
78.656837
 31
0.0
 11
169.102094
 21
79.141663
 31
0.0
 11
168.822616
 21
79.563475
 31
0.0
  0
LINE
  5
12a
100
AcDbEntity
  8
Layer_1
 62
7
100
AcDbLine
 10
230.822265
 20
79.750951
 30
0.0
 11
230.822265
 21
79.750951
 31
0.0
  0
SPLINE
  5
12b
100
AcDbEntity
  8
Layer_1
 62
7
100
AcDbSpline
 70
0
 71
3
 72
25
 73
21
 74
19
 40
0.000000
 40
0.000000
 40
0.000000
 40
0.000000
 40
0.505997
 40
1.004753
 40
1.510750
 40
2.016747
 40
2.515503
 40
3.021500
 40
3.527497
 40
4.026252
 40
4.532250
 40
5.038247
 40
5.537002
 40
6.042999
 40
6.548997
 40
7.047752
 40
7.553749
 40
8.059746
 40
8.558502
 40
9.064499
 40
9.064499
 40
9.064499
 40
9.064499
 10
230.822265
 20
79.750951
 30
0.0
 10
230.692863
 20
79.861830
 30
0.0
 10
230.435910
 20
80.082002
 30
0.0
 10
229.935914
 20
80.220331
 30
0.0
 10
229.424824
 20
80.190591
 30
0.0
 10
228.953326
 20
79.984128
 30
0.0
 10
228.581311
 20
79.630195
 30
0.0
 10
228.352121
 20
79.170027
 30
0.0
 10
228.295013
 20
78.659186
 30
0.0
 10
228.415564
 20
78.159854
 30
0.0
 10
228.699474
 20
77.731338
 30
0.0
 10
229.113325
 20
77.426446
 30
0.0
 10
229.606036
 20
77.281186
 30
0.0
 10
230.119087
 20
77.312791
 30
0.0
 10
230.590094
 20
77.518787
 30
0.0
 10
230.962109
 20
77.872720
 30
0.0
 10
231.191790
 20
78.333355
 30
0.0
 10
231.246937
 20
78.842331
 30
0.0
 10
231.133671
 20
79.348593
 30
0.0
 10
230.926565
 20
79.616189
 30
0.0
 10
230.822265
 20
79.750951
 30
0.0
 11
230.822265
 21
79.750951
 31
0.0
 11
230.414890
 21
80.051082
 31
0.0
 11
229.936493
 21
80.192125
 31
0.0
 11
229.431454
 21
80.160996
 31
0.0
 11
228.967846
 21
79.958264
 31
0.0
 11
228.606500
 21
79.614482
 31
0.0
 11
228.380939
 21
79.161541
 31
0.0
 11
228.324706
 21
78.658678
 31
0.0
 11
228.441757
 21
78.173853
 31
0.0
 11
228.721235
 21
77.752040
 31
0.0
 11
229.128610
 21
77.451910
 31
0.0
 11
229.607007
 21
77.310866
 31
0.0
 11
230.112046
 21
77.341995
 31
0.0
 11
230.575655
 21
77.544727
 31
0.0
 11
230.937000
 21
77.888510
 31
0.0
 11
231.162561
 21
78.341450
 31
0.0
 11
231.218795
 21
78.844313
 31
0.0
 11
231.101743
 21
79.329139
 31
0.0
 11
230.822265
 21
79.750951
 31
0.0
  0
LINE
  5
12c
100
AcDbEntity
  8
Layer_1
 62
7
100
AcDbLine
 10
230.314566
 20
22.183949
 30
0.0
 11
230.314566
 21
22.183949
 31
0.0
  0
SPLINE
  5
12d
100
AcDbEntity
  8
Layer_1
 62
7
100
AcDbSpline
 70
0
 71
3
 72
25
 73
21
 74
19
 40
0.000000
 40
0.000000
 40
0.000000
 40
0.000000
 40
1.744817
 40
3.464663
 40
5.209480
 40
6.954297
 40
8.674143
 40
10.418960
 40
12.163778
 40
13.883624
 40
15.628441
 40
17.373258
 40
19.093104
 40
20.837921
 40
22.582738
 40
24.302584
 40
26.047401
 40
27.792218
 40
29.512064
 40
31.256881
 40
31.256881
 40
31.256881
 40
31.256881
 10
230.314566
 20
22.183949
 30
0.0
 10
230.254827
 20
22.768521
 30
0.0
 10
230.136202
 20
23.929299
 30
0.0
 10
229.215871
 20
25.463285
 30
0.0
 10
227.868350
 20
26.603763
 30
0.0
 10
226.199699
 20
27.208635
 30
0.0
 10
224.429071
 20
27.208635
 30
0.0
 10
222.762757
 20
26.603763
 30
0.0
 10
221.405905
 20
25.463285
 30
0.0
 10
220.520245
 20
23.929299
 30
0.0
 10
220.211016
 20
22.183949
 30
0.0
 10
220.520245
 20
20.438599
 30
0.0
 10
221.405905
 20
18.904613
 30
0.0
 10
222.762757
 20
17.764135
 30
0.0
 10
224.429071
 20
17.159263
 30
0.0
 10
226.199699
 20
17.159263
 30
0.0
 10
227.868350
 20
17.764135
 30
0.0
 10
229.215871
 20
18.904613
 30
0.0
 10
230.136202
 20
20.438599
 30
0.0
 10
230.254827
 20
21.599377
 30
0.0
 10
230.314566
 20
22.183949
 30
0.0
 11
230.314566
 21
22.183949
 31
0.0
 11
230.010198
 21
23.902014
 31
0.0
 11
229.150275
 21
25.391444
 31
0.0
 11
227.814571
 21
26.514068
 31
0.0
 11
226.174499
 21
27.109509
 31
0.0
 11
224.454653
 21
27.109509
 31
0.0
 11
222.814581
 21
26.514068
 31
0.0
 11
221.478878
 21
25.391444
 31
0.0
 11
220.618955
 21
23.902014
 31
0.0
 11
220.314586
 21
22.183949
 31
0.0
 11
220.618955
 21
20.465884
 31
0.0
 11
221.478878
 21
18.976454
 31
0.0
 11
222.814581
 21
17.853831
 31
0.0
 11
224.454653
 21
17.258389
 31
0.0
 11
226.174499
 21
17.258389
 31
0.0
 11
227.814571
 21
17.853831
 31
0.0
 11
229.150275
 21
18.976454
 31
0.0
 11
230.010198
 21
20.465884
 31
0.0
 11
230.314566
 21
22.183949
 31
0.0
  0
LINE
  5
12e
100
AcDbEntity
  8
Layer_1
 62
7
100
AcDbLine
 10
226.764574
 20
22.183949
 30
0.0
 11
226.764574
 21
22.183949
 31
0.0
  0
LINE
  5
12f
100
AcDbEntity
  8
Layer_1
 62
7
100
AcDbLine
 10
155.636874
 20
70.271338
 30
0.0
 11
155.636874
 21
82.270169
 31
0.0
  0
LINE
  5
130
100
AcDbEntity
  8
Layer_1
 62
7
100
AcDbLine
 10
155.636874
 20
70.271338
 30
0.0
 11
204.297461
 21
70.271338
 31
0.0
  0
LINE
  5
131
100
AcDbEntity
  8
Layer_1
 62
7
100
AcDbLine
 10
155.636874
 20
82.270169
 30
0.0
 11
150.637053
 21
82.270169
 31
0.0
  0
LINE
  5
132
100
AcDbEntity
  8
Layer_1
 62
7
100
AcDbLine
 10
204.297461
 20
70.271338
 30
0.0
 11
204.297461
 21
67.270969
 31
0.0
  0
LINE
  5
133
100
AcDbEntity
  8
Layer_1
 62
7
100
AcDbLine
 10
150.637053
 20
79.269800
 30
0.0
 11
150.637053
 21
82.270169
 31
0.0
  0
LINE
  5
134
100
AcDbEntity
  8
Layer_1
 62
7
100
AcDbLine
 10
204.297461
 20
67.270969
 30
0.0
 11
209.297467
 21
67.270969
 31
0.0
  0
LINE
  5
135
100
AcDbEntity
  8
Layer_1
 62
7
100
AcDbLine
 10
145.636967
 20
79.269800
 30
0.0
 11
150.637053
 21
79.269800
 31
0.0
  0
LINE
  5
136
100
AcDbEntity
  8
Layer_1
 62
7
100
AcDbLine
 10
209.297467
 20
67.270969
 30
0.0
 11
209.297467
 21
70.271338
 31
0.0
  0
LINE
  5
137
100
AcDbEntity
  8
Layer_1
 62
7
100
AcDbLine
 10
145.636967
 20
82.270169
 30
0.0
 11
145.636967
 21
79.269800
 31
0.0
  0
LINE
  5
138
100
AcDbEntity
  8
Layer_1
 62
7
100
AcDbLine
 10
209.297467
 20
70.271338
 30
0.0
 11
256.697450
 21
70.271338
 31
0.0
  0
LINE
  5
139
100
AcDbEntity
  8
Layer_1
 62
7
100
AcDbLine
 10
145.636967
 20
82.270169
 30
0.0
 11
140.636881
 21
82.270169
 31
0.0
  0
LINE
  5
13a
100
AcDbEntity
  8
Layer_1
 62
7
100
AcDbLine
 10
256.697450
 20
70.271338
 30
0.0
 11
256.697450
 21
105.270087
 31
0.0
  0
LINE
  5
13b
100
AcDbEntity
  8
Layer_1
 62
7
100
AcDbLine
 10
140.636881
 20
82.270169
 30
0.0
 11
140.636881
 21
70.271338
 31
0.0
  0
LINE
  5
13c
100
AcDbEntity
  8
Layer_1
 62
7
100
AcDbLine
 10
271.697443
 20
105.270087
 30
0.0
 11
256.697450
 21
105.270087
 31
0.0
  0
LINE
  5
13d
100
AcDbEntity
  8
Layer_1
 62
7
100
AcDbLine
 10
140.636881
 20
50.271524
 30
0.0
 11
140.636881
 21
70.271338
 31
0.0
  0
LINE
  5
13e
100
AcDbEntity
  8
Layer_1
 62
7
100
AcDbLine
 10
271.697443
 20
102.269983
 30
0.0
 11
271.697443
 21
105.270087
 31
0.0
  0
LINE
  5
13f
100
AcDbEntity
  8
Layer_1
 62
7
100
AcDbLine
 10
140.636881
 20
38.270049
 30
0.0
 11
140.636881
 21
50.271524
 31
0.0
  0
LINE
  5
140
100
AcDbEntity
  8
Layer_1
 62
7
100
AcDbLine
 10
286.697436
 20
102.269983
 30
0.0
 11
271.697443
 21
102.269983
 31
0.0
  0
LINE
  5
141
100
AcDbEntity
  8
Layer_1
 62
7
100
AcDbLine
 10
145.636967
 20
38.270049
 30
0.0
 11
140.636881
 21
38.270049
 31
0.0
  0
LINE
  5
142
100
AcDbEntity
  8
Layer_1
 62
7
100
AcDbLine
 10
286.697436
 20
105.270087
 30
0.0
 11
286.697436
 21
102.269983
 31
0.0
  0
LINE
  5
143
100
AcDbEntity
  8
Layer_1
 62
7
100
AcDbLine
 10
145.636967
 20
38.270049
 30
0.0
 11
145.636967
 21
41.270417
 31
0.0
  0
LINE
  5
144
100
AcDbEntity
  8
Layer_1
 62
7
100
AcDbLine
 10
301.697164
 20
105.270087
 30
0.0
 11
286.697436
 21
105.270087
 31
0.0
  0
LINE
  5
145
100
AcDbEntity
  8
Layer_1
 62
7
100
AcDbLine
 10
145.636967
 20
41.270417
 30
0.0
 11
150.637053
 21
41.270417
 31
0.0
  0
LINE
  5
146
100
AcDbEntity
  8
Layer_1
 62
7
100
AcDbLine
 10
301.697164
 20
70.271338
 30
0.0
 11
301.697164
 21
105.270087
 31
0.0
  0
LINE
  5
147
100
AcDbEntity
  8
Layer_1
 62
7
100
AcDbLine
 10
150.637053
 20
41.270417
 30
0.0
 11
150.637053
 21
38.270049
 31
0.0
  0
LINE
  5
148
100
AcDbEntity
  8
Layer_1
 62
7
100
AcDbLine
 10
298.697324
 20
70.271338
 30
0.0
 11
301.697164
 21
70.271338
 31
0.0
  0
LINE
  5
149
100
AcDbEntity
  8
Layer_1
 62
7
100
AcDbLine
 10
155.636874
 20
38.270049
 30
0.0
 11
150.637053
 21
38.270049
 31
0.0
  0
LINE
  5
14a
100
AcDbEntity
  8
Layer_1
 62
7
100
AcDbLine
 10
298.697324
 20
70.271338
 30
0.0
 11
298.697324
 21
50.271524
 31
0.0
  0
LINE
  5
14b
100
AcDbEntity
  8
Layer_1
 62
7
100
AcDbLine
 10
155.636874
 20
50.271524
 30
0.0
 11
155.636874
 21
38.270049
 31
0.0
  0
LINE
  5
14c
100
AcDbEntity
  8
Layer_1
 62
7
100
AcDbLine
 10
298.697324
 20
50.271524
 30
0.0
 11
301.697164
 21
50.271524
 31
0.0
  0
LINE
  5
14d
100
AcDbEntity
  8
Layer_1
 62
7
100
AcDbLine
 10
204.297461
 20
50.271524
 30
0.0
 11
155.636874
 21
50.271524
 31
0.0
  0
LINE
  5
14e
100
AcDbEntity
  8
Layer_1
 62
7
100
AcDbLine
 10
301.697164
 20
50.271524
 30
0.0
 11
301.697164
 21
15.269866
 31
0.0
  0
LINE
  5
14f
100
AcDbEntity
  8
Layer_1
 62
7
100
AcDbLine
 10
204.297461
 20
50.271524
 30
0.0
 11
204.297461
 21
53.269248
 31
0.0
  0
LINE
  5
150
100
AcDbEntity
  8
Layer_1
 62
7
100
AcDbLine
 10
301.697164
 20
15.269866
 30
0.0
 11
286.697436
 21
15.269866
 31
0.0
  0
LINE
  5
151
100
AcDbEntity
  8
Layer_1
 62
7
100
AcDbLine
 10
204.297461
 20
53.269248
 30
0.0
 11
209.297467
 21
53.269248
 31
0.0
  0
LINE
  5
152
100
AcDbEntity
  8
Layer_1
 62
7
100
AcDbLine
 10
286.697436
 20
15.269866
 30
0.0
 11
286.697436
 21
18.270235
 31
0.0
  0
LINE
  5
153
100
AcDbEntity
  8
Layer_1
 62
7
100
AcDbLine
 10
209.297467
 20
53.269248
 30
0.0
 11
209.297467
 21
50.271524
 31
0.0
  0
LINE
  5
154
100
AcDbEntity
  8
Layer_1
 62
7
100
AcDbLine
 10
286.697436
 20
18.270235
 30
0.0
 11
271.697443
 21
18.270235
 31
0.0
  0
LINE
  5
155
100
AcDbEntity
  8
Layer_1
 62
7
100
AcDbLine
 10
256.697450
 20
50.271524
 30
0.0
 11
209.297467
 21
50.271524
 31
0.0
  0
LINE
  5
156
100
AcDbEntity
  8
Layer_1
 62
7
100
AcDbLine
 10
271.697443
 20
18.270235
 30
0.0
 11
271.697443
 21
15.269866
 31
0.0
  0
LINE
  5
157
100
AcDbEntity
  8
Layer_1
 62
7
100
AcDbLine
 10
256.697450
 20
15.269866
 30
0.0
 11
256.697450
 21
50.271524
 31
0.0
  0
LINE
  5
158
100
AcDbEntity
  8
Layer_1
 62
7
100
AcDbLine
 10
271.697443
 20
15.269866
 30
0.0
 11
256.697450
 21
15.269866
 31
0.0
  0
SPLINE
  5
159
100
AcDbEntity
  8
Layer_1
 62
7
100
AcDbSpline
 70
0
 71
3
 72
25
 73
21
 74
19
 40
0.000000
 40
0.000000
 40
0.000000
 40
0.000000
 40
0.505997
 40
1.004752
 40
1.510749
 40
2.016746
 40
2.515502
 40
3.021499
 40
3.527495
 40
4.026251
 40
4.532248
 40
5.038245
 40
5.537000
 40
6.042997
 40
6.548994
 40
7.047749
 40
7.553746
 40
8.059743
 40
8.558499
 40
9.064496
 40
9.064496
 40
9.064496
 40
9.064496
 10
226.764574
 20
22.183949
 30
0.0
 10
226.747249
 20
22.353475
 30
0.0
 10
226.712848
 20
22.690101
 30
0.0
 10
226.445952
 20
23.134957
 30
0.0
 10
226.055171
 20
23.465695
 30
0.0
 10
225.571262
 20
23.641108
 30
0.0
 10
225.057780
 20
23.641108
 30
0.0
 10
224.574549
 20
23.465695
 30
0.0
 10
224.181062
 20
23.134957
 30
0.0
 10
223.924220
 20
22.690101
 30
0.0
 10
223.834544
 20
22.183949
 30
0.0
 10
223.924220
 20
21.677798
 30
0.0
 10
224.181062
 20
21.232942
 30
0.0
 10
224.574549
 20
20.902203
 30
0.0
 10
225.057780
 20
20.726790
 30
0.0
 10
225.571262
 20
20.726790
 30
0.0
 10
226.055171
 20
20.902203
 30
0.0
 10
226.445952
 20
21.232942
 30
0.0
 10
226.712848
 20
21.677798
 30
0.0
 10
226.747249
 20
22.014423
 30
0.0
 10
226.764574
 20
22.183949
 30
0.0
 11
226.764574
 21
22.183949
 31
0.0
 11
226.676307
 21
22.682188
 31
0.0
 11
226.426929
 21
23.114123
 31
0.0
 11
226.039575
 21
23.439683
 31
0.0
 11
225.563954
 21
23.612361
 31
0.0
 11
225.065199
 21
23.612361
 31
0.0
 11
224.589578
 21
23.439683
 31
0.0
 11
224.202224
 21
23.114123
 31
0.0
 11
223.952846
 21
22.682188
 31
0.0
 11
223.864579
 21
22.183949
 31
0.0
 11
223.952846
 21
21.685710
 31
0.0
 11
224.202224
 21
21.253776
 31
0.0
 11
224.589578
 21
20.928215
 31
0.0
 11
225.065199
 21
20.755537
 31
0.0
 11
225.563954
 21
20.755537
 31
0.0
 11
226.039575
 21
20.928215
 31
0.0
 11
226.426929
 21
21.253776
 31
0.0
 11
226.676307
 21
21.685710
 31
0.0
 11
226.764574
 21
22.183949
 31
0.0
  0
LINE
  5
15a
100
AcDbEntity
  8
Layer_1
 62
7
100
AcDbLine
 10
149.686983
 20
47.770212
 30
0.0
 11
149.686983
 21
47.770212
 31
0.0
  0
SPLINE
  5
15b
100
AcDbEntity
  8
Layer_1
 62
7
100
AcDbSpline
 70
0
 71
3
 72
25
 73
21
 74
19
 40
0.000000
 40
0.000000
 40
0.000000
 40
0.000000
 40
0.541241
 40
1.074727
 40
1.615969
 40
2.157210
 40
2.690696
 40
3.231938
 40
3.773179
 40
4.306665
 40
4.847907
 40
5.389148
 40
5.922634
 40
6.463875
 40
7.005117
 40
7.538603
 40
8.079844
 40
8.621086
 40
9.154572
 40
9.695813
 40
9.695813
 40
9.695813
 40
9.695813
 10
149.686983
 20
47.770212
 30
0.0
 10
149.668623
 20
47.951565
 30
0.0
 10
149.632166
 20
48.311674
 30
0.0
 10
149.346989
 20
48.787721
 30
0.0
 10
148.929141
 20
49.141692
 30
0.0
 10
148.411556
 20
49.329443
 30
0.0
 10
147.862300
 20
49.329443
 30
0.0
 10
147.345434
 20
49.141692
 30
0.0
 10
146.924719
 20
48.787721
 30
0.0
 10
146.650196
 20
48.311674
 30
0.0
 10
146.555160
 20
47.770212
 30
0.0
 10
146.650196
 20
47.228749
 30
0.0
 10
146.924719
 20
46.752702
 30
0.0
 10
147.345434
 20
46.398732
 30
0.0
 10
147.862300
 20
46.210980
 30
0.0
 10
148.411556
 20
46.210980
 30
0.0
 10
148.929141
 20
46.398732
 30
0.0
 10
149.346989
 20
46.752702
 30
0.0
 10
149.632166
 20
47.228749
 30
0.0
 10
149.668623
 20
47.588858
 30
0.0
 10
149.686983
 20
47.770212
 30
0.0
 11
149.686983
 21
47.770212
 31
0.0
 11
149.593047
 21
48.303239
 31
0.0
 11
149.326616
 21
48.765431
 31
0.0
 11
148.912438
 21
49.113855
 31
0.0
 11
148.403730
 21
49.298675
 31
0.0
 11
147.870244
 21
49.298675
 31
0.0
 11
147.361536
 21
49.113855
 31
0.0
 11
146.947359
 21
48.765431
 31
0.0
 11
146.680927
 21
48.303239
 31
0.0
 11
146.586991
 21
47.770212
 31
0.0
 11
146.680927
 21
47.237184
 31
0.0
 11
146.947359
 21
46.774992
 31
0.0
 11
147.361536
 21
46.426568
 31
0.0
 11
147.870244
 21
46.241748
 31
0.0
 11
148.403730
 21
46.241748
 31
0.0
 11
148.912438
 21
46.426568
 31
0.0
 11
149.326616
 21
46.774992
 31
0.0
 11
149.593047
 21
47.237184
 31
0.0
 11
149.686983
 21
47.770212
 31
0.0
  0
LINE
  5
15c
100
AcDbEntity
  8
Layer_1
 62
7
100
AcDbLine
 10
280.747320
 20
35.270235
 30
0.0
 11
280.747320
 21
35.270235
 31
0.0
  0
SPLINE
  5
15d
100
AcDbEntity
  8
Layer_1
 62
7
100
AcDbSpline
 70
0
 71
3
 72
25
 73
21
 74
19
 40
0.000000
 40
0.000000
 40
0.000000
 40
0.000000
 40
0.540894
 40
1.074046
 40
1.614939
 40
2.155833
 40
2.688985
 40
3.229879
 40
3.770772
 40
4.303925
 40
4.844818
 40
5.385712
 40
5.918864
 40
6.459758
 40
7.000652
 40
7.533804
 40
8.074698
 40
8.615591
 40
9.148744
 40
9.689637
 40
9.689637
 40
9.689637
 40
9.689637
 10
280.747320
 20
35.270235
 30
0.0
 10
280.728801
 20
35.451453
 30
0.0
 10
280.692027
 20
35.811294
 30
0.0
 10
280.406725
 20
36.286830
 30
0.0
 10
279.988993
 20
36.640378
 30
0.0
 10
279.471711
 20
36.827888
 30
0.0
 10
278.922816
 20
36.827888
 30
0.0
 10
278.406259
 20
36.640378
 30
0.0
 10
277.985634
 20
36.286830
 30
0.0
 10
277.711079
 20
35.811294
 30
0.0
 10
277.615219
 20
35.270235
 30
0.0
 10
277.711079
 20
34.729176
 30
0.0
 10
277.985634
 20
34.253641
 30
0.0
 10
278.406259
 20
33.900092
 30
0.0
 10
278.922816
 20
33.712582
 30
0.0
 10
279.471711
 20
33.712582
 30
0.0
 10
279.988993
 20
33.900092
 30
0.0
 10
280.406725
 20
34.253641
 30
0.0
 10
280.692027
 20
34.729176
 30
0.0
 10
280.728801
 20
35.089018
 30
0.0
 10
280.747320
 20
35.270235
 30
0.0
 11
280.747320
 21
35.270235
 31
0.0
 11
280.652966
 21
35.802835
 31
0.0
 11
280.386390
 21
36.264559
 31
0.0
 11
279.972322
 21
36.612572
 31
0.0
 11
279.463899
 21
36.797159
 31
0.0
 11
278.930747
 21
36.797159
 31
0.0
 11
278.422324
 21
36.612572
 31
0.0
 11
278.008256
 21
36.264559
 31
0.0
 11
277.741680
 21
35.802835
 31
0.0
 11
277.647325
 21
35.270235
 31
0.0
 11
277.741680
 21
34.737635
 31
0.0
 11
278.008256
 21
34.275911
 31
0.0
 11
278.422324
 21
33.927898
 31
0.0
 11
278.930747
 21
33.743311
 31
0.0
 11
279.463899
 21
33.743311
 31
0.0
 11
279.972322
 21
33.927898
 31
0.0
 11
280.386390
 21
34.275911
 31
0.0
 11
280.652966
 21
34.737635
 31
0.0
 11
280.747320
 21
35.270235
 31
0.0
  0
LINE
  5
15e
100
AcDbEntity
  8
Layer_1
 62
7
100
AcDbLine
 10
268.247347
 20
47.770212
 30
0.0
 11
268.247347
 21
47.770212
 31
0.0
  0
SPLINE
  5
15f
100
AcDbEntity
  8
Layer_1
 62
7
100
AcDbSpline
 70
0
 71
3
 72
25
 73
21
 74
19
 40
0.000000
 40
0.000000
 40
0.000000
 40
0.000000
 40
0.540894
 40
1.074046
 40
1.614939
 40
2.155833
 40
2.688985
 40
3.229879
 40
3.770772
 40
4.303925
 40
4.844818
 40
5.385712
 40
5.918864
 40
6.459758
 40
7.000651
 40
7.533804
 40
8.074697
 40
8.615591
 40
9.148743
 40
9.689637
 40
9.689637
 40
9.689637
 40
9.689637
 10
268.247347
 20
47.770212
 30
0.0
 10
268.228827
 20
47.951429
 30
0.0
 10
268.192054
 20
48.311270
 30
0.0
 10
267.906751
 20
48.786806
 30
0.0
 10
267.489019
 20
49.140354
 30
0.0
 10
266.971737
 20
49.327865
 30
0.0
 10
266.422842
 20
49.327865
 30
0.0
 10
265.906285
 20
49.140354
 30
0.0
 10
265.485660
 20
48.786806
 30
0.0
 10
265.211106
 20
48.311270
 30
0.0
 10
265.115245
 20
47.770212
 30
0.0
 10
265.211106
 20
47.229153
 30
0.0
 10
265.485660
 20
46.753617
 30
0.0
 10
265.906285
 20
46.400069
 30
0.0
 10
266.422842
 20
46.212558
 30
0.0
 10
266.971737
 20
46.212558
 30
0.0
 10
267.489019
 20
46.400069
 30
0.0
 10
267.906751
 20
46.753617
 30
0.0
 10
268.192054
 20
47.229153
 30
0.0
 10
268.228827
 20
47.588994
 30
0.0
 10
268.247347
 20
47.770212
 30
0.0
 11
268.247347
 21
47.770212
 31
0.0
 11
268.152992
 21
48.302812
 31
0.0
 11
267.886416
 21
48.764535
 31
0.0
 11
267.472348
 21
49.112549
 31
0.0
 11
266.963925
 21
49.297136
 31
0.0
 11
266.430773
 21
49.297136
 31
0.0
 11
265.922350
 21
49.112549
 31
0.0
 11
265.508282
 21
48.764535
 31
0.0
 11
265.241706
 21
48.302812
 31
0.0
 11
265.147352
 21
47.770212
 31
0.0
 11
265.241706
 21
47.237611
 31
0.0
 11
265.508282
 21
46.775888
 31
0.0
 11
265.922350
 21
46.427874
 31
0.0
 11
266.430773
 21
46.243287
 31
0.0
 11
266.963925
 21
46.243287
 31
0.0
 11
267.472348
 21
46.427874
 31
0.0
 11
267.886416
 21
46.775888
 31
0.0
 11
268.152992
 21
47.237611
 31
0.0
 11
268.247347
 21
47.770212
 31
0.0
  0
LINE
  5
160
100
AcDbEntity
  8
Layer_1
 62
7
100
AcDbLine
 10
293.247297
 20
47.770212
 30
0.0
 11
293.247297
 21
47.770212
 31
0.0
  0
SPLINE
  5
161
100
AcDbEntity
  8
Layer_1
 62
7
100
AcDbSpline
 70
0
 71
3
 72
25
 73
21
 74
19
 40
0.000000
 40
0.000000
 40
0.000000
 40
0.000000
 40
0.540894
 40
1.074046
 40
1.614939
 40
2.155833
 40
2.688985
 40
3.229879
 40
3.770772
 40
4.303925
 40
4.844818
 40
5.385712
 40
5.918864
 40
6.459758
 40
7.000651
 40
7.533804
 40
8.074697
 40
8.615591
 40
9.148743
 40
9.689637
 40
9.689637
 40
9.689637
 40
9.689637
 10
293.247297
 20
47.770212
 30
0.0
 10
293.228777
 20
47.951429
 30
0.0
 10
293.192004
 20
48.311270
 30
0.0
 10
292.906701
 20
48.786806
 30
0.0
 10
292.488969
 20
49.140354
 30
0.0
 10
291.971687
 20
49.327865
 30
0.0
 10
291.422792
 20
49.327865
 30
0.0
 10
290.906235
 20
49.140354
 30
0.0
 10
290.485610
 20
48.786806
 30
0.0
 10
290.211056
 20
48.311270
 30
0.0
 10
290.115195
 20
47.770212
 30
0.0
 10
290.211056
 20
47.229153
 30
0.0
 10
290.485610
 20
46.753617
 30
0.0
 10
290.906235
 20
46.400069
 30
0.0
 10
291.422792
 20
46.212558
 30
0.0
 10
291.971687
 20
46.212558
 30
0.0
 10
292.488969
 20
46.400069
 30
0.0
 10
292.906701
 20
46.753617
 30
0.0
 10
293.192004
 20
47.229153
 30
0.0
 10
293.228777
 20
47.588994
 30
0.0
 10
293.247297
 20
47.770212
 30
0.0
 11
293.247297
 21
47.770212
 31
0.0
 11
293.152942
 21
48.302812
 31
0.0
 11
292.886366
 21
48.764535
 31
0.0
 11
292.472298
 21
49.112549
 31
0.0
 11
291.963875
 21
49.297136
 31
0.0
 11
291.430723
 21
49.297136
 31
0.0
 11
290.922300
 21
49.112549
 31
0.0
 11
290.508232
 21
48.764535
 31
0.0
 11
290.241656
 21
48.302812
 31
0.0
 11
290.147302
 21
47.770212
 31
0.0
 11
290.241656
 21
47.237611
 31
0.0
 11
290.508232
 21
46.775888
 31
0.0
 11
290.922300
 21
46.427874
 31
0.0
 11
291.430723
 21
46.243287
 31
0.0
 11
291.963875
 21
46.243287
 31
0.0
 11
292.472298
 21
46.427874
 31
0.0
 11
292.886366
 21
46.775888
 31
0.0
 11
293.152942
 21
47.237611
 31
0.0
 11
293.247297
 21
47.770212
 31
0.0
  0
LINE
  5
162
100
AcDbEntity
  8
Layer_1
 62
7
100
AcDbLine
 10
149.686983
 20
72.770164
 30
0.0
 11
149.686983
 21
72.770164
 31
0.0
  0
SPLINE
  5
163
100
AcDbEntity
  8
Layer_1
 62
7
100
AcDbSpline
 70
0
 71
3
 72
25
 73
21
 74
19
 40
0.000000
 40
0.000000
 40
0.000000
 40
0.000000
 40
0.541241
 40
1.074727
 40
1.615969
 40
2.157210
 40
2.690696
 40
3.231938
 40
3.773179
 40
4.306665
 40
4.847907
 40
5.389148
 40
5.922634
 40
6.463875
 40
7.005117
 40
7.538603
 40
8.079844
 40
8.621086
 40
9.154572
 40
9.695813
 40
9.695813
 40
9.695813
 40
9.695813
 10
149.686983
 20
72.770164
 30
0.0
 10
149.668623
 20
72.951518
 30
0.0
 10
149.632166
 20
73.311627
 30
0.0
 10
149.346989
 20
73.787674
 30
0.0
 10
148.929141
 20
74.141644
 30
0.0
 10
148.411556
 20
74.329395
 30
0.0
 10
147.862300
 20
74.329395
 30
0.0
 10
147.345434
 20
74.141644
 30
0.0
 10
146.924719
 20
73.787674
 30
0.0
 10
146.650196
 20
73.311627
 30
0.0
 10
146.555160
 20
72.770164
 30
0.0
 10
146.650196
 20
72.228701
 30
0.0
 10
146.924719
 20
71.752654
 30
0.0
 10
147.345434
 20
71.398684
 30
0.0
 10
147.862300
 20
71.210933
 30
0.0
 10
148.411556
 20
71.210933
 30
0.0
 10
148.929141
 20
71.398684
 30
0.0
 10
149.346989
 20
71.752654
 30
0.0
 10
149.632166
 20
72.228701
 30
0.0
 10
149.668623
 20
72.588810
 30
0.0
 10
149.686983
 20
72.770164
 30
0.0
 11
149.686983
 21
72.770164
 31
0.0
 11
149.593047
 21
73.303192
 31
0.0
 11
149.326616
 21
73.765384
 31
0.0
 11
148.912438
 21
74.113808
 31
0.0
 11
148.403730
 21
74.298627
 31
0.0
 11
147.870244
 21
74.298627
 31
0.0
 11
147.361536
 21
74.113808
 31
0.0
 11
146.947359
 21
73.765384
 31
0.0
 11
146.680927
 21
73.303192
 31
0.0
 11
146.586991
 21
72.770164
 31
0.0
 11
146.680927
 21
72.237137
 31
0.0
 11
146.947359
 21
71.774944
 31
0.0
 11
147.361536
 21
71.426520
 31
0.0
 11
147.870244
 21
71.241701
 31
0.0
 11
148.403730
 21
71.241701
 31
0.0
 11
148.912438
 21
71.426520
 31
0.0
 11
149.326616
 21
71.774944
 31
0.0
 11
149.593047
 21
72.237137
 31
0.0
 11
149.686983
 21
72.770164
 31
0.0
  0
LINE
  5
164
100
AcDbEntity
  8
Layer_1
 62
7
100
AcDbLine
 10
268.247347
 20
72.770164
 30
0.0
 11
268.247347
 21
72.770164
 31
0.0
  0
SPLINE
  5
165
100
AcDbEntity
  8
Layer_1
 62
7
100
AcDbSpline
 70
0
 71
3
 72
25
 73
21
 74
19
 40
0.000000
 40
0.000000
 40
0.000000
 40
0.000000
 40
0.540894
 40
1.074046
 40
1.614939
 40
2.155833
 40
2.688985
 40
3.229879
 40
3.770772
 40
4.303925
 40
4.844818
 40
5.385712
 40
5.918864
 40
6.459758
 40
7.000651
 40
7.533804
 40
8.074697
 40
8.615591
 40
9.148743
 40
9.689637
 40
9.689637
 40
9.689637
 40
9.689637
 10
268.247347
 20
72.770164
 30
0.0
 10
268.228827
 20
72.951382
 30
0.0
 10
268.192054
 20
73.311223
 30
0.0
 10
267.906751
 20
73.786759
 30
0.0
 10
267.489019
 20
74.140307
 30
0.0
 10
266.971737
 20
74.327817
 30
0.0
 10
266.422842
 20
74.327817
 30
0.0
 10
265.906285
 20
74.140307
 30
0.0
 10
265.485660
 20
73.786759
 30
0.0
 10
265.211106
 20
73.311223
 30
0.0
 10
265.115245
 20
72.770164
 30
0.0
 10
265.211106
 20
72.229106
 30
0.0
 10
265.485660
 20
71.753570
 30
0.0
 10
265.906285
 20
71.400021
 30
0.0
 10
266.422842
 20
71.212511
 30
0.0
 10
266.971737
 20
71.212511
 30
0.0
 10
267.489019
 20
71.400021
 30
0.0
 10
267.906751
 20
71.753570
 30
0.0
 10
268.192054
 20
72.229106
 30
0.0
 10
268.228827
 20
72.588947
 30
0.0
 10
268.247347
 20
72.770164
 30
0.0
 11
268.247347
 21
72.770164
 31
0.0
 11
268.152992
 21
73.302765
 31
0.0
 11
267.886416
 21
73.764488
 31
0.0
 11
267.472348
 21
74.112501
 31
0.0
 11
266.963925
 21
74.297088
 31
0.0
 11
266.430773
 21
74.297088
 31
0.0
 11
265.922350
 21
74.112501
 31
0.0
 11
265.508282
 21
73.764488
 31
0.0
 11
265.241706
 21
73.302765
 31
0.0
 11
265.147352
 21
72.770164
 31
0.0
 11
265.241706
 21
72.237564
 31
0.0
 11
265.508282
 21
71.775840
 31
0.0
 11
265.922350
 21
71.427827
 31
0.0
 11
266.430773
 21
71.243240
 31
0.0
 11
266.963925
 21
71.243240
 31
0.0
 11
267.472348
 21
71.427827
 31
0.0
 11
267.886416
 21
71.775840
 31
0.0
 11
268.152992
 21
72.237564
 31
0.0
 11
268.247347
 21
72.770164
 31
0.0
  0
LINE
  5
166
100
AcDbEntity
  8
Layer_1
 62
7
100
AcDbLine
 10
293.247297
 20
72.770164
 30
0.0
 11
293.247297
 21
72.770164
 31
0.0
  0
SPLINE
  5
167
100
AcDbEntity
  8
Layer_1
 62
7
100
AcDbSpline
 70
0
 71
3
 72
25
 73
21
 74
19
 40
0.000000
 40
0.000000
 40
0.000000
 40
0.000000
 40
0.540894
 40
1.074046
 40
1.614939
 40
2.155833
 40
2.688985
 40
3.229879
 40
3.770772
 40
4.303925
 40
4.844818
 40
5.385712
 40
5.918864
 40
6.459758
 40
7.000651
 40
7.533804
 40
8.074697
 40
8.615591
 40
9.148743
 40
9.689637
 40
9.689637
 40
9.689637
 40
9.689637
 10
293.247297
 20
72.770164
 30
0.0
 10
293.228777
 20
72.951382
 30
0.0
 10
293.192004
 20
73.311223
 30
0.0
 10
292.906701
 20
73.786759
 30
0.0
 10
292.488969
 20
74.140307
 30
0.0
 10
291.971687
 20
74.327817
 30
0.0
 10
291.422792
 20
74.327817
 30
0.0
 10
290.906235
 20
74.140307
 30
0.0
 10
290.485610
 20
73.786759
 30
0.0
 10
290.211056
 20
73.311223
 30
0.0
 10
290.115195
 20
72.770164
 30
0.0
 10
290.211056
 20
72.229106
 30
0.0
 10
290.485610
 20
71.753570
 30
0.0
 10
290.906235
 20
71.400021
 30
0.0
 10
291.422792
 20
71.212511
 30
0.0
 10
291.971687
 20
71.212511
 30
0.0
 10
292.488969
 20
71.400021
 30
0.0
 10
292.906701
 20
71.753570
 30
0.0
 10
293.192004
 20
72.229106
 30
0.0
 10
293.228777
 20
72.588947
 30
0.0
 10
293.247297
 20
72.770164
 30
0.0
 11
293.247297
 21
72.770164
 31
0.0
 11
293.152942
 21
73.302765
 31
0.0
 11
292.886366
 21
73.764488
 31
0.0
 11
292.472298
 21
74.112501
 31
0.0
 11
291.963875
 21
74.297088
 31
0.0
 11
291.430723
 21
74.297088
 31
0.0
 11
290.922300
 21
74.112501
 31
0.0
 11
290.508232
 21
73.764488
 31
0.0
 11
290.241656
 21
73.302765
 31
0.0
 11
290.147302
 21
72.770164
 31
0.0
 11
290.241656
 21
72.237564
 31
0.0
 11
290.508232
 21
71.775840
 31
0.0
 11
290.922300
 21
71.427827
 31
0.0
 11
291.430723
 21
71.243240
 31
0.0
 11
291.963875
 21
71.243240
 31
0.0
 11
292.472298
 21
71.427827
 31
0.0
 11
292.886366
 21
71.775840
 31
0.0
 11
293.152942
 21
72.237564
 31
0.0
 11
293.247297
 21
72.770164
 31
0.0
  0
LINE
  5
168
100
AcDbEntity
  8
Layer_1
 62
7
100
AcDbLine
 10
280.747320
 20
85.270141
 30
0.0
 11
280.747320
 21
85.270141
 31
0.0
  0
LINE
  5
169
100
AcDbEntity
  8
Layer_1
 62
7
100
AcDbLine
 10
250.114527
 20
84.524414
 30
0.0
 11
250.114527
 21
89.323946
 31
0.0
  0
LINE
  5
16a
100
AcDbEntity
  8
Layer_1
 62
7
100
AcDbLine
 10
250.114527
 20
84.524414
 30
0.0
 11
244.414540
 21
84.524414
 31
0.0
  0
SPLINE
  5
16b
100
AcDbEntity
  8
Layer_1
 62
7
100
AcDbSpline
 70
0
 71
3
 72
25
 73
21
 74
19
 40
0.000000
 40
0.000000
 40
0.000000
 40
0.000000
 40
0.540894
 40
1.074046
 40
1.614939
 40
2.155833
 40
2.688985
 40
3.229879
 40
3.770772
 40
4.303925
 40
4.844818
 40
5.385712
 40
5.918864
 40
6.459758
 40
7.000652
 40
7.533804
 40
8.074698
 40
8.615591
 40
9.148744
 40
9.689637
 40
9.689637
 40
9.689637
 40
9.689637
 10
280.747320
 20
85.270141
 30
0.0
 10
280.728801
 20
85.451358
 30
0.0
 10
280.692027
 20
85.811199
 30
0.0
 10
280.406725
 20
86.286735
 30
0.0
 10
279.988993
 20
86.640283
 30
0.0
 10
279.471711
 20
86.827794
 30
0.0
 10
278.922816
 20
86.827794
 30
0.0
 10
278.406259
 20
86.640283
 30
0.0
 10
277.985634
 20
86.286735
 30
0.0
 10
277.711079
 20
85.811199
 30
0.0
 10
277.615219
 20
85.270141
 30
0.0
 10
277.711079
 20
84.729082
 30
0.0
 10
277.985634
 20
84.253546
 30
0.0
 10
278.406259
 20
83.899998
 30
0.0
 10
278.922816
 20
83.712487
 30
0.0
 10
279.471711
 20
83.712487
 30
0.0
 10
279.988993
 20
83.899998
 30
0.0
 10
280.406725
 20
84.253546
 30
0.0
 10
280.692027
 20
84.729082
 30
0.0
 10
280.728801
 20
85.088923
 30
0.0
 10
280.747320
 20
85.270141
 30
0.0
 11
280.747320
 21
85.270141
 31
0.0
 11
280.652966
 21
85.802741
 31
0.0
 11
280.386390
 21
86.264464
 31
0.0
 11
279.972322
 21
86.612478
 31
0.0
 11
279.463899
 21
86.797065
 31
0.0
 11
278.930747
 21
86.797065
 31
0.0
 11
278.422324
 21
86.612478
 31
0.0
 11
278.008256
 21
86.264464
 31
0.0
 11
277.741680
 21
85.802741
 31
0.0
 11
277.647325
 21
85.270141
 31
0.0
 11
277.741680
 21
84.737540
 31
0.0
 11
278.008256
 21
84.275817
 31
0.0
 11
278.422324
 21
83.927803
 31
0.0
 11
278.930747
 21
83.743216
 31
0.0
 11
279.463899
 21
83.743216
 31
0.0
 11
279.972322
 21
83.927803
 31
0.0
 11
280.386390
 21
84.275817
 31
0.0
 11
280.652966
 21
84.737540
 31
0.0
 11
280.747320
 21
85.270141
 31
0.0
  0
LINE
  5
16c
100
AcDbEntity
  8
Layer_1
 62
7
100
AcDbLine
 10
244.414540
 20
99.526259
 30
0.0
 11
250.114527
 21
99.526259
 31
0.0
  0
LINE
  5
16d
100
AcDbEntity
  8
Layer_1
 62
7
100
AcDbLine
 10
250.114527
 20
94.724081
 30
0.0
 11
250.114527
 21
99.526259
 31
0.0
  0
LINE
  5
16e
100
AcDbEntity
  8
Layer_1
 62
7
100
AcDbLine
 10
253.114525
 20
94.724081
 30
0.0
 11
250.114527
 21
94.724081
 31
0.0
  0
LINE
  5
16f
100
AcDbEntity
  8
Layer_1
 62
7
100
AcDbLine
 10
253.114525
 20
89.323946
 30
0.0
 11
253.114525
 21
94.724081
 31
0.0
  0
LINE
  5
170
100
AcDbEntity
  8
Layer_1
 62
7
100
AcDbLine
 10
250.114527
 20
89.323946
 30
0.0
 11
253.114525
 21
89.323946
 31
0.0
  0
SPLINE
  5
171
100
AcDbEntity
  8
Layer_1
 62
7
100
AcDbSpline
 70
0
 71
3
 72
13
 73
9
 74
7
 40
0.000000
 40
0.000000
 40
0.000000
 40
0.000000
 40
3.919691
 40
7.723213
 40
11.642903
 40
15.562594
 40
19.366116
 40
23.285807
 40
23.285807
 40
23.285807
 40
23.285807
 10
244.414529
 20
99.525121
 30
0.0
 10
243.093152
 20
99.318096
 30
0.0
 10
240.489560
 20
98.910181
 30
0.0
 10
237.624085
 20
95.926997
 30
0.0
 10
236.562383
 20
92.025138
 30
0.0
 10
237.624085
 20
88.123279
 30
0.0
 10
240.489560
 20
85.140095
 30
0.0
 10
243.093152
 20
84.732180
 30
0.0
 10
244.414529
 20
84.525155
 30
0.0
 11
244.414529
 21
99.525121
 31
0.0
 11
240.631425
 21
98.499403
 31
0.0
 11
237.942874
 21
95.808962
 31
0.0
 11
236.919815
 21
92.025138
 31
0.0
 11
237.942874
 21
88.241314
 31
0.0
 11
240.631425
 21
85.550873
 31
0.0
 11
244.414529
 21
84.525155
 31
0.0
  0
LINE
  5
172
100
AcDbEntity
  8
Layer_1
 62
7
100
AcDbLine
 10
245.814526
 20
92.025125
 30
0.0
 11
245.814526
 21
92.025125
 31
0.0
  0
LINE
  5
173
100
AcDbEntity
  8
Layer_1
 62
7
100
AcDbLine
 10
250.114207
 20
19.445894
 30
0.0
 11
250.114207
 21
24.245426
 31
0.0
  0
LINE
  5
174
100
AcDbEntity
  8
Layer_1
 62
7
100
AcDbLine
 10
250.114207
 20
19.445894
 30
0.0
 11
244.414221
 21
19.445894
 31
0.0
  0
SPLINE
  5
175
100
AcDbEntity
  8
Layer_1
 62
7
100
AcDbSpline
 70
0
 71
3
 72
25
 73
21
 74
19
 40
0.000000
 40
0.000000
 40
0.000000
 40
0.000000
 40
0.488684
 40
0.970370
 40
1.459054
 40
1.947738
 40
2.429424
 40
2.918108
 40
3.406792
 40
3.888479
 40
4.377162
 40
4.865846
 40
5.347533
 40
5.836217
 40
6.324901
 40
6.806587
 40
7.295271
 40
7.783955
 40
8.265641
 40
8.754325
 40
8.754325
 40
8.754325
 40
8.754325
 10
245.814526
 20
92.025125
 30
0.0
 10
245.797861
 20
92.188858
 30
0.0
 10
245.764769
 20
92.513980
 30
0.0
 10
245.507125
 20
92.943694
 30
0.0
 10
245.129774
 20
93.263192
 30
0.0
 10
244.662434
 20
93.432649
 30
0.0
 10
244.166518
 20
93.432649
 30
0.0
 10
243.699830
 20
93.263192
 30
0.0
 10
243.319876
 20
92.943694
 30
0.0
 10
243.071904
 20
92.513980
 30
0.0
 10
242.985639
 20
92.025125
 30
0.0
 10
243.071904
 20
91.536270
 30
0.0
 10
243.319876
 20
91.106555
 30
0.0
 10
243.699830
 20
90.787058
 30
0.0
 10
244.166518
 20
90.617600
 30
0.0
 10
244.662434
 20
90.617600
 30
0.0
 10
245.129774
 20
90.787058
 30
0.0
 10
245.507125
 20
91.106555
 30
0.0
 10
245.764769
 20
91.536270
 30
0.0
 10
245.797861
 20
91.861392
 30
0.0
 10
245.814526
 20
92.025125
 30
0.0
 11
245.814526
 21
92.025125
 31
0.0
 11
245.729465
 21
92.506349
 31
0.0
 11
245.488743
 21
92.923571
 31
0.0
 11
245.114704
 21
93.238065
 31
0.0
 11
244.655372
 21
93.404879
 31
0.0
 11
244.173686
 21
93.404879
 31
0.0
 11
243.714355
 21
93.238065
 31
0.0
 11
243.340315
 21
92.923571
 31
0.0
 11
243.099593
 21
92.506349
 31
0.0
 11
243.014532
 21
92.025125
 31
0.0
 11
243.099593
 21
91.543901
 31
0.0
 11
243.340315
 21
91.126678
 31
0.0
 11
243.714355
 21
90.812184
 31
0.0
 11
244.173686
 21
90.645371
 31
0.0
 11
244.655372
 21
90.645371
 31
0.0
 11
245.114704
 21
90.812184
 31
0.0
 11
245.488743
 21
91.126678
 31
0.0
 11
245.729465
 21
91.543901
 31
0.0
 11
245.814526
 21
92.025125
 31
0.0
  0
LINE
  5
176
100
AcDbEntity
  8
Layer_1
 62
7
100
AcDbLine
 10
244.414221
 20
34.447739
 30
0.0
 11
250.114207
 21
34.447739
 31
0.0
  0
LINE
  5
177
100
AcDbEntity
  8
Layer_1
 62
7
100
AcDbLine
 10
250.114207
 20
29.645561
 30
0.0
 11
250.114207
 21
34.447739
 31
0.0
  0
LINE
  5
178
100
AcDbEntity
  8
Layer_1
 62
7
100
AcDbLine
 10
253.114206
 20
29.645561
 30
0.0
 11
250.114207
 21
29.645561
 31
0.0
  0
LINE
  5
179
100
AcDbEntity
  8
Layer_1
 62
7
100
AcDbLine
 10
253.114206
 20
24.245426
 30
0.0
 11
253.114206
 21
29.645561
 31
0.0
  0
LINE
  5
17a
100
AcDbEntity
  8
Layer_1
 62
7
100
AcDbLine
 10
250.114207
 20
24.245426
 30
0.0
 11
253.114206
 21
24.245426
 31
0.0
  0
SPLINE
  5
17b
100
AcDbEntity
  8
Layer_1
 62
7
100
AcDbSpline
 70
0
 71
3
 72
13
 73
9
 74
7
 40
0.000000
 40
0.000000
 40
0.000000
 40
0.000000
 40
3.919691
 40
7.723213
 40
11.642903
 40
15.562594
 40
19.366116
 40
23.285807
 40
23.285807
 40
23.285807
 40
23.285807
 10
244.414210
 20
34.446601
 30
0.0
 10
243.092833
 20
34.239575
 30
0.0
 10
240.489241
 20
33.831660
 30
0.0
 10
237.623766
 20
30.848477
 30
0.0
 10
236.562064
 20
26.946618
 30
0.0
 10
237.623766
 20
23.044758
 30
0.0
 10
240.489241
 20
20.061575
 30
0.0
 10
243.092833
 20
19.653660
 30
0.0
 10
244.414210
 20
19.446635
 30
0.0
 11
244.414210
 21
34.446601
 31
0.0
 11
240.631106
 21
33.420883
 31
0.0
 11
237.942555
 21
30.730442
 31
0.0
 11
236.919496
 21
26.946618
 31
0.0
 11
237.942555
 21
23.162793
 31
0.0
 11
240.631106
 21
20.472352
 31
0.0
 11
244.414210
 21
19.446635
 31
0.0
  0
LINE
  5
17c
100
AcDbEntity
  8
Layer_1
 62
7
100
AcDbLine
 10
245.814207
 20
26.946604
 30
0.0
 11
245.814207
 21
26.946604
 31
0.0
  0
SPLINE
  5
17d
100
AcDbEntity
  8
Layer_1
 62
7
100
AcDbSpline
 70
0
 71
3
 72
25
 73
21
 74
19
 40
0.000000
 40
0.000000
 40
0.000000
 40
0.000000
 40
0.488684
 40
0.970370
 40
1.459054
 40
1.947738
 40
2.429424
 40
2.918108
 40
3.406792
 40
3.888479
 40
4.377162
 40
4.865846
 40
5.347533
 40
5.836217
 40
6.324901
 40
6.806587
 40
7.295271
 40
7.783955
 40
8.265641
 40
8.754325
 40
8.754325
 40
8.754325
 40
8.754325
 10
245.814207
 20
26.946604
 30
0.0
 10
245.797542
 20
27.110338
 30
0.0
 10
245.764450
 20
27.435459
 30
0.0
 10
245.506805
 20
27.865174
 30
0.0
 10
245.129454
 20
28.184671
 30
0.0
 10
244.662114
 20
28.354129
 30
0.0
 10
244.166198
 20
28.354129
 30
0.0
 10
243.699510
 20
28.184671
 30
0.0
 10
243.319556
 20
27.865174
 30
0.0
 10
243.071584
 20
27.435459
 30
0.0
 10
242.985320
 20
26.946604
 30
0.0
 10
243.071584
 20
26.457750
 30
0.0
 10
243.319556
 20
26.028035
 30
0.0
 10
243.699510
 20
25.708537
 30
0.0
 10
244.166198
 20
25.539080
 30
0.0
 10
244.662114
 20
25.539080
 30
0.0
 10
245.129454
 20
25.708537
 30
0.0
 10
245.506805
 20
26.028035
 30
0.0
 10
245.764450
 20
26.457750
 30
0.0
 10
245.797542
 20
26.782871
 30
0.0
 10
245.814207
 20
26.946604
 30
0.0
 11
245.814207
 21
26.946604
 31
0.0
 11
245.729146
 21
27.427828
 31
0.0
 11
245.488424
 21
27.845051
 31
0.0
 11
245.114384
 21
28.159545
 31
0.0
 11
244.655053
 21
28.326359
 31
0.0
 11
244.173367
 21
28.326359
 31
0.0
 11
243.714035
 21
28.159545
 31
0.0
 11
243.339996
 21
27.845051
 31
0.0
 11
243.099274
 21
27.427828
 31
0.0
 11
243.014213
 21
26.946604
 31
0.0
 11
243.099274
 21
26.465380
 31
0.0
 11
243.339996
 21
26.048158
 31
0.0
 11
243.714035
 21
25.733664
 31
0.0
 11
244.173367
 21
25.566850
 31
0.0
 11
244.655053
 21
25.566850
 31
0.0
 11
245.114384
 21
25.733664
 31
0.0
 11
245.488424
 21
26.048158
 31
0.0
 11
245.729146
 21
26.465380
 31
0.0
 11
245.814207
 21
26.946604
 31
0.0
  0
SPLINE
  5
17e
100
AcDbEntity
  8
Layer_1
 62
7
100
AcDbSpline
 70
0
 71
3
 72
16
 73
12
 74
10
 40
0.000000
 40
0.000000
 40
0.000000
 40
0.000000
 40
17.449312
 40
34.648867
 40
52.098179
 40
69.547492
 40
86.747046
 40
104.196359
 40
121.645671
 40
138.845226
 40
156.294538
 40
156.294538
 40
156.294538
 40
156.294538
 10
504.074883
 20
60.269838
 30
0.0
 10
503.478016
 20
66.116006
 30
0.0
 10
502.292827
 20
77.724664
 30
0.0
 10
493.089795
 20
93.066199
 30
0.0
 10
479.614686
 20
104.472365
 30
0.0
 10
462.925378
 20
110.521871
 30
0.0
 10
445.224588
 20
110.521871
 30
0.0
 10
428.535280
 20
104.472365
 30
0.0
 10
415.060171
 20
93.066199
 30
0.0
 10
405.857139
 20
77.724664
 30
0.0
 10
404.671950
 20
66.116006
 30
0.0
 10
404.075083
 20
60.269838
 30
0.0
 11
504.074883
 21
60.269838
 31
0.0
 11
501.032567
 21
77.451887
 31
0.0
 11
492.433811
 21
92.347728
 31
0.0
 11
479.076418
 21
103.575308
 31
0.0
 11
462.674760
 21
109.530485
 31
0.0
 11
445.475206
 21
109.530485
 31
0.0
 11
429.073548
 21
103.575308
 31
0.0
 11
415.716155
 21
92.347728
 31
0.0
 11
407.117399
 21
77.451887
 31
0.0
 11
404.075083
 21
60.269838
 31
0.0
  0
LINE
  5
17f
100
AcDbEntity
  8
Layer_1
 62
7
100
AcDbLine
 10
504.074883
 20
60.269838
 30
0.0
 11
504.074883
 21
60.269838
 31
0.0
  0
LINE
  5
180
100
AcDbEntity
  8
Layer_1
 62
7
100
AcDbLine
 10
464.543270
 20
85.762820
 30
0.0
 11
457.910179
 21
81.932719
 31
0.0
  0
SPLINE
  5
181
100
AcDbEntity
  8
Layer_1
 62
7
100
AcDbSpline
 70
0
 71
3
 72
16
 73
12
 74
10
 40
0.000000
 40
0.000000
 40
0.000000
 40
0.000000
 40
17.449312
 40
34.648867
 40
52.098179
 40
69.547492
 40
86.747046
 40
104.196359
 40
121.645671
 40
138.845226
 40
156.294538
 40
156.294538
 40
156.294538
 40
156.294538
 10
404.075083
 20
60.269838
 30
0.0
 10
404.671950
 20
54.423670
 30
0.0
 10
405.857139
 20
42.815012
 30
0.0
 10
415.060171
 20
27.473477
 30
0.0
 10
428.535280
 20
16.067311
 30
0.0
 10
445.224588
 20
10.017805
 30
0.0
 10
462.925378
 20
10.017805
 30
0.0
 10
479.614686
 20
16.067311
 30
0.0
 10
493.089795
 20
27.473477
 30
0.0
 10
502.292827
 20
42.815012
 30
0.0
 10
503.478016
 20
54.423670
 30
0.0
 10
504.074883
 20
60.269838
 30
0.0
 11
404.075083
 21
60.269838
 31
0.0
 11
407.117399
 21
43.087789
 31
0.0
 11
415.716155
 21
28.191948
 31
0.0
 11
429.073548
 21
16.964368
 31
0.0
 11
445.475206
 21
11.009191
 31
0.0
 11
462.674760
 21
11.009191
 31
0.0
 11
479.076418
 21
16.964368
 31
0.0
 11
492.433811
 21
28.191948
 31
0.0
 11
501.032567
 21
43.087789
 31
0.0
 11
504.074883
 21
60.269838
 31
0.0
  0
LINE
  5
182
100
AcDbEntity
  8
Layer_1
 62
7
100
AcDbLine
 10
433.396635
 20
67.779920
 30
0.0
 11
426.763439
 21
63.950349
 31
0.0
  0
SPLINE
  5
183
100
AcDbEntity
  8
Layer_1
 62
7
100
AcDbSpline
 70
0
 71
3
 72
10
 73
6
 74
4
 40
0.000000
 40
0.000000
 40
0.000000
 40
0.000000
 40
10.240029
 40
20.231928
 40
30.471956
 40
30.471956
 40
30.471956
 40
30.471956
 10
457.910057
 20
81.932947
 30
0.0
 10
454.452787
 20
82.059224
 30
0.0
 10
447.622019
 20
82.308719
 30
0.0
 10
438.215292
 20
76.877764
 30
0.0
 10
435.015956
 20
70.837410
 30
0.0
 10
433.396670
 20
67.780193
 30
0.0
 11
457.910057
 21
81.932947
 31
0.0
 11
447.688142
 21
81.324144
 31
0.0
 11
439.034895
 21
76.328210
 31
0.0
 11
433.396670
 21
67.780193
 31
0.0
  0
SPLINE
  5
184
100
AcDbEntity
  8
Layer_1
 62
7
100
AcDbSpline
 70
0
 71
3
 72
13
 73
9
 74
7
 40
0.000000
 40
0.000000
 40
0.000000
 40
0.000000
 40
0.567279
 40
1.125126
 40
1.692405
 40
2.259684
 40
2.817532
 40
3.384810
 40
3.384810
 40
3.384810
 40
3.384810
 10
424.536518
 20
65.511522
 30
0.0
 10
424.524083
 20
65.320519
 30
0.0
 10
424.499421
 20
64.941686
 30
0.0
 10
424.731872
 20
64.406126
 30
0.0
 10
425.131036
 20
63.990698
 30
0.0
 10
425.657677
 20
63.757112
 30
0.0
 10
426.240402
 20
63.721212
 30
0.0
 10
426.588121
 20
63.873572
 30
0.0
 10
426.763437
 20
63.950391
 30
0.0
 11
424.536518
 21
65.511522
 31
0.0
 11
424.544768
 21
64.944304
 31
0.0
 11
424.757822
 21
64.428744
 31
0.0
 11
425.152401
 21
64.021174
 31
0.0
 11
425.670090
 21
63.789219
 31
0.0
 11
426.227400
 21
63.764733
 31
0.0
 11
426.763437
 21
63.950391
 31
0.0
  0
SPLINE
  5
185
100
AcDbEntity
  8
Layer_1
 62
7
100
AcDbSpline
 70
0
 71
3
 72
13
 73
9
 74
7
 40
0.000000
 40
0.000000
 40
0.000000
 40
0.000000
 40
8.714436
 40
17.340785
 40
26.055221
 40
34.769657
 40
43.396007
 40
52.110443
 40
52.110443
 40
52.110443
 40
52.110443
 10
464.304759
 20
88.471753
 30
0.0
 10
461.480041
 20
89.233720
 30
0.0
 10
455.859157
 20
90.749951
 30
0.0
 10
447.040606
 20
89.841918
 30
0.0
 10
438.855860
 20
86.630344
 30
0.0
 10
431.982144
 20
81.147981
 30
0.0
 10
426.786438
 20
73.964945
 30
0.0
 10
425.289052
 20
68.339011
 30
0.0
 10
424.536555
 20
65.511755
 30
0.0
 11
464.304759
 21
88.471753
 31
0.0
 11
455.767919
 21
90.222113
 31
0.0
 11
447.174806
 21
89.465597
 31
0.0
 11
439.075104
 21
86.250599
 31
0.0
 11
432.240945
 21
80.843598
 31
0.0
 11
427.289177
 21
73.780036
 31
0.0
 11
424.536555
 21
65.511755
 31
0.0
  0
LINE
  5
186
100
AcDbEntity
  8
Layer_1
 62
7
100
AcDbLine
 10
426.763439
 20
56.589126
 30
0.0
 11
433.396635
 21
52.759555
 31
0.0
  0
SPLINE
  5
187
100
AcDbEntity
  8
Layer_1
 62
7
100
AcDbSpline
 70
0
 71
3
 72
13
 73
9
 74
7
 40
0.000000
 40
0.000000
 40
0.000000
 40
0.000000
 40
0.567278
 40
1.125124
 40
1.692401
 40
2.259679
 40
2.817525
 40
3.384803
 40
3.384803
 40
3.384803
 40
3.384803
 10
464.543262
 20
85.762748
 30
0.0
 10
464.697447
 20
85.876167
 30
0.0
 10
465.003254
 20
86.101119
 30
0.0
 10
465.263527
 20
86.623723
 30
0.0
 10
465.324556
 20
87.196598
 30
0.0
 10
465.164370
 20
87.749998
 30
0.0
 10
464.816789
 20
88.219086
 30
0.0
 10
464.476382
 20
88.387146
 30
0.0
 10
464.304751
 20
88.471880
 30
0.0
 11
464.543262
 21
85.762748
 31
0.0
 11
464.972065
 21
86.134140
 31
0.0
 11
465.229514
 21
86.629026
 31
0.0
 11
465.287482
 21
87.193334
 31
0.0
 11
465.131807
 21
87.738833
 31
0.0
 11
464.791849
 21
88.181124
 31
0.0
 11
464.304751
 21
88.471880
 31
0.0
  0
LINE
  5
188
100
AcDbEntity
  8
Layer_1
 62
7
100
AcDbLine
 10
457.910179
 20
38.606756
 30
0.0
 11
464.543270
 21
34.777185
 31
0.0
  0
SPLINE
  5
189
100
AcDbEntity
  8
Layer_1
 62
7
100
AcDbSpline
 70
0
 71
3
 72
10
 73
6
 74
4
 40
0.000000
 40
0.000000
 40
0.000000
 40
0.000000
 40
10.240029
 40
20.231928
 40
30.471956
 40
30.471956
 40
30.471956
 40
30.471956
 10
433.396670
 20
52.759483
 30
0.0
 10
435.015956
 20
49.702266
 30
0.0
 10
438.215292
 20
43.661912
 30
0.0
 10
447.622019
 20
38.230957
 30
0.0
 10
454.452787
 20
38.480452
 30
0.0
 10
457.910057
 20
38.606730
 30
0.0
 11
433.396670
 21
52.759483
 31
0.0
 11
439.034895
 21
44.211466
 31
0.0
 11
447.688142
 21
39.215532
 31
0.0
 11
457.910057
 21
38.606730
 31
0.0
  0
SPLINE
  5
18a
100
AcDbEntity
  8
Layer_1
 62
7
100
AcDbSpline
 70
0
 71
3
 72
13
 73
9
 74
7
 40
0.000000
 40
0.000000
 40
0.000000
 40
0.000000
 40
0.567276
 40
1.125122
 40
1.692398
 40
2.259675
 40
2.817520
 40
3.384796
 40
3.384796
 40
3.384796
 40
3.384796
 10
464.304751
 20
32.067896
 30
0.0
 10
464.476381
 20
32.152631
 30
0.0
 10
464.816788
 20
32.320691
 30
0.0
 10
465.164367
 20
32.789778
 30
0.0
 10
465.324553
 20
33.343177
 30
0.0
 10
465.263524
 20
33.916052
 30
0.0
 10
465.003253
 20
34.438655
 30
0.0
 10
464.697447
 20
34.663607
 30
0.0
 10
464.543262
 20
34.777026
 30
0.0
 11
464.304751
 21
32.067896
 31
0.0
 11
464.791848
 21
32.358653
 31
0.0
 11
465.131805
 21
32.800943
 31
0.0
 11
465.287479
 21
33.346441
 31
0.0
 11
465.229512
 21
33.910748
 31
0.0
 11
464.972063
 21
34.405634
 31
0.0
 11
464.543262
 21
34.777026
 31
0.0
  0
SPLINE
  5
18b
100
AcDbEntity
  8
Layer_1
 62
7
100
AcDbSpline
 70
0
 71
3
 72
13
 73
9
 74
7
 40
0.000000
 40
0.000000
 40
0.000000
 40
0.000000
 40
8.714436
 40
17.340785
 40
26.055221
 40
34.769657
 40
43.396007
 40
52.110443
 40
52.110443
 40
52.110443
 40
52.110443
 10
424.536555
 20
55.027921
 30
0.0
 10
425.289052
 20
52.200665
 30
0.0
 10
426.786438
 20
46.574732
 30
0.0
 10
431.982144
 20
39.391695
 30
0.0
 10
438.855860
 20
33.909333
 30
0.0
 10
447.040606
 20
30.697758
 30
0.0
 10
455.859157
 20
29.789725
 30
0.0
 10
461.480041
 20
31.305956
 30
0.0
 10
464.304759
 20
32.067923
 30
0.0
 11
424.536555
 21
55.027921
 31
0.0
 11
427.289177
 21
46.759640
 31
0.0
 11
432.240945
 21
39.696078
 31
0.0
 11
439.075104
 21
34.289077
 31
0.0
 11
447.174806
 21
31.074079
 31
0.0
 11
455.767919
 21
30.317563
 31
0.0
 11
464.304759
 21
32.067923
 31
0.0
  0
SPLINE
  5
18c
100
AcDbEntity
  8
Layer_1
 62
7
100
AcDbSpline
 70
0
 71
3
 72
13
 73
9
 74
7
 40
0.000000
 40
0.000000
 40
0.000000
 40
0.000000
 40
0.567279
 40
1.125126
 40
1.692405
 40
2.259684
 40
2.817532
 40
3.384810
 40
3.384810
 40
3.384810
 40
3.384810
 10
426.763437
 20
56.589282
 30
0.0
 10
426.588121
 20
56.666101
 30
0.0
 10
426.240402
 20
56.818462
 30
0.0
 10
425.657677
 20
56.782562
 30
0.0
 10
425.131036
 20
56.548975
 30
0.0
 10
424.731872
 20
56.133547
 30
0.0
 10
424.499421
 20
55.597987
 30
0.0
 10
424.524083
 20
55.219155
 30
0.0
 10
424.536518
 20
55.028151
 30
0.0
 11
426.763437
 21
56.589282
 31
0.0
 11
426.227400
 21
56.774940
 31
0.0
 11
425.670090
 21
56.750454
 31
0.0
 11
425.152401
 21
56.518499
 31
0.0
 11
424.757822
 21
56.110930
 31
0.0
 11
424.544768
 21
55.595370
 31
0.0
 11
424.536518
 21
55.028151
 31
0.0
  0
SPLINE
  5
18d
100
AcDbEntity
  8
Layer_1
 62
7
100
AcDbSpline
 70
0
 71
3
 72
19
 73
15
 74
13
 40
0.000000
 40
0.000000
 40
0.000000
 40
0.000000
 40
0.567277
 40
1.125123
 40
1.692400
 40
2.259677
 40
2.817522
 40
3.384799
 40
12.099236
 40
20.725619
 40
29.440090
 40
38.154561
 40
46.780944
 40
55.495415
 40
55.495415
 40
55.495415
 40
55.495415
 10
470.918250
 20
38.457682
 30
0.0
 10
470.939380
 20
38.267446
 30
0.0
 10
470.981288
 20
37.890136
 30
0.0
 10
471.303756
 20
37.403414
 30
0.0
 10
471.769302
 20
37.064195
 30
0.0
 10
472.328886
 20
36.925950
 30
0.0
 10
472.908058
 20
36.993415
 30
0.0
 10
475.688275
 20
38.814761
 30
0.0
 10
479.418580
 20
43.671211
 30
0.0
 10
483.245782
 20
51.525481
 30
0.0
 10
484.501733
 20
60.283382
 30
0.0
 10
483.205446
 20
68.960293
 30
0.0
 10
479.578695
 20
77.055908
 30
0.0
 10
475.455659
 20
81.165040
 30
0.0
 10
473.383669
 20
83.230043
 30
0.0
 11
470.918250
 21
38.457682
 31
0.0
 11
471.025483
 21
37.900633
 31
0.0
 11
471.325342
 21
37.430232
 31
0.0
 11
471.785063
 21
37.097877
 31
0.0
 11
472.335315
 21
36.959945
 31
0.0
 11
472.888328
 21
37.033211
 31
0.0
 11
473.383680
 21
37.309671
 31
0.0
 11
479.167965
 21
43.827604
 31
0.0
 11
482.809360
 21
51.647753
 31
0.0
 11
484.074922
 21
60.269838
 31
0.0
 11
482.809360
 21
68.891924
 31
0.0
 11
479.167965
 21
76.712072
 31
0.0
 11
473.383669
 21
83.230043
 31
0.0
  0
LINE
  5
18e
100
AcDbEntity
  8
Layer_1
 62
7
100
AcDbLine
 10
470.918128
 20
74.422801
 30
0.0
 11
470.918128
 21
82.081679
 31
0.0
  0
SPLINE
  5
18f
100
AcDbEntity
  8
Layer_1
 62
7
100
AcDbSpline
 70
0
 71
3
 72
13
 73
9
 74
7
 40
0.000000
 40
0.000000
 40
0.000000
 40
0.000000
 40
0.567277
 40
1.125123
 40
1.692400
 40
2.259677
 40
2.817522
 40
3.384799
 40
3.384799
 40
3.384799
 40
3.384799
 10
473.383680
 20
83.229804
 30
0.0
 10
473.224483
 20
83.336073
 30
0.0
 10
472.908735
 20
83.546844
 30
0.0
 10
472.328703
 20
83.613313
 30
0.0
 10
471.769352
 20
83.475338
 30
0.0
 10
471.303743
 20
83.136047
 30
0.0
 10
470.981292
 20
82.649343
 30
0.0
 10
470.939381
 20
82.272030
 30
0.0
 10
470.918250
 20
82.081793
 30
0.0
 11
473.383680
 21
83.229804
 31
0.0
 11
472.888328
 21
83.506264
 31
0.0
 11
472.335315
 21
83.579531
 31
0.0
 11
471.785063
 21
83.441598
 31
0.0
 11
471.325342
 21
83.109243
 31
0.0
 11
471.025483
 21
82.638842
 31
0.0
 11
470.918250
 21
82.081793
 31
0.0
  0
LINE
  5
190
100
AcDbEntity
  8
Layer_1
 62
7
100
AcDbLine
 10
470.918128
 20
38.457796
 30
0.0
 11
470.918128
 21
46.116939
 31
0.0
  0
SPLINE
  5
191
100
AcDbEntity
  8
Layer_1
 62
7
100
AcDbSpline
 70
0
 71
3
 72
10
 73
6
 74
4
 40
0.000000
 40
0.000000
 40
0.000000
 40
0.000000
 40
10.240053
 40
20.231975
 40
30.472029
 40
30.472029
 40
30.472029
 40
30.472029
 10
470.918247
 20
46.117013
 30
0.0
 10
472.756245
 20
49.047967
 30
0.0
 10
476.387704
 20
54.838853
 30
0.0
 10
476.387704
 20
65.700823
 30
0.0
 10
472.756245
 20
71.491710
 30
0.0
 10
470.918247
 20
74.422663
 30
0.0
 11
470.918247
 21
46.117013
 31
0.0
 11
475.501972
 21
55.273877
 31
0.0
 11
475.501972
 21
65.265799
 31
0.0
 11
470.918247
 21
74.422663
 31
0.0
  0
LINE
  5
192
100
AcDbEntity
  8
Layer_1
 62
7
100
AcDbLine
 10
455.474980
 20
60.269838
 30
0.0
 11
455.474980
 21
60.269838
 31
0.0
  0
SPLINE
  5
193
100
AcDbEntity
  8
Layer_1
 62
7
100
AcDbSpline
 70
0
 71
3
 72
25
 73
21
 74
19
 40
0.000000
 40
0.000000
 40
0.000000
 40
0.000000
 40
0.488549
 40
0.970106
 40
1.458655
 40
1.947204
 40
2.428761
 40
2.917310
 40
3.405859
 40
3.887416
 40
4.375964
 40
4.864513
 40
5.346070
 40
5.834619
 40
6.323168
 40
6.804725
 40
7.293274
 40
7.781823
 40
8.263380
 40
8.751929
 40
8.751929
 40
8.751929
 40
8.751929
 10
455.474980
 20
60.269838
 30
0.0
 10
455.458253
 20
60.433518
 30
0.0
 10
455.425038
 20
60.758536
 30
0.0
 10
455.167345
 20
61.188052
 30
0.0
 10
454.790039
 20
61.507386
 30
0.0
 10
454.322817
 20
61.676750
 30
0.0
 10
453.827041
 20
61.676750
 30
0.0
 10
453.360473
 20
61.507386
 30
0.0
 10
452.980554
 20
61.188052
 30
0.0
 10
452.732569
 20
60.758536
 30
0.0
 10
452.645985
 20
60.269838
 30
0.0
 10
452.732569
 20
59.781140
 30
0.0
 10
452.980554
 20
59.351624
 30
0.0
 10
453.360473
 20
59.032290
 30
0.0
 10
453.827041
 20
58.862926
 30
0.0
 10
454.322817
 20
58.862926
 30
0.0
 10
454.790039
 20
59.032290
 30
0.0
 10
455.167345
 20
59.351624
 30
0.0
 10
455.425038
 20
59.781140
 30
0.0
 10
455.458253
 20
60.106158
 30
0.0
 10
455.474980
 20
60.269838
 30
0.0
 11
455.474980
 21
60.269838
 31
0.0
 11
455.389757
 21
60.750896
 31
0.0
 11
455.148979
 21
61.167937
 31
0.0
 11
454.774981
 21
61.482272
 31
0.0
 11
454.315761
 21
61.648995
 31
0.0
 11
453.834204
 21
61.648995
 31
0.0
 11
453.374984
 21
61.482272
 31
0.0
 11
453.000987
 21
61.167937
 31
0.0
 11
452.760208
 21
60.750896
 31
0.0
 11
452.674985
 21
60.269838
 31
0.0
 11
452.760208
 21
59.788780
 31
0.0
 11
453.000987
 21
59.371739
 31
0.0
 11
453.374984
 21
59.057405
 31
0.0
 11
453.834204
 21
58.890681
 31
0.0
 11
454.315761
 21
58.890681
 31
0.0
 11
454.774981
 21
59.057405
 31
0.0
 11
455.148979
 21
59.371739
 31
0.0
 11
455.389757
 21
59.788780
 31
0.0
 11
455.474980
 21
60.269838
 31
0.0
  0
SPLINE
  5
194
100
AcDbEntity
  8
Layer_1
 62
7
100
AcDbSpline
 70
0
 71
3
 72
16
 73
12
 74
10
 40
0.000000
 40
0.000000
 40
0.000000
 40
0.000000
 40
17.449312
 40
34.648867
 40
52.098179
 40
69.547492
 40
86.747046
 40
104.196359
 40
121.645671
 40
138.845226
 40
156.294538
 40
156.294538
 40
156.294538
 40
156.294538
 10
402.249620
 20
60.269439
 30
0.0
 10
401.652754
 20
66.115607
 30
0.0
 10
400.467564
 20
77.724265
 30
0.0
 10
391.264532
 20
93.065800
 30
0.0
 10
377.789423
 20
104.471966
 30
0.0
 10
361.100116
 20
110.521472
 30
0.0
 10
343.399325
 20
110.521472
 30
0.0
 10
326.710018
 20
104.471966
 30
0.0
 10
313.234909
 20
93.065800
 30
0.0
 10
304.031877
 20
77.724265
 30
0.0
 10
302.846687
 20
66.115607
 30
0.0
 10
302.249821
 20
60.269439
 30
0.0
 11
402.249620
 21
60.269439
 31
0.0
 11
399.207304
 21
77.451488
 31
0.0
 11
390.608549
 21
92.347330
 31
0.0
 11
377.251156
 21
103.574909
 31
0.0
 11
360.849498
 21
109.530086
 31
0.0
 11
343.649943
 21
109.530086
 31
0.0
 11
327.248286
 21
103.574909
 31
0.0
 11
313.890893
 21
92.347330
 31
0.0
 11
305.292137
 21
77.451488
 31
0.0
 11
302.249821
 21
60.269439
 31
0.0
  0
LINE
  5
195
100
AcDbEntity
  8
Layer_1
 62
7
100
AcDbLine
 10
402.249620
 20
60.269439
 30
0.0
 11
402.249620
 21
60.269439
 31
0.0
  0
LINE
  5
196
100
AcDbEntity
  8
Layer_1
 62
7
100
AcDbLine
 10
362.718008
 20
85.762421
 30
0.0
 11
356.084917
 21
81.932320
 31
0.0
  0
SPLINE
  5
197
100
AcDbEntity
  8
Layer_1
 62
7
100
AcDbSpline
 70
0
 71
3
 72
16
 73
12
 74
10
 40
0.000000
 40
0.000000
 40
0.000000
 40
0.000000
 40
17.449312
 40
34.648867
 40
52.098179
 40
69.547492
 40
86.747046
 40
104.196359
 40
121.645671
 40
138.845226
 40
156.294538
 40
156.294538
 40
156.294538
 40
156.294538
 10
302.249821
 20
60.269439
 30
0.0
 10
302.846687
 20
54.423271
 30
0.0
 10
304.031877
 20
42.814614
 30
0.0
 10
313.234909
 20
27.473078
 30
0.0
 10
326.710018
 20
16.066913
 30
0.0
 10
343.399325
 20
10.017407
 30
0.0
 10
361.100116
 20
10.017407
 30
0.0
 10
377.789423
 20
16.066913
 30
0.0
 10
391.264532
 20
27.473078
 30
0.0
 10
400.467564
 20
42.814614
 30
0.0
 10
401.652754
 20
54.423271
 30
0.0
 10
402.249620
 20
60.269439
 30
0.0
 11
302.249821
 21
60.269439
 31
0.0
 11
305.292137
 21
43.087390
 31
0.0
 11
313.890893
 21
28.191549
 31
0.0
 11
327.248286
 21
16.963969
 31
0.0
 11
343.649943
 21
11.008792
 31
0.0
 11
360.849498
 21
11.008792
 31
0.0
 11
377.251156
 21
16.963969
 31
0.0
 11
390.608549
 21
28.191549
 31
0.0
 11
399.207304
 21
43.087390
 31
0.0
 11
402.249620
 21
60.269439
 31
0.0
  0
LINE
  5
198
100
AcDbEntity
  8
Layer_1
 62
7
100
AcDbLine
 10
331.571373
 20
67.779522
 30
0.0
 11
324.938176
 21
63.949950
 31
0.0
  0
SPLINE
  5
199
100
AcDbEntity
  8
Layer_1
 62
7
100
AcDbSpline
 70
0
 71
3
 72
10
 73
6
 74
4
 40
0.000000
 40
0.000000
 40
0.000000
 40
0.000000
 40
10.240029
 40
20.231928
 40
30.471956
 40
30.471956
 40
30.471956
 40
30.471956
 10
356.084795
 20
81.932548
 30
0.0
 10
352.627524
 20
82.058825
 30
0.0
 10
345.796757
 20
82.308320
 30
0.0
 10
336.390030
 20
76.877366
 30
0.0
 10
333.190694
 20
70.837011
 30
0.0
 10
331.571407
 20
67.779794
 30
0.0
 11
356.084795
 21
81.932548
 31
0.0
 11
345.862880
 21
81.323746
 31
0.0
 11
337.209633
 21
76.327811
 31
0.0
 11
331.571407
 21
67.779794
 31
0.0
  0
SPLINE
  5
19a
100
AcDbEntity
  8
Layer_1
 62
7
100
AcDbSpline
 70
0
 71
3
 72
13
 73
9
 74
7
 40
0.000000
 40
0.000000
 40
0.000000
 40
0.000000
 40
0.567279
 40
1.125126
 40
1.692405
 40
2.259684
 40
2.817532
 40
3.384810
 40
3.384810
 40
3.384810
 40
3.384810
 10
322.711255
 20
65.511124
 30
0.0
 10
322.698821
 20
65.320120
 30
0.0
 10
322.674159
 20
64.941288
 30
0.0
 10
322.906609
 20
64.405728
 30
0.0
 10
323.305774
 20
63.990300
 30
0.0
 10
323.832414
 20
63.756713
 30
0.0
 10
324.415140
 20
63.720813
 30
0.0
 10
324.762858
 20
63.873174
 30
0.0
 10
324.938175
 20
63.949992
 30
0.0
 11
322.711255
 21
65.511124
 31
0.0
 11
322.719506
 21
64.943905
 31
0.0
 11
322.932560
 21
64.428345
 31
0.0
 11
323.327138
 21
64.020775
 31
0.0
 11
323.844828
 21
63.788820
 31
0.0
 11
324.402137
 21
63.764334
 31
0.0
 11
324.938175
 21
63.949992
 31
0.0
  0
SPLINE
  5
19b
100
AcDbEntity
  8
Layer_1
 62
7
100
AcDbSpline
 70
0
 71
3
 72
13
 73
9
 74
7
 40
0.000000
 40
0.000000
 40
0.000000
 40
0.000000
 40
8.714436
 40
17.340785
 40
26.055221
 40
34.769657
 40
43.396007
 40
52.110443
 40
52.110443
 40
52.110443
 40
52.110443
 10
362.479497
 20
88.471355
 30
0.0
 10
359.654779
 20
89.233321
 30
0.0
 10
354.033895
 20
90.749552
 30
0.0
 10
345.215344
 20
89.841519
 30
0.0
 10
337.030598
 20
86.629945
 30
0.0
 10
330.156881
 20
81.147582
 30
0.0
 10
324.961176
 20
73.964546
 30
0.0
 10
323.463789
 20
68.338612
 30
0.0
 10
322.711293
 20
65.511356
 30
0.0
 11
362.479497
 21
88.471355
 31
0.0
 11
353.942657
 21
90.221714
 31
0.0
 11
345.349544
 21
89.465198
 31
0.0
 11
337.249841
 21
86.250201
 31
0.0
 11
330.415682
 21
80.843199
 31
0.0
 11
325.463915
 21
73.779637
 31
0.0
 11
322.711293
 21
65.511356
 31
0.0
  0
LINE
  5
19c
100
AcDbEntity
  8
Layer_1
 62
7
100
AcDbLine
 10
324.938176
 20
56.588727
 30
0.0
 11
331.571373
 21
52.759156
 31
0.0
  0
SPLINE
  5
19d
100
AcDbEntity
  8
Layer_1
 62
7
100
AcDbSpline
 70
0
 71
3
 72
13
 73
9
 74
7
 40
0.000000
 40
0.000000
 40
0.000000
 40
0.000000
 40
0.567278
 40
1.125124
 40
1.692401
 40
2.259679
 40
2.817525
 40
3.384803
 40
3.384803
 40
3.384803
 40
3.384803
 10
362.718000
 20
85.762349
 30
0.0
 10
362.872185
 20
85.875768
 30
0.0
 10
363.177992
 20
86.100720
 30
0.0
 10
363.438264
 20
86.623324
 30
0.0
 10
363.499294
 20
87.196199
 30
0.0
 10
363.339107
 20
87.749599
 30
0.0
 10
362.991527
 20
88.218688
 30
0.0
 10
362.651119
 20
88.386747
 30
0.0
 10
362.479489
 20
88.471482
 30
0.0
 11
362.718000
 21
85.762349
 31
0.0
 11
363.146802
 21
86.133741
 31
0.0
 11
363.404252
 21
86.628627
 31
0.0
 11
363.462219
 21
87.192935
 31
0.0
 11
363.306545
 21
87.738435
 31
0.0
 11
362.966587
 21
88.180725
 31
0.0
 11
362.479489
 21
88.471482
 31
0.0
  0
LINE
  5
19e
100
AcDbEntity
  8
Layer_1
 62
7
100
AcDbLine
 10
356.084917
 20
38.606357
 30
0.0
 11
362.718008
 21
34.776786
 31
0.0
  0
SPLINE
  5
19f
100
AcDbEntity
  8
Layer_1
 62
7
100
AcDbSpline
 70
0
 71
3
 72
10
 73
6
 74
4
 40
0.000000
 40
0.000000
 40
0.000000
 40
0.000000
 40
10.240029
 40
20.231928
 40
30.471956
 40
30.471956
 40
30.471956
 40
30.471956
 10
331.571407
 20
52.759084
 30
0.0
 10
333.190694
 20
49.701867
 30
0.0
 10
336.390030
 20
43.661513
 30
0.0
 10
345.796757
 20
38.230559
 30
0.0
 10
352.627524
 20
38.480053
 30
0.0
 10
356.084795
 20
38.606331
 30
0.0
 11
331.571407
 21
52.759084
 31
0.0
 11
337.209633
 21
44.211067
 31
0.0
 11
345.862880
 21
39.215133
 31
0.0
 11
356.084795
 21
38.606331
 31
0.0
  0
SPLINE
  5
1a0
100
AcDbEntity
  8
Layer_1
 62
7
100
AcDbSpline
 70
0
 71
3
 72
13
 73
9
 74
7
 40
0.000000
 40
0.000000
 40
0.000000
 40
0.000000
 40
0.567276
 40
1.125122
 40
1.692398
 40
2.259675
 40
2.817520
 40
3.384796
 40
3.384796
 40
3.384796
 40
3.384796
 10
362.479489
 20
32.067498
 30
0.0
 10
362.651119
 20
32.152232
 30
0.0
 10
362.991525
 20
32.320292
 30
0.0
 10
363.339105
 20
32.789380
 30
0.0
 10
363.499291
 20
33.342778
 30
0.0
 10
363.438262
 20
33.915653
 30
0.0
 10
363.177990
 20
34.438256
 30
0.0
 10
362.872184
 20
34.663208
 30
0.0
 10
362.718000
 20
34.776627
 30
0.0
 11
362.479489
 21
32.067498
 31
0.0
 11
362.966586
 21
32.358254
 31
0.0
 11
363.306543
 21
32.800544
 31
0.0
 11
363.462216
 21
33.346043
 31
0.0
 11
363.404250
 21
33.910350
 31
0.0
 11
363.146801
 21
34.405235
 31
0.0
 11
362.718000
 21
34.776627
 31
0.0
  0
SPLINE
  5
1a1
100
AcDbEntity
  8
Layer_1
 62
7
100
AcDbSpline
 70
0
 71
3
 72
13
 73
9
 74
7
 40
0.000000
 40
0.000000
 40
0.000000
 40
0.000000
 40
8.714436
 40
17.340785
 40
26.055221
 40
34.769657
 40
43.396007
 40
52.110443
 40
52.110443
 40
52.110443
 40
52.110443
 10
322.711293
 20
55.027522
 30
0.0
 10
323.463789
 20
52.200266
 30
0.0
 10
324.961176
 20
46.574333
 30
0.0
 10
330.156881
 20
39.391297
 30
0.0
 10
337.030598
 20
33.908934
 30
0.0
 10
345.215344
 20
30.697359
 30
0.0
 10
354.033895
 20
29.789326
 30
0.0
 10
359.654779
 20
31.305557
 30
0.0
 10
362.479497
 20
32.067524
 30
0.0
 11
322.711293
 21
55.027522
 31
0.0
 11
325.463915
 21
46.759241
 31
0.0
 11
330.415682
 21
39.695680
 31
0.0
 11
337.249841
 21
34.288678
 31
0.0
 11
345.349544
 21
31.073680
 31
0.0
 11
353.942657
 21
30.317165
 31
0.0
 11
362.479497
 21
32.067524
 31
0.0
  0
SPLINE
  5
1a2
100
AcDbEntity
  8
Layer_1
 62
7
100
AcDbSpline
 70
0
 71
3
 72
13
 73
9
 74
7
 40
0.000000
 40
0.000000
 40
0.000000
 40
0.000000
 40
0.567279
 40
1.125126
 40
1.692405
 40
2.259684
 40
2.817532
 40
3.384810
 40
3.384810
 40
3.384810
 40
3.384810
 10
324.938175
 20
56.588883
 30
0.0
 10
324.762858
 20
56.665702
 30
0.0
 10
324.415140
 20
56.818063
 30
0.0
 10
323.832414
 20
56.782163
 30
0.0
 10
323.305774
 20
56.548576
 30
0.0
 10
322.906609
 20
56.133148
 30
0.0
 10
322.674159
 20
55.597588
 30
0.0
 10
322.698821
 20
55.218756
 30
0.0
 10
322.711255
 20
55.027752
 30
0.0
 11
324.938175
 21
56.588883
 31
0.0
 11
324.402137
 21
56.774542
 31
0.0
 11
323.844828
 21
56.750055
 31
0.0
 11
323.327138
 21
56.518101
 31
0.0
 11
322.932560
 21
56.110531
 31
0.0
 11
322.719506
 21
55.594971
 31
0.0
 11
322.711255
 21
55.027752
 31
0.0
  0
SPLINE
  5
1a3
100
AcDbEntity
  8
Layer_1
 62
7
100
AcDbSpline
 70
0
 71
3
 72
19
 73
15
 74
13
 40
0.000000
 40
0.000000
 40
0.000000
 40
0.000000
 40
0.567277
 40
1.125123
 40
1.692400
 40
2.259677
 40
2.817522
 40
3.384799
 40
12.099236
 40
20.725619
 40
29.440090
 40
38.154561
 40
46.780944
 40
55.495415
 40
55.495415
 40
55.495415
 40
55.495415
 10
369.092987
 20
38.457283
 30
0.0
 10
369.114117
 20
38.267047
 30
0.0
 10
369.156026
 20
37.889737
 30
0.0
 10
369.478493
 20
37.403015
 30
0.0
 10
369.944040
 20
37.063796
 30
0.0
 10
370.503624
 20
36.925551
 30
0.0
 10
371.082796
 20
36.993017
 30
0.0
 10
373.863013
 20
38.814362
 30
0.0
 10
377.593318
 20
43.670812
 30
0.0
 10
381.420520
 20
51.525082
 30
0.0
 10
382.676470
 20
60.282983
 30
0.0
 10
381.380184
 20
68.959894
 30
0.0
 10
377.753433
 20
77.055509
 30
0.0
 10
373.630397
 20
81.164641
 30
0.0
 10
371.558407
 20
83.229644
 30
0.0
 11
369.092987
 21
38.457283
 31
0.0
 11
369.200221
 21
37.900234
 31
0.0
 11
369.500079
 21
37.429833
 31
0.0
 11
369.959800
 21
37.097478
 31
0.0
 11
370.510053
 21
36.959546
 31
0.0
 11
371.063066
 21
37.032812
 31
0.0
 11
371.558418
 21
37.309272
 31
0.0
 11
377.342702
 21
43.827205
 31
0.0
 11
380.984098
 21
51.647354
 31
0.0
 11
382.249659
 21
60.269439
 31
0.0
 11
380.984098
 21
68.891525
 31
0.0
 11
377.342702
 21
76.711674
 31
0.0
 11
371.558407
 21
83.229644
 31
0.0
  0
LINE
  5
1a4
100
AcDbEntity
  8
Layer_1
 62
7
100
AcDbLine
 10
369.092866
 20
74.422402
 30
0.0
 11
369.092866
 21
82.081280
 31
0.0
  0
SPLINE
  5
1a5
100
AcDbEntity
  8
Layer_1
 62
7
100
AcDbSpline
 70
0
 71
3
 72
13
 73
9
 74
7
 40
0.000000
 40
0.000000
 40
0.000000
 40
0.000000
 40
0.567277
 40
1.125123
 40
1.692400
 40
2.259677
 40
2.817522
 40
3.384799
 40
3.384799
 40
3.384799
 40
3.384799
 10
371.558418
 20
83.229406
 30
0.0
 10
371.399220
 20
83.335674
 30
0.0
 10
371.083473
 20
83.546445
 30
0.0
 10
370.503440
 20
83.612914
 30
0.0
 10
369.944089
 20
83.474939
 30
0.0
 10
369.478480
 20
83.135648
 30
0.0
 10
369.156029
 20
82.648944
 30
0.0
 10
369.114118
 20
82.271632
 30
0.0
 10
369.092987
 20
82.081394
 30
0.0
 11
371.558418
 21
83.229406
 31
0.0
 11
371.063066
 21
83.505865
 31
0.0
 11
370.510053
 21
83.579132
 31
0.0
 11
369.959800
 21
83.441199
 31
0.0
 11
369.500079
 21
83.108844
 31
0.0
 11
369.200221
 21
82.638444
 31
0.0
 11
369.092987
 21
82.081394
 31
0.0
  0
LINE
  5
1a6
100
AcDbEntity
  8
Layer_1
 62
7
100
AcDbLine
 10
369.092866
 20
38.457397
 30
0.0
 11
369.092866
 21
46.116540
 31
0.0
  0
SPLINE
  5
1a7
100
AcDbEntity
  8
Layer_1
 62
7
100
AcDbSpline
 70
0
 71
3
 72
10
 73
6
 74
4
 40
0.000000
 40
0.000000
 40
0.000000
 40
0.000000
 40
10.240053
 40
20.231975
 40
30.472029
 40
30.472029
 40
30.472029
 40
30.472029
 10
369.092985
 20
46.116614
 30
0.0
 10
370.930983
 20
49.047568
 30
0.0
 10
374.562442
 20
54.838454
 30
0.0
 10
374.562442
 20
65.700425
 30
0.0
 10
370.930983
 20
71.491311
 30
0.0
 10
369.092985
 20
74.422264
 30
0.0
 11
369.092985
 21
46.116614
 31
0.0
 11
373.676709
 21
55.273478
 31
0.0
 11
373.676709
 21
65.265400
 31
0.0
 11
369.092985
 21
74.422264
 31
0.0
  0
LINE
  5
1a8
100
AcDbEntity
  8
Layer_1
 62
7
100
AcDbLine
 10
353.649718
 20
60.269439
 30
0.0
 11
353.649718
 21
60.269439
 31
0.0
  0
LINE
  5
1a9
100
AcDbEntity
  8
Layer_1
 62
7
100
AcDbLine
 10
42.031652
 20
50.423077
 30
0.0
 11
57.231669
 21
50.423077
 31
0.0
  0
LINE
  5
1aa
100
AcDbEntity
  8
Layer_1
 62
7
100
AcDbLine
 10
57.231669
 20
50.423077
 30
0.0
 11
57.231669
 21
53.423076
 31
0.0
  0
LINE
  5
1ab
100
AcDbEntity
  8
Layer_1
 62
7
100
AcDbLine
 10
57.231669
 20
53.423076
 30
0.0
 11
42.031652
 21
53.423076
 31
0.0
  0
LINE
  5
1ac
100
AcDbEntity
  8
Layer_1
 62
7
100
AcDbLine
 10
42.031652
 20
53.423076
 30
0.0
 11
45.031756
 21
56.423074
 31
0.0
  0
LINE
  5
1ad
100
AcDbEntity
  8
Layer_1
 62
7
100
AcDbLine
 10
45.031756
 20
56.423074
 30
0.0
 11
84.031526
 21
56.423074
 31
0.0
  0
LINE
  5
1ae
100
AcDbEntity
  8
Layer_1
 62
7
100
AcDbLine
 10
84.031526
 20
56.423074
 30
0.0
 11
87.031630
 21
53.423076
 31
0.0
  0
LINE
  5
1af
100
AcDbEntity
  8
Layer_1
 62
7
100
AcDbLine
 10
87.031630
 20
53.423076
 30
0.0
 11
71.831613
 21
53.423076
 31
0.0
  0
LINE
  5
1b0
100
AcDbEntity
  8
Layer_1
 62
7
100
AcDbLine
 10
71.831613
 20
53.423076
 30
0.0
 11
71.831613
 21
50.423077
 31
0.0
  0
LINE
  5
1b1
100
AcDbEntity
  8
Layer_1
 62
7
100
AcDbLine
 10
71.831613
 20
50.423077
 30
0.0
 11
87.031630
 21
50.423077
 31
0.0
  0
LINE
  5
1b2
100
AcDbEntity
  8
Layer_1
 62
7
100
AcDbLine
 10
87.031630
 20
50.423077
 30
0.0
 11
67.982991
 21
17.901670
 31
0.0
  0
SPLINE
  5
1b3
100
AcDbEntity
  8
Layer_1
 62
7
100
AcDbSpline
 70
0
 71
3
 72
25
 73
21
 74
19
 40
0.000000
 40
0.000000
 40
0.000000
 40
0.000000
 40
0.488549
 40
0.970106
 40
1.458655
 40
1.947204
 40
2.428761
 40
2.917310
 40
3.405859
 40
3.887416
 40
4.375964
 40
4.864513
 40
5.346070
 40
5.834619
 40
6.323168
 40
6.804725
 40
7.293274
 40
7.781823
 40
8.263380
 40
8.751929
 40
8.751929
 40
8.751929
 40
8.751929
 10
353.649718
 20
60.269439
 30
0.0
 10
353.632991
 20
60.433119
 30
0.0
 10
353.599776
 20
60.758137
 30
0.0
 10
353.342083
 20
61.187654
 30
0.0
 10
352.964777
 20
61.506988
 30
0.0
 10
352.497555
 20
61.676352
 30
0.0
 10
352.001779
 20
61.676352
 30
0.0
 10
351.535211
 20
61.506988
 30
0.0
 10
351.155292
 20
61.187654
 30
0.0
 10
350.907307
 20
60.758137
 30
0.0
 10
350.820723
 20
60.269439
 30
0.0
 10
350.907307
 20
59.780741
 30
0.0
 10
351.155292
 20
59.351225
 30
0.0
 10
351.535211
 20
59.031891
 30
0.0
 10
352.001779
 20
58.862527
 30
0.0
 10
352.497555
 20
58.862527
 30
0.0
 10
352.964777
 20
59.031891
 30
0.0
 10
353.342083
 20
59.351225
 30
0.0
 10
353.599776
 20
59.780741
 30
0.0
 10
353.632991
 20
60.105759
 30
0.0
 10
353.649718
 20
60.269439
 30
0.0
 11
353.649718
 21
60.269439
 31
0.0
 11
353.564495
 21
60.750498
 31
0.0
 11
353.323716
 21
61.167538
 31
0.0
 11
352.949719
 21
61.481873
 31
0.0
 11
352.490499
 21
61.648596
 31
0.0
 11
352.008942
 21
61.648596
 31
0.0
 11
351.549722
 21
61.481873
 31
0.0
 11
351.175724
 21
61.167538
 31
0.0
 11
350.934946
 21
60.750498
 31
0.0
 11
350.849723
 21
60.269439
 31
0.0
 11
350.934946
 21
59.788381
 31
0.0
 11
351.175724
 21
59.371340
 31
0.0
 11
351.549722
 21
59.057006
 31
0.0
 11
352.008942
 21
58.890282
 31
0.0
 11
352.490499
 21
58.890282
 31
0.0
 11
352.949719
 21
59.057006
 31
0.0
 11
353.323716
 21
59.371340
 31
0.0
 11
353.564495
 21
59.788381
 31
0.0
 11
353.649718
 21
60.269439
 31
0.0
  0
LINE
  5
1b4
100
AcDbEntity
  8
Layer_1
 62
7
100
AcDbLine
 10
61.080026
 20
17.901670
 30
0.0
 11
42.031652
 21
50.423077
 31
0.0
  0
SPLINE
  5
1b5
100
AcDbEntity
  8
Layer_1
 62
7
100
AcDbSpline
 70
0
 71
3
 72
13
 73
9
 74
7
 40
0.000000
 40
0.000000
 40
0.000000
 40
0.000000
 40
1.387530
 40
2.755424
 40
4.142954
 40
5.530483
 40
6.898377
 40
8.285907
 40
8.285907
 40
8.285907
 40
8.285907
 10
61.080084
 20
17.901538
 30
0.0
 10
61.355786
 20
17.524279
 30
0.0
 10
61.903287
 20
16.775099
 30
0.0
 10
63.148346
 20
16.088865
 30
0.0
 10
64.531608
 20
15.839716
 30
0.0
 10
65.914870
 20
16.088865
 30
0.0
 10
67.159929
 20
16.775099
 30
0.0
 10
67.707430
 20
17.524279
 30
0.0
 10
67.983132
 20
17.901538
 30
0.0
 11
61.080084
 21
17.901538
 31
0.0
 11
61.978335
 21
16.844001
 31
0.0
 11
63.165098
 21
16.163760
 31
0.0
 11
64.531608
 21
15.923159
 31
0.0
 11
65.898118
 21
16.163760
 31
0.0
 11
67.084881
 21
16.844001
 31
0.0
 11
67.983132
 21
17.901538
 31
0.0
  0
LINE
  5
1b6
100
AcDbEntity
  8
Layer_1
 62
7
100
AcDbLine
 10
64.531609
 20
18.623153
 30
0.0
 11
64.531609
 21
18.623153
 31
0.0
  0
LINE
  5
1b7
100
AcDbEntity
  8
Layer_1
 62
7
100
AcDbLine
 10
42.032032
 20
67.458441
 30
0.0
 11
57.232050
 21
67.458441
 31
0.0
  0
LINE
  5
1b8
100
AcDbEntity
  8
Layer_1
 62
7
100
AcDbLine
 10
57.232050
 20
67.458441
 30
0.0
 11
57.232050
 21
64.458443
 31
0.0
  0
LINE
  5
1b9
100
AcDbEntity
  8
Layer_1
 62
7
100
AcDbLine
 10
57.232050
 20
64.458443
 30
0.0
 11
42.032032
 21
64.458443
 31
0.0
  0
LINE
  5
1ba
100
AcDbEntity
  8
Layer_1
 62
7
100
AcDbLine
 10
42.032032
 20
64.458443
 30
0.0
 11
45.032137
 21
61.458444
 31
0.0
  0
LINE
  5
1bb
100
AcDbEntity
  8
Layer_1
 62
7
100
AcDbLine
 10
45.032137
 20
61.458444
 30
0.0
 11
84.031906
 21
61.458444
 31
0.0
  0
LINE
  5
1bc
100
AcDbEntity
  8
Layer_1
 62
7
100
AcDbLine
 10
84.031906
 20
61.458444
 30
0.0
 11
87.032011
 21
64.458443
 31
0.0
  0
LINE
  5
1bd
100
AcDbEntity
  8
Layer_1
 62
7
100
AcDbLine
 10
87.032011
 20
64.458443
 30
0.0
 11
71.831993
 21
64.458443
 31
0.0
  0
LINE
  5
1be
100
AcDbEntity
  8
Layer_1
 62
7
100
AcDbLine
 10
71.831993
 20
64.458443
 30
0.0
 11
71.831993
 21
67.458441
 31
0.0
  0
LINE
  5
1bf
100
AcDbEntity
  8
Layer_1
 62
7
100
AcDbLine
 10
71.831993
 20
67.458441
 30
0.0
 11
87.032011
 21
67.458441
 31
0.0
  0
LINE
  5
1c0
100
AcDbEntity
  8
Layer_1
 62
7
100
AcDbLine
 10
87.032011
 20
67.458441
 30
0.0
 11
67.983372
 21
99.979848
 31
0.0
  0
SPLINE
  5
1c1
100
AcDbEntity
  8
Layer_1
 62
7
100
AcDbSpline
 70
0
 71
3
 72
25
 73
21
 74
19
 40
0.000000
 40
0.000000
 40
0.000000
 40
0.000000
 40
0.453653
 40
0.900813
 40
1.354466
 40
1.808119
 40
2.255279
 40
2.708932
 40
3.162585
 40
3.609745
 40
4.063398
 40
4.517051
 40
4.964211
 40
5.417864
 40
5.871517
 40
6.318677
 40
6.772330
 40
7.225983
 40
7.673143
 40
8.126796
 40
8.126796
 40
8.126796
 40
8.126796
 10
64.531609
 20
18.623153
 30
0.0
 10
64.683598
 20
18.638686
 30
0.0
 10
64.985401
 20
18.669528
 30
0.0
 10
65.384237
 20
18.908814
 30
0.0
 10
65.680762
 20
19.259170
 30
0.0
 10
65.838029
 20
19.693020
 30
0.0
 10
65.838029
 20
20.153383
 30
0.0
 10
65.680762
 20
20.586625
 30
0.0
 10
65.384237
 20
20.939407
 30
0.0
 10
64.985401
 20
21.169679
 30
0.0
 10
64.531609
 20
21.250079
 30
0.0
 10
64.077818
 20
21.169679
 30
0.0
 10
63.678981
 20
20.939407
 30
0.0
 10
63.382457
 20
20.586625
 30
0.0
 10
63.225190
 20
20.153383
 30
0.0
 10
63.225190
 20
19.693020
 30
0.0
 10
63.382457
 20
19.259170
 30
0.0
 10
63.678981
 20
18.908814
 30
0.0
 10
64.077818
 20
18.669528
 30
0.0
 10
64.379620
 20
18.638686
 30
0.0
 10
64.531609
 20
18.623153
 30
0.0
 11
64.531609
 21
18.623153
 31
0.0
 11
64.978306
 21
18.702289
 31
0.0
 11
65.365559
 21
18.925869
 31
0.0
 11
65.657441
 21
19.273153
 31
0.0
 11
65.812256
 21
19.699572
 31
0.0
 11
65.812256
 21
20.146732
 31
0.0
 11
65.657441
 21
20.573151
 31
0.0
 11
65.365559
 21
20.920434
 31
0.0
 11
64.978306
 21
21.144014
 31
0.0
 11
64.531609
 21
21.223150
 31
0.0
 11
64.084912
 21
21.144014
 31
0.0
 11
63.697660
 21
20.920434
 31
0.0
 11
63.405777
 21
20.573151
 31
0.0
 11
63.250963
 21
20.146732
 31
0.0
 11
63.250963
 21
19.699572
 31
0.0
 11
63.405777
 21
19.273153
 31
0.0
 11
63.697660
 21
18.925869
 31
0.0
 11
64.084912
 21
18.702289
 31
0.0
 11
64.531609
 21
18.623153
 31
0.0
  0
LINE
  5
1c2
100
AcDbEntity
  8
Layer_1
 62
7
100
AcDbLine
 10
61.080407
 20
99.979848
 30
0.0
 11
42.032032
 21
67.458441
 31
0.0
  0
SPLINE
  5
1c3
100
AcDbEntity
  8
Layer_1
 62
7
100
AcDbSpline
 70
0
 71
3
 72
13
 73
9
 74
7
 40
0.000000
 40
0.000000
 40
0.000000
 40
0.000000
 40
1.387530
 40
2.755424
 40
4.142954
 40
5.530483
 40
6.898377
 40
8.285907
 40
8.285907
 40
8.285907
 40
8.285907
 10
61.080465
 20
99.979981
 30
0.0
 10
61.356166
 20
100.357240
 30
0.0
 10
61.903668
 20
101.106419
 30
0.0
 10
63.148726
 20
101.792654
 30
0.0
 10
64.531989
 20
102.041802
 30
0.0
 10
65.915251
 20
101.792654
 30
0.0
 10
67.160309
 20
101.106419
 30
0.0
 10
67.707811
 20
100.357240
 30
0.0
 10
67.983512
 20
99.979981
 30
0.0
 11
61.080465
 21
99.979981
 31
0.0
 11
61.978715
 21
101.037518
 31
0.0
 11
63.165478
 21
101.717758
 31
0.0
 11
64.531989
 21
101.958359
 31
0.0
 11
65.898499
 21
101.717758
 31
0.0
 11
67.085262
 21
101.037518
 31
0.0
 11
67.983512
 21
99.979981
 31
0.0
  0
LINE
  5
1c4
100
AcDbEntity
  8
Layer_1
 62
7
100
AcDbLine
 10
64.531990
 20
99.258365
 30
0.0
 11
64.531990
 21
99.258365
 31
0.0
  0
LINE
  5
1c5
100
AcDbEntity
  8
Layer_1
 62
7
100
AcDbLine
 10
56.064634
 20
10.423757
 30
0.0
 11
14.065144
 21
10.268132
 31
0.0
  0
SPLINE
  5
1c6
100
AcDbEntity
  8
Layer_1
 62
7
100
AcDbSpline
 70
0
 71
3
 72
25
 73
21
 74
19
 40
0.000000
 40
0.000000
 40
0.000000
 40
0.000000
 40
0.453653
 40
0.900813
 40
1.354466
 40
1.808119
 40
2.255279
 40
2.708932
 40
3.162585
 40
3.609745
 40
4.063398
 40
4.517051
 40
4.964211
 40
5.417864
 40
5.871517
 40
6.318677
 40
6.772330
 40
7.225983
 40
7.673143
 40
8.126796
 40
8.126796
 40
8.126796
 40
8.126796
 10
64.531990
 20
99.258365
 30
0.0
 10
64.683979
 20
99.242833
 30
0.0
 10
64.985781
 20
99.211991
 30
0.0
 10
65.384618
 20
98.972704
 30
0.0
 10
65.681142
 20
98.622348
 30
0.0
 10
65.838409
 20
98.188499
 30
0.0
 10
65.838409
 20
97.728135
 30
0.0
 10
65.681142
 20
97.294893
 30
0.0
 10
65.384618
 20
96.942111
 30
0.0
 10
64.985781
 20
96.711839
 30
0.0
 10
64.531990
 20
96.631440
 30
0.0
 10
64.078198
 20
96.711839
 30
0.0
 10
63.679362
 20
96.942111
 30
0.0
 10
63.382837
 20
97.294893
 30
0.0
 10
63.225570
 20
97.728135
 30
0.0
 10
63.225570
 20
98.188499
 30
0.0
 10
63.382837
 20
98.622348
 30
0.0
 10
63.679362
 20
98.972704
 30
0.0
 10
64.078198
 20
99.211991
 30
0.0
 10
64.380001
 20
99.242833
 30
0.0
 10
64.531990
 20
99.258365
 30
0.0
 11
64.531990
 21
99.258365
 31
0.0
 11
64.978687
 21
99.179229
 31
0.0
 11
65.365939
 21
98.955649
 31
0.0
 11
65.657822
 21
98.608366
 31
0.0
 11
65.812637
 21
98.181947
 31
0.0
 11
65.812637
 21
97.734787
 31
0.0
 11
65.657822
 21
97.308368
 31
0.0
 11
65.365939
 21
96.961084
 31
0.0
 11
64.978687
 21
96.737504
 31
0.0
 11
64.531990
 21
96.658368
 31
0.0
 11
64.085293
 21
96.737504
 31
0.0
 11
63.698040
 21
96.961084
 31
0.0
 11
63.406158
 21
97.308368
 31
0.0
 11
63.251343
 21
97.734787
 31
0.0
 11
63.251343
 21
98.181947
 31
0.0
 11
63.406158
 21
98.608366
 31
0.0
 11
63.698040
 21
98.955649
 31
0.0
 11
64.085293
 21
99.179229
 31
0.0
 11
64.531990
 21
99.258365
 31
0.0
  0
LINE
  5
1c7
100
AcDbEntity
  8
Layer_1
 62
7
100
AcDbLine
 10
10.060249
 20
14.550379
 30
0.0
 11
12.892650
 21
54.451512
 31
0.0
  0
SPLINE
  5
1c8
100
AcDbEntity
  8
Layer_1
 62
7
100
AcDbSpline
 70
0
 71
3
 72
13
 73
9
 74
7
 40
0.000000
 40
0.000000
 40
0.000000
 40
0.000000
 40
1.096793
 40
2.183662
 40
3.280456
 40
4.377249
 40
5.464118
 40
6.560911
 40
6.560911
 40
6.560911
 40
6.560911
 10
10.060277
 20
14.550749
 30
0.0
 10
10.063522
 20
14.182826
 30
0.0
 10
10.069983
 20
13.450311
 30
0.0
 10
10.456720
 20
12.405902
 30
0.0
 10
11.090405
 20
11.500067
 30
0.0
 10
11.951677
 20
10.807026
 30
0.0
 10
12.967782
 20
10.351078
 30
0.0
 10
13.698213
 20
10.295479
 30
0.0
 10
14.065088
 20
10.267553
 30
0.0
 11
10.060277
 21
14.550749
 31
0.0
 11
10.133327
 21
13.456391
 31
0.0
 11
10.496273
 21
12.431913
 31
0.0
 11
11.128451
 21
11.535640
 31
0.0
 11
11.980284
 21
10.844744
 31
0.0
 11
12.978098
 21
10.413872
 31
0.0
 11
14.065088
 21
10.267553
 31
0.0
  0
LINE
  5
1c9
100
AcDbEntity
  8
Layer_1
 62
7
100
AcDbLine
 10
19.731452
 20
56.974625
 30
0.0
 11
58.898932
 21
17.231736
 31
0.0
  0
SPLINE
  5
1ca
100
AcDbEntity
  8
Layer_1
 62
7
100
AcDbSpline
 70
0
 71
3
 72
13
 73
9
 74
7
 40
0.000000
 40
0.000000
 40
0.000000
 40
0.000000
 40
1.527787
 40
3.029703
 40
4.557490
 40
6.085277
 40
7.587193
 40
9.114980
 40
9.114980
 40
9.114980
 40
9.114980
 10
19.731493
 20
56.974674
 30
0.0
 10
19.330867
 20
57.299276
 30
0.0
 10
18.536398
 20
57.942984
 30
0.0
 10
16.995089
 20
58.258358
 30
0.0
 10
15.462265
 20
58.014481
 30
0.0
 10
14.138608
 20
57.203952
 30
0.0
 10
13.171861
 20
55.962784
 30
0.0
 10
12.986166
 20
54.957271
 30
0.0
 10
12.892525
 20
54.450221
 30
0.0
 11
19.731493
 21
56.974674
 31
0.0
 11
18.471089
 21
57.838106
 31
0.0
 11
17.005224
 21
58.165205
 31
0.0
 11
15.497324
 21
57.919503
 31
0.0
 11
14.191428
 21
57.126554
 31
0.0
 11
13.289649
 21
55.925493
 31
0.0
 11
12.892525
 21
54.450221
 31
0.0
  0
SPLINE
  5
1cb
100
AcDbEntity
  8
Layer_1
 62
7
100
AcDbSpline
 70
0
 71
3
 72
13
 73
9
 74
7
 40
0.000000
 40
0.000000
 40
0.000000
 40
0.000000
 40
1.562728
 40
3.097866
 40
4.660594
 40
6.223321
 40
7.758460
 40
9.321188
 40
9.321188
 40
9.321188
 40
9.321188
 10
56.064735
 20
10.423586
 30
0.0
 10
56.588780
 20
10.485766
 30
0.0
 10
57.627619
 20
10.609029
 30
0.0
 10
58.950254
 20
11.529404
 30
0.0
 10
59.840423
 20
12.845458
 30
0.0
 10
60.147176
 20
14.404401
 30
0.0
 10
59.868438
 20
15.991461
 30
0.0
 10
59.223986
 20
16.815513
 30
0.0
 10
58.898890
 20
17.231208
 30
0.0
 11
56.064735
 21
10.423586
 31
0.0
 11
57.596234
 21
10.734438
 31
0.0
 11
58.871835
 21
11.588541
 31
0.0
 11
59.742611
 21
12.886179
 31
0.0
 11
60.049958
 21
14.418385
 31
0.0
 11
59.757330
 21
15.925375
 31
0.0
 11
58.898890
 21
17.231208
 31
0.0
  0
LINE
  5
1cc
100
AcDbEntity
  8
Layer_1
 62
7
100
AcDbLine
 10
15.441012
 20
54.324069
 30
0.0
 11
15.441012
 21
54.324069
 31
0.0
  0
SPLINE
  5
1cd
100
AcDbEntity
  8
Layer_1
 62
7
100
AcDbSpline
 70
0
 71
3
 72
25
 73
21
 74
19
 40
0.000000
 40
0.000000
 40
0.000000
 40
0.000000
 40
0.505997
 40
1.004752
 40
1.510749
 40
2.016746
 40
2.515501
 40
3.021498
 40
3.527494
 40
4.026249
 40
4.532246
 40
5.038243
 40
5.536998
 40
6.042995
 40
6.548992
 40
7.047747
 40
7.553744
 40
8.059741
 40
8.558496
 40
9.064493
 40
9.064493
 40
9.064493
 40
9.064493
 10
15.441012
 20
54.324069
 30
0.0
 10
15.439871
 20
54.153664
 30
0.0
 10
15.437605
 20
53.815293
 30
0.0
 10
15.654742
 20
53.344144
 30
0.0
 10
16.007396
 20
52.973020
 30
0.0
 10
16.469456
 20
52.746220
 30
0.0
 10
16.979916
 20
52.690598
 30
0.0
 10
17.479305
 20
52.812633
 30
0.0
 10
17.906304
 20
53.098801
 30
0.0
 10
18.209823
 20
53.513217
 30
0.0
 10
18.353800
 20
54.006675
 30
0.0
 10
18.319480
 20
54.519562
 30
0.0
 10
18.112338
 20
54.989623
 30
0.0
 10
17.756994
 20
55.361039
 30
0.0
 10
17.295608
 20
55.587766
 30
0.0
 10
16.785148
 20
55.643388
 30
0.0
 10
16.285085
 20
55.521427
 30
0.0
 10
15.860776
 20
55.234966
 30
0.0
 10
15.547262
 20
54.821639
 30
0.0
 10
15.476599
 20
54.490721
 30
0.0
 10
15.441012
 20
54.324069
 30
0.0
 11
15.441012
 21
54.324069
 31
0.0
 11
15.474788
 21
53.819201
 31
0.0
 11
15.675910
 21
53.362794
 31
0.0
 11
16.025718
 21
52.997189
 31
0.0
 11
16.479835
 21
52.774006
 31
0.0
 11
16.975655
 21
52.719979
 31
0.0
 11
17.467182
 21
52.840119
 31
0.0
 11
17.887523
 21
53.121804
 31
0.0
 11
18.182222
 21
53.524184
 31
0.0
 11
18.323941
 21
54.009929
 31
0.0
 11
18.290165
 21
54.514797
 31
0.0
 11
18.089044
 21
54.971204
 31
0.0
 11
17.739235
 21
55.336809
 31
0.0
 11
17.285119
 21
55.559992
 31
0.0
 11
16.789298
 21
55.614019
 31
0.0
 11
16.297771
 21
55.493879
 31
0.0
 11
15.877431
 21
55.212194
 31
0.0
 11
15.582731
 21
54.809814
 31
0.0
 11
15.441012
 21
54.324069
 31
0.0
  0
LINE
  5
1ce
100
AcDbEntity
  8
Layer_1
 62
7
100
AcDbLine
 10
12.608764
 20
14.424596
 30
0.0
 11
12.608764
 21
14.424596
 31
0.0
  0
SPLINE
  5
1cf
100
AcDbEntity
  8
Layer_1
 62
7
100
AcDbSpline
 70
0
 71
3
 72
25
 73
21
 74
19
 40
0.000000
 40
0.000000
 40
0.000000
 40
0.000000
 40
0.505997
 40
1.004752
 40
1.510749
 40
2.016746
 40
2.515501
 40
3.021498
 40
3.527494
 40
4.026249
 40
4.532246
 40
5.038243
 40
5.536998
 40
6.042995
 40
6.548992
 40
7.047747
 40
7.553744
 40
8.059741
 40
8.558496
 40
9.064493
 40
9.064493
 40
9.064493
 40
9.064493
 10
12.608764
 20
14.424596
 30
0.0
 10
12.607623
 20
14.254191
 30
0.0
 10
12.605357
 20
13.915820
 30
0.0
 10
12.822494
 20
13.444671
 30
0.0
 10
13.175148
 20
13.073547
 30
0.0
 10
13.637208
 20
12.846748
 30
0.0
 10
14.147668
 20
12.791125
 30
0.0
 10
14.647057
 20
12.913160
 30
0.0
 10
15.074055
 20
13.199328
 30
0.0
 10
15.377574
 20
13.613744
 30
0.0
 10
15.521551
 20
14.107203
 30
0.0
 10
15.487231
 20
14.620090
 30
0.0
 10
15.280090
 20
15.090150
 30
0.0
 10
14.924745
 20
15.461566
 30
0.0
 10
14.463360
 20
15.688293
 30
0.0
 10
13.952899
 20
15.743915
 30
0.0
 10
13.452837
 20
15.621954
 30
0.0
 10
13.028528
 20
15.335493
 30
0.0
 10
12.715014
 20
14.922166
 30
0.0
 10
12.644350
 20
14.591248
 30
0.0
 10
12.608764
 20
14.424596
 30
0.0
 11
12.608764
 21
14.424596
 31
0.0
 11
12.642540
 21
13.919728
 31
0.0
 11
12.843661
 21
13.463321
 31
0.0
 11
13.193470
 21
13.097717
 31
0.0
 11
13.647586
 21
12.874533
 31
0.0
 11
14.143407
 21
12.820506
 31
0.0
 11
14.634934
 21
12.940647
 31
0.0
 11
15.055275
 21
13.222332
 31
0.0
 11
15.349974
 21
13.624711
 31
0.0
 11
15.491693
 21
14.110456
 31
0.0
 11
15.457917
 21
14.615324
 31
0.0
 11
15.256796
 21
15.071731
 31
0.0
 11
14.906987
 21
15.437336
 31
0.0
 11
14.452870
 21
15.660519
 31
0.0
 11
13.957050
 21
15.714546
 31
0.0
 11
13.465523
 21
15.594406
 31
0.0
 11
13.045182
 21
15.312721
 31
0.0
 11
12.750483
 21
14.910342
 31
0.0
 11
12.608764
 21
14.424596
 31
0.0
  0
LINE
  5
1d0
100
AcDbEntity
  8
Layer_1
 62
7
100
AcDbLine
 10
54.608408
 20
14.580603
 30
0.0
 11
54.608408
 21
14.580603
 31
0.0
  0
SPLINE
  5
1d1
100
AcDbEntity
  8
Layer_1
 62
7
100
AcDbSpline
 70
0
 71
3
 72
25
 73
21
 74
19
 40
0.000000
 40
0.000000
 40
0.000000
 40
0.000000
 40
0.505997
 40
1.004752
 40
1.510749
 40
2.016746
 40
2.515501
 40
3.021498
 40
3.527494
 40
4.026249
 40
4.532246
 40
5.038243
 40
5.536998
 40
6.042995
 40
6.548992
 40
7.047747
 40
7.553744
 40
8.059741
 40
8.558496
 40
9.064493
 40
9.064493
 40
9.064493
 40
9.064493
 10
54.608408
 20
14.580603
 30
0.0
 10
54.607267
 20
14.410198
 30
0.0
 10
54.605001
 20
14.071827
 30
0.0
 10
54.822138
 20
13.600678
 30
0.0
 10
55.174792
 20
13.229554
 30
0.0
 10
55.636852
 20
13.002755
 30
0.0
 10
56.147312
 20
12.947132
 30
0.0
 10
56.646701
 20
13.069167
 30
0.0
 10
57.073699
 20
13.355335
 30
0.0
 10
57.377218
 20
13.769751
 30
0.0
 10
57.521195
 20
14.263210
 30
0.0
 10
57.486875
 20
14.776097
 30
0.0
 10
57.279734
 20
15.246157
 30
0.0
 10
56.924390
 20
15.617573
 30
0.0
 10
56.463004
 20
15.844300
 30
0.0
 10
55.952543
 20
15.899922
 30
0.0
 10
55.452481
 20
15.777961
 30
0.0
 10
55.028172
 20
15.491500
 30
0.0
 10
54.714658
 20
15.078173
 30
0.0
 10
54.643995
 20
14.747255
 30
0.0
 10
54.608408
 20
14.580603
 30
0.0
 11
54.608408
 21
14.580603
 31
0.0
 11
54.642184
 21
14.075735
 31
0.0
 11
54.843305
 21
13.619328
 31
0.0
 11
55.193114
 21
13.253724
 31
0.0
 11
55.647230
 21
13.030540
 31
0.0
 11
56.143051
 21
12.976513
 31
0.0
 11
56.634578
 21
13.096654
 31
0.0
 11
57.054919
 21
13.378339
 31
0.0
 11
57.349618
 21
13.780718
 31
0.0
 11
57.491337
 21
14.266463
 31
0.0
 11
57.457561
 21
14.771331
 31
0.0
 11
57.256440
 21
15.227738
 31
0.0
 11
56.906631
 21
15.593343
 31
0.0
 11
56.452515
 21
15.816526
 31
0.0
 11
55.956694
 21
15.870553
 31
0.0
 11
55.465167
 21
15.750413
 31
0.0
 11
55.044826
 21
15.468728
 31
0.0
 11
54.750127
 21
15.066349
 31
0.0
 11
54.608408
 21
14.580603
 31
0.0
  0
LINE
  5
1d2
100
AcDbEntity
  8
Layer_1
 62
7
100
AcDbLine
 10
167.770798
 20
19.327809
 30
0.0
 11
207.170609
 21
19.287615
 31
0.0
  0
SPLINE
  5
1d3
100
AcDbEntity
  8
Layer_1
 62
7
100
AcDbSpline
 70
0
 71
3
 72
16
 73
12
 74
10
 40
0.000000
 40
0.000000
 40
0.000000
 40
0.000000
 40
1.396584
 40
2.773161
 40
4.169745
 40
5.566328
 40
6.942905
 40
8.339489
 40
9.736073
 40
11.112650
 40
12.509234
 40
12.509234
 40
12.509234
 40
12.509234
 10
167.779262
 20
27.327064
 30
0.0
 10
167.311270
 20
27.280083
 30
0.0
 10
166.381990
 20
27.186793
 30
0.0
 10
165.152981
 20
26.452030
 30
0.0
 10
164.238617
 20
25.374738
 30
0.0
 10
163.752856
 20
24.039532
 30
0.0
 10
163.751414
 20
22.622803
 30
0.0
 10
164.234457
 20
21.286611
 30
0.0
 10
165.146626
 20
20.207460
 30
0.0
 10
166.374138
 20
19.470198
 30
0.0
 10
167.303226
 20
19.375018
 30
0.0
 10
167.771121
 20
19.327084
 30
0.0
 11
167.779262
 21
27.327064
 31
0.0
 11
166.403667
 21
27.085845
 31
0.0
 11
165.210441
 21
26.399423
 31
0.0
 11
164.310393
 21
25.331546
 31
0.0
 11
163.832217
 21
24.019375
 31
0.0
 11
163.830816
 21
22.642799
 31
0.0
 11
164.306321
 21
21.329657
 31
0.0
 11
165.204193
 21
20.259950
 31
0.0
 11
166.396021
 21
19.571102
 31
0.0
 11
167.771121
 21
19.327084
 31
0.0
  0
LINE
  5
1d4
100
AcDbEntity
  8
Layer_1
 62
7
100
AcDbLine
 10
167.779418
 20
27.326699
 30
0.0
 11
207.179496
 21
27.286619
 31
0.0
  0
SPLINE
  5
1d5
100
AcDbEntity
  8
Layer_1
 62
7
100
AcDbSpline
 70
0
 71
3
 72
13
 73
9
 74
7
 40
0.000000
 40
0.000000
 40
0.000000
 40
0.000000
 40
2.090387
 40
4.118827
 40
6.209214
 40
8.299601
 40
10.328041
 40
12.418429
 40
12.418429
 40
12.418429
 40
12.418429
 10
207.171006
 20
19.286950
 30
0.0
 10
207.875803
 20
19.396695
 30
0.0
 10
209.264512
 20
19.612933
 30
0.0
 10
210.794222
 20
21.202378
 30
0.0
 10
211.362518
 20
23.282679
 30
0.0
 10
210.798457
 20
25.364132
 30
0.0
 10
209.271985
 20
26.956687
 30
0.0
 10
207.883720
 20
27.175751
 30
0.0
 10
207.179147
 20
27.286930
 30
0.0
 11
207.171006
 21
19.286950
 31
0.0
 11
209.189067
 21
19.832062
 31
0.0
 11
210.624284
 21
21.265492
 31
0.0
 11
211.171909
 21
23.282873
 31
0.0
 11
210.628391
 21
25.301364
 31
0.0
 11
209.196095
 21
26.737712
 31
0.0
 11
207.179147
 21
27.286930
 31
0.0
  0
LINE
  5
1d6
100
AcDbEntity
  8
Layer_1
 62
7
100
AcDbLine
 10
208.508086
 20
23.857532
 30
0.0
 11
208.508086
 21
23.857532
 31
0.0
  0
SPLINE
  5
1d7
100
AcDbEntity
  8
Layer_1
 62
7
100
AcDbSpline
 70
0
 71
3
 72
25
 73
21
 74
19
 40
0.000000
 40
0.000000
 40
0.000000
 40
0.000000
 40
0.505997
 40
1.004753
 40
1.510750
 40
2.016747
 40
2.515502
 40
3.021500
 40
3.527497
 40
4.026252
 40
4.532249
 40
5.038246
 40
5.537002
 40
6.042999
 40
6.548996
 40
7.047752
 40
7.553749
 40
8.059746
 40
8.558502
 40
9.064499
 40
9.064499
 40
9.064499
 40
9.064499
 10
208.508086
 20
23.857532
 30
0.0
 10
208.425447
 20
24.006562
 30
0.0
 10
208.261353
 20
24.302490
 30
0.0
 10
207.840931
 20
24.606424
 30
0.0
 10
207.351527
 20
24.756696
 30
0.0
 10
206.837633
 20
24.727528
 30
0.0
 10
206.365581
 20
24.525462
 30
0.0
 10
205.990367
 20
24.174041
 30
0.0
 10
205.758781
 20
23.715142
 30
0.0
 10
205.697722
 20
23.205106
 30
0.0
 10
205.814463
 20
22.704503
 30
0.0
 10
206.096085
 20
22.274480
 30
0.0
 10
206.507264
 20
21.966589
 30
0.0
 10
206.999155
 20
21.817381
 30
0.0
 10
207.512426
 20
21.846283
 30
0.0
 10
207.984478
 20
22.048349
 30
0.0
 10
208.360315
 20
22.400037
 30
0.0
 10
208.589413
 20
22.857871
 30
0.0
 10
208.659715
 20
23.371863
 30
0.0
 10
208.558871
 20
23.694866
 30
0.0
 10
208.508086
 20
23.857532
 30
0.0
 11
208.508086
 21
23.857532
 31
0.0
 11
208.230873
 21
24.280836
 31
0.0
 11
207.831641
 21
24.579785
 31
0.0
 11
207.347425
 21
24.726646
 31
0.0
 11
206.842227
 21
24.698225
 31
0.0
 11
206.383713
 21
24.501954
 31
0.0
 11
206.014420
 21
24.156042
 31
0.0
 11
205.786434
 21
23.704317
 31
0.0
 11
205.727153
 21
23.209097
 31
0.0
 11
205.842075
 21
22.716323
 31
0.0
 11
206.119288
 21
22.293019
 31
0.0
 11
206.518520
 21
21.994070
 31
0.0
 11
207.002736
 21
21.847208
 31
0.0
 11
207.507934
 21
21.875630
 31
0.0
 11
207.966448
 21
22.071900
 31
0.0
 11
208.335741
 21
22.417813
 31
0.0
 11
208.563727
 21
22.869538
 31
0.0
 11
208.623008
 21
23.364758
 31
0.0
 11
208.508086
 21
23.857532
 31
0.0
  0
LINE
  5
1d8
100
AcDbEntity
  8
Layer_1
 62
7
100
AcDbLine
 10
169.108199
 20
23.897665
 30
0.0
 11
169.108199
 21
23.897665
 31
0.0
  0
SPLINE
  5
1d9
100
AcDbEntity
  8
Layer_1
 62
7
100
AcDbSpline
 70
0
 71
3
 72
25
 73
21
 74
19
 40
0.000000
 40
0.000000
 40
0.000000
 40
0.000000
 40
0.505997
 40
1.004753
 40
1.510750
 40
2.016747
 40
2.515502
 40
3.021500
 40
3.527497
 40
4.026252
 40
4.532249
 40
5.038246
 40
5.537002
 40
6.042999
 40
6.548996
 40
7.047752
 40
7.553749
 40
8.059746
 40
8.558502
 40
9.064499
 40
9.064499
 40
9.064499
 40
9.064499
 10
169.108199
 20
23.897665
 30
0.0
 10
169.025560
 20
24.046695
 30
0.0
 10
168.861466
 20
24.342623
 30
0.0
 10
168.441044
 20
24.646557
 30
0.0
 10
167.951640
 20
24.796830
 30
0.0
 10
167.437746
 20
24.767661
 30
0.0
 10
166.965694
 20
24.565595
 30
0.0
 10
166.590480
 20
24.214174
 30
0.0
 10
166.358894
 20
23.755275
 30
0.0
 10
166.297836
 20
23.245239
 30
0.0
 10
166.414576
 20
22.744637
 30
0.0
 10
166.696198
 20
22.314613
 30
0.0
 10
167.107377
 20
22.006722
 30
0.0
 10
167.599268
 20
21.857514
 30
0.0
 10
168.112539
 20
21.886416
 30
0.0
 10
168.584591
 20
22.088482
 30
0.0
 10
168.960428
 20
22.440170
 30
0.0
 10
169.189526
 20
22.898004
 30
0.0
 10
169.259828
 20
23.411997
 30
0.0
 10
169.158984
 20
23.734999
 30
0.0
 10
169.108199
 20
23.897665
 30
0.0
 11
169.108199
 21
23.897665
 31
0.0
 11
168.830987
 21
24.320969
 31
0.0
 11
168.431754
 21
24.619918
 31
0.0
 11
167.947539
 21
24.766779
 31
0.0
 11
167.442340
 21
24.738358
 31
0.0
 11
166.983826
 21
24.542087
 31
0.0
 11
166.614533
 21
24.196175
 31
0.0
 11
166.386547
 21
23.744450
 31
0.0
 11
166.327266
 21
23.249230
 31
0.0
 11
166.442188
 21
22.756456
 31
0.0
 11
166.719401
 21
22.333152
 31
0.0
 11
167.118633
 21
22.034203
 31
0.0
 11
167.602849
 21
21.887342
 31
0.0
 11
168.108047
 21
21.915763
 31
0.0
 11
168.566561
 21
22.112034
 31
0.0
 11
168.935854
 21
22.457946
 31
0.0
 11
169.163840
 21
22.909671
 31
0.0
 11
169.223121
 21
23.404891
 31
0.0
 11
169.108199
 21
23.897665
 31
0.0
  0
LINE
  5
1da
100
AcDbEntity
  8
Layer_1
 62
7
100
AcDbLine
 10
167.774753
 20
28.385358
 30
0.0
 11
217.775305
 21
28.417449
 31
0.0
  0
SPLINE
  5
1db
100
AcDbEntity
  8
Layer_1
 62
7
100
AcDbSpline
 70
0
 71
3
 72
13
 73
9
 74
7
 40
0.000000
 40
0.000000
 40
0.000000
 40
0.000000
 40
2.091236
 40
4.120457
 40
6.211694
 40
8.302930
 40
10.332151
 40
12.423388
 40
12.423388
 40
12.423388
 40
12.423388
 10
167.770041
 20
36.385792
 30
0.0
 10
167.065062
 20
36.275242
 30
0.0
 10
165.676010
 20
36.057422
 30
0.0
 10
164.147730
 20
34.465230
 30
0.0
 10
163.582404
 20
32.383150
 30
0.0
 10
164.150360
 20
30.301786
 30
0.0
 10
165.680650
 20
28.711527
 30
0.0
 10
167.069975
 20
28.495461
 30
0.0
 10
167.775093
 20
28.385802
 30
0.0
 11
167.770041
 21
36.385792
 31
0.0
 11
165.751770
 21
35.838202
 31
0.0
 11
164.317908
 21
34.402313
 31
0.0
 11
163.773170
 21
32.383271
 31
0.0
 11
164.320458
 21
30.364919
 31
0.0
 11
165.756133
 21
28.930842
 31
0.0
 11
167.775093
 21
28.385802
 31
0.0
  0
LINE
  5
1dc
100
AcDbEntity
  8
Layer_1
 62
7
100
AcDbLine
 10
167.769407
 20
36.385227
 30
0.0
 11
217.770073
 21
36.417208
 31
0.0
  0
SPLINE
  5
1dd
100
AcDbEntity
  8
Layer_1
 62
7
100
AcDbSpline
 70
0
 71
3
 72
16
 73
12
 74
10
 40
0.000000
 40
0.000000
 40
0.000000
 40
0.000000
 40
1.396004
 40
2.772024
 40
4.168028
 40
5.564031
 40
6.940052
 40
8.336055
 40
9.732059
 40
11.108080
 40
12.504083
 40
12.504083
 40
12.504083
 40
12.504083
 10
217.775035
 20
28.417158
 30
0.0
 10
218.242721
 20
28.465176
 30
0.0
 10
219.171398
 20
28.560526
 30
0.0
 10
220.398341
 20
29.297524
 30
0.0
 10
221.310224
 20
30.376129
 30
0.0
 10
221.793381
 20
31.711630
 30
0.0
 10
221.792487
 20
33.127754
 30
0.0
 10
221.307643
 20
34.462643
 30
0.0
 10
220.394399
 20
35.540096
 30
0.0
 10
219.166526
 20
36.275543
 30
0.0
 10
218.237729
 20
36.369720
 30
0.0
 10
217.769982
 20
36.417147
 30
0.0
 11
217.775035
 21
28.417158
 31
0.0
 11
219.149516
 21
28.661343
 31
0.0
 11
220.340827
 21
29.349972
 31
0.0
 11
221.238427
 21
30.419150
 31
0.0
 11
221.714051
 21
31.731631
 31
0.0
 11
221.713182
 21
33.107652
 31
0.0
 11
221.235901
 21
34.419531
 31
0.0
 11
220.336951
 21
35.487574
 31
0.0
 11
219.144771
 21
36.174699
 31
0.0
 11
217.769982
 21
36.417147
 31
0.0
  0
LINE
  5
1de
100
AcDbEntity
  8
Layer_1
 62
7
100
AcDbLine
 10
218.815289
 20
31.409618
 30
0.0
 11
218.815289
 21
31.409618
 31
0.0
  0
SPLINE
  5
1df
100
AcDbEntity
  8
Layer_1
 62
7
100
AcDbSpline
 70
0
 71
3
 72
25
 73
21
 74
19
 40
0.000000
 40
0.000000
 40
0.000000
 40
0.000000
 40
0.505997
 40
1.004753
 40
1.510751
 40
2.016748
 40
2.515504
 40
3.021501
 40
3.527499
 40
4.026255
 40
4.532252
 40
5.038249
 40
5.537005
 40
6.043003
 40
6.549000
 40
7.047756
 40
7.553753
 40
8.059751
 40
8.558507
 40
9.064504
 40
9.064504
 40
9.064504
 40
9.064504
 10
218.815289
 20
31.409618
 30
0.0
 10
218.920626
 20
31.543571
 30
0.0
 10
219.129793
 20
31.809559
 30
0.0
 10
219.246965
 20
32.314932
 30
0.0
 10
219.195750
 20
32.824319
 30
0.0
 10
218.969634
 20
33.286714
 30
0.0
 10
218.600363
 20
33.643510
 30
0.0
 10
218.130961
 20
33.853138
 30
0.0
 10
217.618168
 20
33.888704
 30
0.0
 10
217.124350
 20
33.747253
 30
0.0
 10
216.708157
 20
33.445566
 30
0.0
 10
216.420946
 20
33.019255
 30
0.0
 10
216.296543
 20
32.520869
 30
0.0
 10
216.349703
 20
32.009601
 30
0.0
 10
216.575333
 20
31.547677
 30
0.0
 10
216.944603
 20
31.190881
 30
0.0
 10
217.414493
 20
30.980782
 30
0.0
 10
217.925339
 20
30.947097
 30
0.0
 10
218.426389
 20
31.081561
 30
0.0
 10
218.685034
 20
31.299742
 30
0.0
 10
218.815289
 20
31.409618
 30
0.0
 11
218.815289
 21
31.409618
 31
0.0
 11
219.098016
 21
31.829260
 31
0.0
 11
219.218808
 21
32.313167
 31
0.0
 11
219.166460
 21
32.816450
 31
0.0
 11
218.944404
 21
33.271119
 31
0.0
 11
218.585724
 21
33.617682
 31
0.0
 11
218.123694
 21
33.823988
 31
0.0
 11
217.618911
 21
33.859016
 31
0.0
 11
217.139438
 21
33.721672
 31
0.0
 11
216.729757
 21
33.424696
 31
0.0
 11
216.447030
 21
33.005054
 31
0.0
 11
216.326238
 21
32.521147
 31
0.0
 11
216.378586
 21
32.017864
 31
0.0
 11
216.600643
 21
31.563195
 31
0.0
 11
216.959323
 21
31.216632
 31
0.0
 11
217.421352
 21
31.010326
 31
0.0
 11
217.926136
 21
30.975298
 31
0.0
 11
218.405608
 21
31.112642
 31
0.0
 11
218.815289
 21
31.409618
 31
0.0
  0
LINE
  5
1e0
100
AcDbEntity
  8
Layer_1
 62
7
100
AcDbLine
 10
168.815349
 20
31.378261
 30
0.0
 11
168.815349
 21
31.378261
 31
0.0
  0
SPLINE
  5
1e1
100
AcDbEntity
  8
Layer_1
 62
7
100
AcDbSpline
 70
0
 71
3
 72
25
 73
21
 74
19
 40
0.000000
 40
0.000000
 40
0.000000
 40
0.000000
 40
0.505997
 40
1.004753
 40
1.510751
 40
2.016748
 40
2.515504
 40
3.021501
 40
3.527499
 40
4.026255
 40
4.532252
 40
5.038249
 40
5.537005
 40
6.043003
 40
6.549000
 40
7.047756
 40
7.553753
 40
8.059751
 40
8.558507
 40
9.064504
 40
9.064504
 40
9.064504
 40
9.064504
 10
168.815349
 20
31.378261
 30
0.0
 10
168.920686
 20
31.512214
 30
0.0
 10
169.129853
 20
31.778202
 30
0.0
 10
169.247025
 20
32.283575
 30
0.0
 10
169.195810
 20
32.792962
 30
0.0
 10
168.969693
 20
33.255357
 30
0.0
 10
168.600423
 20
33.612153
 30
0.0
 10
168.131020
 20
33.821781
 30
0.0
 10
167.618228
 20
33.857347
 30
0.0
 10
167.124410
 20
33.715896
 30
0.0
 10
166.708217
 20
33.414209
 30
0.0
 10
166.421005
 20
32.987898
 30
0.0
 10
166.296602
 20
32.489512
 30
0.0
 10
166.349763
 20
31.978244
 30
0.0
 10
166.575392
 20
31.516320
 30
0.0
 10
166.944663
 20
31.159524
 30
0.0
 10
167.414553
 20
30.949426
 30
0.0
 10
167.925399
 20
30.915740
 30
0.0
 10
168.426448
 20
31.050204
 30
0.0
 10
168.685094
 20
31.268385
 30
0.0
 10
168.815349
 20
31.378261
 30
0.0
 11
168.815349
 21
31.378261
 31
0.0
 11
169.098076
 21
31.797903
 31
0.0
 11
169.218868
 21
32.281810
 31
0.0
 11
169.166520
 21
32.785093
 31
0.0
 11
168.944463
 21
33.239762
 31
0.0
 11
168.585783
 21
33.586325
 31
0.0
 11
168.123754
 21
33.792631
 31
0.0
 11
167.618970
 21
33.827659
 31
0.0
 11
167.139498
 21
33.690315
 31
0.0
 11
166.729817
 21
33.393339
 31
0.0
 11
166.447090
 21
32.973697
 31
0.0
 11
166.326297
 21
32.489790
 31
0.0
 11
166.378646
 21
31.986507
 31
0.0
 11
166.600702
 21
31.531838
 31
0.0
 11
166.959382
 21
31.185275
 31
0.0
 11
167.421412
 21
30.978969
 31
0.0
 11
167.926195
 21
30.943941
 31
0.0
 11
168.405668
 21
31.081285
 31
0.0
 11
168.815349
 21
31.378261
 31
0.0
  0
LINE
  5
1e2
100
AcDbEntity
  8
Layer_1
 62
7
100
AcDbLine
 10
167.771559
 20
37.971977
 30
0.0
 11
229.770577
 21
37.958862
 31
0.0
  0
SPLINE
  5
1e3
100
AcDbEntity
  8
Layer_1
 62
7
100
AcDbSpline
 70
0
 71
3
 72
16
 73
12
 74
10
 40
0.000000
 40
0.000000
 40
0.000000
 40
0.000000
 40
1.395857
 40
2.771737
 40
4.167594
 40
5.563450
 40
6.939330
 40
8.335187
 40
9.731044
 40
11.106924
 40
12.502781
 40
12.502781
 40
12.502781
 40
12.502781
 10
167.773061
 20
45.972259
 30
0.0
 10
167.305392
 20
45.924573
 30
0.0
 10
166.376746
 20
45.829881
 30
0.0
 10
165.149390
 20
45.093878
 30
0.0
 10
164.236766
 20
44.016100
 30
0.0
 10
163.752570
 20
42.681140
 30
0.0
 10
163.752254
 20
41.265169
 30
0.0
 10
164.235855
 20
39.929993
 30
0.0
 10
165.147999
 20
38.851809
 30
0.0
 10
166.375027
 20
38.115258
 30
0.0
 10
167.303630
 20
38.020153
 30
0.0
 10
167.771278
 20
37.972258
 30
0.0
 11
167.773061
 21
45.972259
 31
0.0
 11
166.398552
 21
45.729070
 31
0.0
 11
165.206851
 21
45.041396
 31
0.0
 11
164.308513
 21
43.973031
 31
0.0
 11
163.831866
 21
42.661077
 31
0.0
 11
163.831559
 21
41.285197
 31
0.0
 11
164.307621
 21
39.973030
 31
0.0
 11
165.205484
 21
38.904265
 31
0.0
 11
166.396877
 21
38.216059
 31
0.0
 11
167.771278
 21
37.972258
 31
0.0
  0
LINE
  5
1e4
100
AcDbEntity
  8
Layer_1
 62
7
100
AcDbLine
 10
167.772426
 20
45.972859
 30
0.0
 11
229.773497
 21
45.958068
 31
0.0
  0
SPLINE
  5
1e5
100
AcDbEntity
  8
Layer_1
 62
7
100
AcDbSpline
 70
0
 71
3
 72
13
 73
9
 74
7
 40
0.000000
 40
0.000000
 40
0.000000
 40
0.000000
 40
2.091437
 40
4.120843
 40
6.212280
 40
8.303717
 40
10.333123
 40
12.424560
 40
12.424560
 40
12.424560
 40
12.424560
 10
229.771250
 20
37.958303
 30
0.0
 10
230.476408
 20
38.068167
 30
0.0
 10
231.865811
 20
38.284635
 30
0.0
 10
233.395731
 20
39.875575
 30
0.0
 10
233.962945
 20
41.957370
 30
0.0
 10
233.396659
 20
44.039418
 30
0.0
 10
231.867448
 20
45.631039
 30
0.0
 10
230.478142
 20
45.848127
 30
0.0
 10
229.773033
 20
45.958305
 30
0.0
 11
229.771250
 21
37.958303
 31
0.0
 11
231.790248
 21
38.503971
 31
0.0
 11
233.225575
 21
39.938657
 31
0.0
 11
233.772142
 21
41.957413
 31
0.0
 11
233.226475
 21
43.976411
 31
0.0
 11
231.791788
 21
45.411738
 31
0.0
 11
229.773033
 21
45.958305
 31
0.0
  0
LINE
  5
1e6
100
AcDbEntity
  8
Layer_1
 62
7
100
AcDbLine
 10
168.754787
 20
43.038539
 30
0.0
 11
168.754787
 21
43.038539
 31
0.0
  0
SPLINE
  5
1e7
100
AcDbEntity
  8
Layer_1
 62
7
100
AcDbSpline
 70
0
 71
3
 72
25
 73
21
 74
19
 40
0.000000
 40
0.000000
 40
0.000000
 40
0.000000
 40
0.505998
 40
1.004754
 40
1.510752
 40
2.016750
 40
2.515506
 40
3.021504
 40
3.527502
 40
4.026258
 40
4.532256
 40
5.038254
 40
5.537010
 40
6.043008
 40
6.549006
 40
7.047762
 40
7.553760
 40
8.059758
 40
8.558514
 40
9.064512
 40
9.064512
 40
9.064512
 40
9.064512
 10
168.754787
 20
43.038539
 30
0.0
 10
168.618383
 20
43.140682
 30
0.0
 10
168.347527
 20
43.343505
 30
0.0
 10
167.839526
 20
43.448704
 30
0.0
 10
167.331491
 20
43.385467
 30
0.0
 10
166.874567
 20
43.148488
 30
0.0
 10
166.526596
 20
42.770890
 30
0.0
 10
166.328117
 20
42.296665
 30
0.0
 10
166.304678
 20
41.783175
 30
0.0
 10
166.457757
 20
41.292836
 30
0.0
 10
166.769194
 20
40.883887
 30
0.0
 10
167.202173
 20
40.606829
 30
0.0
 10
167.703359
 20
40.494236
 30
0.0
 10
168.213229
 20
40.559463
 30
0.0
 10
168.669693
 20
40.795944
 30
0.0
 10
169.017664
 20
41.173542
 30
0.0
 10
169.216602
 20
41.648265
 30
0.0
 10
169.238208
 20
42.159765
 30
0.0
 10
169.091942
 20
42.657498
 30
0.0
 10
168.867711
 20
42.910916
 30
0.0
 10
168.754787
 20
43.038539
 30
0.0
 11
168.754787
 21
43.038539
 31
0.0
 11
168.328583
 21
43.311272
 31
0.0
 11
167.841955
 21
43.420597
 31
0.0
 11
167.340050
 21
43.356371
 31
0.0
 11
166.890754
 21
43.123634
 31
0.0
 11
166.552762
 21
42.756865
 31
0.0
 11
166.357430
 21
42.290089
 31
0.0
 11
166.334339
 21
41.784619
 31
0.0
 11
166.482975
 21
41.308525
 31
0.0
 11
166.789548
 21
40.905975
 31
0.0
 11
167.215753
 21
40.633242
 31
0.0
 11
167.702380
 21
40.523917
 31
0.0
 11
168.204285
 21
40.588142
 31
0.0
 11
168.653581
 21
40.820880
 31
0.0
 11
168.991573
 21
41.187649
 31
0.0
 11
169.186905
 21
41.654424
 31
0.0
 11
169.209996
 21
42.159895
 31
0.0
 11
169.061361
 21
42.635989
 31
0.0
 11
168.754787
 21
43.038539
 31
0.0
  0
LINE
  5
1e8
100
AcDbEntity
  8
Layer_1
 62
7
100
AcDbLine
 10
230.754760
 20
43.024585
 30
0.0
 11
230.754760
 21
43.024585
 31
0.0
  0
SPLINE
  5
1e9
100
AcDbEntity
  8
Layer_1
 62
7
100
AcDbSpline
 70
0
 71
3
 72
25
 73
21
 74
19
 40
0.000000
 40
0.000000
 40
0.000000
 40
0.000000
 40
0.505998
 40
1.004754
 40
1.510752
 40
2.016750
 40
2.515506
 40
3.021504
 40
3.527502
 40
4.026258
 40
4.532256
 40
5.038254
 40
5.537010
 40
6.043008
 40
6.549006
 40
7.047762
 40
7.553760
 40
8.059758
 40
8.558514
 40
9.064512
 40
9.064512
 40
9.064512
 40
9.064512
 10
230.754760
 20
43.024585
 30
0.0
 10
230.618356
 20
43.126728
 30
0.0
 10
230.347499
 20
43.329552
 30
0.0
 10
229.839499
 20
43.434750
 30
0.0
 10
229.331463
 20
43.371514
 30
0.0
 10
228.874539
 20
43.134535
 30
0.0
 10
228.526568
 20
42.756936
 30
0.0
 10
228.328090
 20
42.282711
 30
0.0
 10
228.304650
 20
41.769221
 30
0.0
 10
228.457729
 20
41.278883
 30
0.0
 10
228.769166
 20
40.869934
 30
0.0
 10
229.202145
 20
40.592875
 30
0.0
 10
229.703332
 20
40.480283
 30
0.0
 10
230.213201
 20
40.545509
 30
0.0
 10
230.669666
 20
40.781990
 30
0.0
 10
231.017637
 20
41.159589
 30
0.0
 10
231.216574
 20
41.634312
 30
0.0
 10
231.238180
 20
42.145812
 30
0.0
 10
231.091915
 20
42.643544
 30
0.0
 10
230.867684
 20
42.896963
 30
0.0
 10
230.754760
 20
43.024585
 30
0.0
 11
230.754760
 21
43.024585
 31
0.0
 11
230.328555
 21
43.297318
 31
0.0
 11
229.841928
 21
43.406643
 31
0.0
 11
229.340023
 21
43.342418
 31
0.0
 11
228.890727
 21
43.109680
 31
0.0
 11
228.552735
 21
42.742911
 31
0.0
 11
228.357403
 21
42.276136
 31
0.0
 11
228.334312
 21
41.770665
 31
0.0
 11
228.482947
 21
41.294571
 31
0.0
 11
228.789520
 21
40.892021
 31
0.0
 11
229.215725
 21
40.619288
 31
0.0
 11
229.702352
 21
40.509963
 31
0.0
 11
230.204258
 21
40.574189
 31
0.0
 11
230.653554
 21
40.806926
 31
0.0
 11
230.991545
 21
41.173695
 31
0.0
 11
231.186877
 21
41.640471
 31
0.0
 11
231.209969
 21
42.145941
 31
0.0
 11
231.061333
 21
42.622035
 31
0.0
 11
230.754760
 21
43.024585
 31
0.0
  0
LINE
  5
1ea
100
AcDbEntity
  8
Layer_1
 62
7
100
AcDbLine
 10
94.378167
 20
53.627333
 30
0.0
 11
147.000098
 21
25.082067
 31
0.0
  0
SPLINE
  5
1eb
100
AcDbEntity
  8
Layer_1
 62
7
100
AcDbSpline
 70
0
 71
3
 72
13
 73
9
 74
7
 40
0.000000
 40
0.000000
 40
0.000000
 40
0.000000
 40
1.522235
 40
3.018868
 40
4.541103
 40
6.063338
 40
7.559971
 40
9.082206
 40
9.082206
 40
9.082206
 40
9.082206
 10
88.564030
 20
49.252553
 30
0.0
 10
88.510134
 20
49.763421
 30
0.0
 10
88.403248
 20
50.776565
 30
0.0
 10
88.973343
 20
52.236399
 30
0.0
 10
90.005156
 20
53.388064
 30
0.0
 10
91.397521
 20
54.060587
 30
0.0
 10
92.958138
 20
54.204109
 30
0.0
 10
93.902057
 20
53.820830
 30
0.0
 10
94.378019
 20
53.627565
 30
0.0
 11
88.564030
 21
49.252553
 31
0.0
 11
88.525880
 21
50.774310
 31
0.0
 11
89.045569
 21
52.177817
 31
0.0
 11
90.065587
 21
53.307756
 31
0.0
 11
91.433811
 21
53.974963
 31
0.0
 11
92.926345
 21
54.085648
 31
0.0
 11
94.378019
 21
53.627565
 31
0.0
  0
LINE
  5
1ec
100
AcDbEntity
  8
Layer_1
 62
7
100
AcDbLine
 10
143.144722
 20
10.049910
 30
0.0
 11
100.331559
 21
10.269205
 31
0.0
  0
SPLINE
  5
1ed
100
AcDbEntity
  8
Layer_1
 62
7
100
AcDbSpline
 70
0
 71
3
 72
13
 73
9
 74
7
 40
0.000000
 40
0.000000
 40
0.000000
 40
0.000000
 40
3.530262
 40
6.982739
 40
10.513001
 40
14.043262
 40
17.495739
 40
21.026001
 40
21.026001
 40
21.026001
 40
21.026001
 10
147.000185
 20
25.081319
 30
0.0
 10
147.969243
 20
24.379567
 30
0.0
 10
149.886007
 20
22.991525
 30
0.0
 10
151.289335
 20
19.600417
 30
0.0
 10
151.196935
 20
15.994562
 30
0.0
 10
149.542386
 20
12.789379
 30
0.0
 10
146.680118
 20
10.492346
 30
0.0
 10
144.331898
 20
10.198221
 30
0.0
 10
143.144709
 20
10.049520
 30
0.0
 11
147.000185
 21
25.081319
 31
0.0
 11
149.655675
 21
22.755139
 31
0.0
 11
151.036089
 21
19.590639
 31
0.0
 11
150.934650
 21
16.061835
 31
0.0
 11
149.325110
 21
12.919841
 31
0.0
 11
146.591997
 21
10.810411
 31
0.0
 11
143.144709
 21
10.049520
 31
0.0
  0
LINE
  5
1ee
100
AcDbEntity
  8
Layer_1
 62
7
100
AcDbLine
 10
96.445868
 20
13.407885
 30
0.0
 11
88.563644
 21
49.253735
 31
0.0
  0
SPLINE
  5
1ef
100
AcDbEntity
  8
Layer_1
 62
7
100
AcDbSpline
 70
0
 71
3
 72
10
 73
6
 74
4
 40
0.000000
 40
0.000000
 40
0.000000
 40
0.000000
 40
1.797578
 40
3.554235
 40
5.351812
 40
5.351812
 40
5.351812
 40
5.351812
 10
100.331801
 20
10.268062
 30
0.0
 10
99.730970
 20
10.352155
 30
0.0
 10
98.542986
 20
10.518426
 30
0.0
 10
97.065597
 20
11.712459
 30
0.0
 10
96.653813
 20
12.839129
 30
0.0
 10
96.445551
 20
13.408950
 30
0.0
 11
100.331801
 21
10.268062
 31
0.0
 11
98.582212
 21
10.680646
 31
0.0
 11
97.215979
 21
11.784842
 31
0.0
 11
96.445551
 21
13.408950
 31
0.0
  0
LINE
  5
1f0
100
AcDbEntity
  8
Layer_1
 62
7
100
AcDbLine
 10
144.574074
 20
18.467032
 30
0.0
 11
144.574074
 21
18.467032
 31
0.0
  0
SPLINE
  5
1f1
100
AcDbEntity
  8
Layer_1
 62
7
100
AcDbSpline
 70
0
 71
3
 72
25
 73
21
 74
19
 40
0.000000
 40
0.000000
 40
0.000000
 40
0.000000
 40
0.505997
 40
1.004753
 40
1.510750
 40
2.016748
 40
2.515503
 40
3.021501
 40
3.527498
 40
4.026254
 40
4.532251
 40
5.038248
 40
5.537004
 40
6.043001
 40
6.548999
 40
7.047754
 40
7.553752
 40
8.059749
 40
8.558505
 40
9.064502
 40
9.064502
 40
9.064502
 40
9.064502
 10
144.574074
 20
18.467032
 30
0.0
 10
144.606311
 20
18.299701
 30
0.0
 10
144.670324
 20
17.967431
 30
0.0
 10
144.542867
 20
17.464554
 30
0.0
 10
144.263906
 20
17.035277
 30
0.0
 10
143.851027
 20
16.727920
 30
0.0
 10
143.359304
 20
16.580024
 30
0.0
 10
142.846028
 20
16.608822
 30
0.0
 10
142.373954
 20
16.812211
 30
0.0
 10
141.999867
 20
17.164239
 30
0.0
 10
141.768207
 20
17.623113
 30
0.0
 10
141.708299
 20
18.133644
 30
0.0
 10
141.826128
 20
18.633626
 30
0.0
 10
142.107680
 20
19.063683
 30
0.0
 10
142.519910
 20
19.370845
 30
0.0
 10
143.011633
 20
19.518740
 30
0.0
 10
143.525558
 20
19.490138
 30
0.0
 10
143.995041
 20
19.285969
 30
0.0
 10
144.378756
 20
18.936837
 30
0.0
 10
144.508656
 20
18.624385
 30
0.0
 10
144.574074
 20
18.467032
 30
0.0
 11
144.574074
 21
18.467032
 31
0.0
 11
144.633052
 21
17.964484
 31
0.0
 11
144.518650
 21
17.479026
 31
0.0
 11
144.241480
 21
17.055694
 31
0.0
 11
143.835749
 21
16.753343
 31
0.0
 11
143.358129
 21
16.609689
 31
0.0
 11
142.852928
 21
16.638060
 31
0.0
 11
142.388219
 21
16.838257
 31
0.0
 11
142.025001
 21
17.180061
 31
0.0
 11
141.796970
 21
17.631764
 31
0.0
 11
141.737991
 21
18.134312
 31
0.0
 11
141.852394
 21
18.619770
 31
0.0
 11
142.129564
 21
19.043102
 31
0.0
 11
142.535294
 21
19.345453
 31
0.0
 11
143.012914
 21
19.489107
 31
0.0
 11
143.518116
 21
19.460736
 31
0.0
 11
143.982824
 21
19.260539
 31
0.0
 11
144.346042
 21
18.918735
 31
0.0
 11
144.574074
 21
18.467032
 31
0.0
  0
LINE
  5
1f2
100
AcDbEntity
  8
Layer_1
 62
7
100
AcDbLine
 10
101.740755
 20
14.685648
 30
0.0
 11
101.740755
 21
14.685648
 31
0.0
  0
SPLINE
  5
1f3
100
AcDbEntity
  8
Layer_1
 62
7
100
AcDbSpline
 70
0
 71
3
 72
25
 73
21
 74
19
 40
0.000000
 40
0.000000
 40
0.000000
 40
0.000000
 40
0.505997
 40
1.004752
 40
1.510749
 40
2.016746
 40
2.515501
 40
3.021498
 40
3.527495
 40
4.026250
 40
4.532247
 40
5.038244
 40
5.536999
 40
6.042996
 40
6.548993
 40
7.047748
 40
7.553745
 40
8.059742
 40
8.558497
 40
9.064494
 40
9.064494
 40
9.064494
 40
9.064494
 10
101.740755
 20
14.685648
 30
0.0
 10
101.772992
 20
14.518317
 30
0.0
 10
101.837005
 20
14.186048
 30
0.0
 10
101.709548
 20
13.683171
 30
0.0
 10
101.430588
 20
13.253894
 30
0.0
 10
101.017709
 20
12.946537
 30
0.0
 10
100.525987
 20
12.798642
 30
0.0
 10
100.012711
 20
12.827439
 30
0.0
 10
99.540637
 20
13.030828
 30
0.0
 10
99.166551
 20
13.382856
 30
0.0
 10
98.934891
 20
13.841730
 30
0.0
 10
98.874983
 20
14.352261
 30
0.0
 10
98.992812
 20
14.852242
 30
0.0
 10
99.274363
 20
15.282298
 30
0.0
 10
99.686593
 20
15.589460
 30
0.0
 10
100.178315
 20
15.737355
 30
0.0
 10
100.692241
 20
15.708753
 30
0.0
 10
101.161722
 20
15.504584
 30
0.0
 10
101.545438
 20
15.155453
 30
0.0
 10
101.675337
 20
14.843000
 30
0.0
 10
101.740755
 20
14.685648
 30
0.0
 11
101.740755
 21
14.685648
 31
0.0
 11
101.799733
 21
14.183101
 31
0.0
 11
101.685331
 21
13.697643
 31
0.0
 11
101.408161
 21
13.274311
 31
0.0
 11
101.002431
 21
12.971961
 31
0.0
 11
100.524812
 21
12.828307
 31
0.0
 11
100.019611
 21
12.856677
 31
0.0
 11
99.554902
 21
13.056875
 31
0.0
 11
99.191685
 21
13.398679
 31
0.0
 11
98.963654
 21
13.850380
 31
0.0
 11
98.904675
 21
14.352928
 31
0.0
 11
99.019078
 21
14.838386
 31
0.0
 11
99.296247
 21
15.261718
 31
0.0
 11
99.701978
 21
15.564068
 31
0.0
 11
100.179597
 21
15.707722
 31
0.0
 11
100.684798
 21
15.679352
 31
0.0
 11
101.149506
 21
15.479154
 31
0.0
 11
101.512724
 21
15.137350
 31
0.0
 11
101.740755
 21
14.685648
 31
0.0
  0
LINE
  5
1f4
100
AcDbEntity
  8
Layer_1
 62
7
100
AcDbLine
 10
93.859242
 20
50.529226
 30
0.0
 11
93.859242
 21
50.529226
 31
0.0
  0
SPLINE
  5
1f5
100
AcDbEntity
  8
Layer_1
 62
7
100
AcDbSpline
 70
0
 71
3
 72
25
 73
21
 74
19
 40
0.000000
 40
0.000000
 40
0.000000
 40
0.000000
 40
0.505997
 40
1.004752
 40
1.510749
 40
2.016746
 40
2.515501
 40
3.021498
 40
3.527495
 40
4.026250
 40
4.532247
 40
5.038244
 40
5.536999
 40
6.042996
 40
6.548993
 40
7.047748
 40
7.553745
 40
8.059742
 40
8.558497
 40
9.064494
 40
9.064494
 40
9.064494
 40
9.064494
 10
93.859242
 20
50.529226
 30
0.0
 10
93.891480
 20
50.361894
 30
0.0
 10
93.955493
 20
50.029625
 30
0.0
 10
93.828036
 20
49.526748
 30
0.0
 10
93.549076
 20
49.097471
 30
0.0
 10
93.136196
 20
48.790114
 30
0.0
 10
92.644474
 20
48.642219
 30
0.0
 10
92.131198
 20
48.671016
 30
0.0
 10
91.659125
 20
48.874406
 30
0.0
 10
91.285038
 20
49.226433
 30
0.0
 10
91.053379
 20
49.685307
 30
0.0
 10
90.993471
 20
50.195838
 30
0.0
 10
91.111299
 20
50.695819
 30
0.0
 10
91.392851
 20
51.125875
 30
0.0
 10
91.805081
 20
51.433037
 30
0.0
 10
92.296803
 20
51.580932
 30
0.0
 10
92.810728
 20
51.552330
 30
0.0
 10
93.280210
 20
51.348161
 30
0.0
 10
93.663925
 20
50.999030
 30
0.0
 10
93.793825
 20
50.686578
 30
0.0
 10
93.859242
 20
50.529226
 30
0.0
 11
93.859242
 21
50.529226
 31
0.0
 11
93.918221
 21
50.026678
 31
0.0
 11
93.803819
 21
49.541220
 31
0.0
 11
93.526649
 21
49.117888
 31
0.0
 11
93.120919
 21
48.815538
 31
0.0
 11
92.643299
 21
48.671884
 31
0.0
 11
92.138098
 21
48.700254
 31
0.0
 11
91.673390
 21
48.900452
 31
0.0
 11
91.310172
 21
49.242256
 31
0.0
 11
91.082141
 21
49.693958
 31
0.0
 11
91.023163
 21
50.196505
 31
0.0
 11
91.137565
 21
50.681963
 31
0.0
 11
91.414735
 21
51.105295
 31
0.0
 11
91.820465
 21
51.407645
 31
0.0
 11
92.298085
 21
51.551299
 31
0.0
 11
92.803285
 21
51.522929
 31
0.0
 11
93.267994
 21
51.322731
 31
0.0
 11
93.631211
 21
50.980927
 31
0.0
 11
93.859242
 21
50.529226
 31
0.0
  0
LINE
  5
1f6
100
AcDbEntity
  8
Layer_1
 62
7
100
AcDbLine
 10
167.747847
 20
10.269364
 30
0.0
 11
207.147686
 21
10.109824
 31
0.0
  0
SPLINE
  5
1f7
100
AcDbEntity
  8
Layer_1
 62
7
100
AcDbSpline
 70
0
 71
3
 72
13
 73
9
 74
7
 40
0.000000
 40
0.000000
 40
0.000000
 40
0.000000
 40
2.088780
 40
4.115742
 40
6.204523
 40
8.293303
 40
10.320265
 40
12.409045
 40
12.409045
 40
12.409045
 40
12.409045
 10
167.780426
 20
18.268279
 30
0.0
 10
167.075986
 20
18.159976
 30
0.0
 10
165.687956
 20
17.946576
 30
0.0
 10
164.155726
 20
16.362163
 30
0.0
 10
163.582046
 20
14.285179
 30
0.0
 10
164.138960
 20
12.203638
 30
0.0
 10
165.658366
 20
10.606921
 30
0.0
 10
167.044631
 20
10.382337
 30
0.0
 10
167.748174
 20
10.268358
 30
0.0
 11
167.780426
 21
18.268279
 31
0.0
 11
165.762828
 21
17.727630
 31
0.0
 11
164.325215
 21
16.298699
 31
0.0
 11
163.772356
 21
14.284412
 31
0.0
 11
164.308956
 21
12.265733
 31
0.0
 11
165.735000
 21
10.825257
 31
0.0
 11
167.748174
 21
10.268358
 31
0.0
  0
LINE
  5
1f8
100
AcDbEntity
  8
Layer_1
 62
7
100
AcDbLine
 10
167.780823
 20
18.267045
 30
0.0
 11
207.179981
 21
18.110065
 31
0.0
  0
SPLINE
  5
1f9
100
AcDbEntity
  8
Layer_1
 62
7
100
AcDbSpline
 70
0
 71
3
 72
13
 73
9
 74
7
 40
0.000000
 40
0.000000
 40
0.000000
 40
0.000000
 40
2.088783
 40
4.115748
 40
6.204532
 40
8.293315
 40
10.320280
 40
12.409063
 40
12.409063
 40
12.409063
 40
12.409063
 10
207.147828
 20
10.109537
 30
0.0
 10
207.852268
 20
10.217838
 30
0.0
 10
209.240302
 20
10.431235
 30
0.0
 10
210.772536
 20
12.015650
 30
0.0
 10
211.346217
 20
14.092637
 30
0.0
 10
210.789300
 20
16.174181
 30
0.0
 10
209.269890
 20
17.770898
 30
0.0
 10
207.883623
 20
17.995479
 30
0.0
 10
207.180078
 20
18.109457
 30
0.0
 11
207.147828
 21
10.109537
 31
0.0
 11
209.165430
 21
10.650183
 31
0.0
 11
210.603046
 21
12.079114
 31
0.0
 11
211.155906
 21
14.093404
 31
0.0
 11
210.619304
 21
16.112085
 31
0.0
 11
209.193256
 21
17.552561
 31
0.0
 11
207.180078
 21
18.109457
 31
0.0
  0
LINE
  5
1fa
100
AcDbEntity
  8
Layer_1
 62
7
100
AcDbLine
 10
208.544900
 20
14.551636
 30
0.0
 11
208.544900
 21
14.551636
 31
0.0
  0
SPLINE
  5
1fb
100
AcDbEntity
  8
Layer_1
 62
7
100
AcDbSpline
 70
0
 71
3
 72
25
 73
21
 74
19
 40
0.000000
 40
0.000000
 40
0.000000
 40
0.000000
 40
0.505998
 40
1.004755
 40
1.510753
 40
2.016751
 40
2.515507
 40
3.021505
 40
3.527503
 40
4.026260
 40
4.532258
 40
5.038256
 40
5.537012
 40
6.043010
 40
6.549008
 40
7.047765
 40
7.553763
 40
8.059761
 40
8.558518
 40
9.064516
 40
9.064516
 40
9.064516
 40
9.064516
 10
208.544900
 20
14.551636
 30
0.0
 10
208.476709
 20
14.707807
 30
0.0
 10
208.341304
 20
15.017914
 30
0.0
 10
207.951473
 20
15.360205
 30
0.0
 10
207.478453
 20
15.556040
 30
0.0
 10
206.964101
 20
15.575548
 30
0.0
 10
206.475070
 20
15.418979
 30
0.0
 10
206.068336
 20
15.104575
 30
0.0
 10
205.794433
 20
14.669605
 30
0.0
 10
205.685466
 20
14.167617
 30
0.0
 10
205.754393
 20
13.658224
 30
0.0
 10
205.994133
 20
13.203519
 30
0.0
 10
206.374387
 20
12.858161
 30
0.0
 10
206.849985
 20
12.663152
 30
0.0
 10
207.363691
 20
12.643437
 30
0.0
 10
207.852722
 20
12.800005
 30
0.0
 10
208.260102
 20
13.114617
 30
0.0
 10
208.531427
 20
13.548761
 30
0.0
 10
208.649971
 20
14.053815
 30
0.0
 10
208.580091
 20
14.384900
 30
0.0
 10
208.544900
 20
14.551636
 30
0.0
 11
208.544900
 21
14.551636
 31
0.0
 11
208.308915
 21
14.999236
 31
0.0
 11
207.939709
 21
15.334563
 31
0.0
 11
207.471531
 21
15.526511
 31
0.0
 11
206.965906
 21
15.545942
 31
0.0
 11
206.490901
 21
15.393864
 31
0.0
 11
206.090581
 21
15.084384
 31
0.0
 11
205.820940
 21
14.656216
 31
0.0
 11
205.715141
 21
14.168810
 31
0.0
 11
205.782998
 21
13.667383
 31
0.0
 11
206.018983
 21
13.219783
 31
0.0
 11
206.388189
 21
12.884455
 31
0.0
 11
206.856367
 21
12.692507
 31
0.0
 11
207.361992
 21
12.673076
 31
0.0
 11
207.836997
 21
12.825155
 31
0.0
 11
208.237317
 21
13.134634
 31
0.0
 11
208.506958
 21
13.562803
 31
0.0
 11
208.612757
 21
14.050209
 31
0.0
 11
208.544900
 21
14.551636
 31
0.0
  0
LINE
  5
1fc
100
AcDbEntity
  8
Layer_1
 62
7
100
AcDbLine
 10
169.145246
 20
14.710458
 30
0.0
 11
169.145246
 21
14.710458
 31
0.0
  0
SPLINE
  5
1fd
100
AcDbEntity
  8
Layer_1
 62
7
100
AcDbSpline
 70
0
 71
3
 72
25
 73
21
 74
19
 40
0.000000
 40
0.000000
 40
0.000000
 40
0.000000
 40
0.505998
 40
1.004755
 40
1.510753
 40
2.016751
 40
2.515507
 40
3.021505
 40
3.527503
 40
4.026260
 40
4.532258
 40
5.038256
 40
5.537012
 40
6.043010
 40
6.549008
 40
7.047765
 40
7.553763
 40
8.059761
 40
8.558517
 40
9.064516
 40
9.064516
 40
9.064516
 40
9.064516
 10
169.145246
 20
14.710458
 30
0.0
 10
169.077056
 20
14.866629
 30
0.0
 10
168.941650
 20
15.176735
 30
0.0
 10
168.551820
 20
15.519027
 30
0.0
 10
168.078800
 20
15.714861
 30
0.0
 10
167.564448
 20
15.734370
 30
0.0
 10
167.075417
 20
15.577801
 30
0.0
 10
166.668683
 20
15.263396
 30
0.0
 10
166.394780
 20
14.828427
 30
0.0
 10
166.285812
 20
14.326439
 30
0.0
 10
166.354740
 20
13.817046
 30
0.0
 10
166.594479
 20
13.362340
 30
0.0
 10
166.974734
 20
13.016983
 30
0.0
 10
167.450332
 20
12.821974
 30
0.0
 10
167.964038
 20
12.802258
 30
0.0
 10
168.453069
 20
12.958827
 30
0.0
 10
168.860449
 20
13.273438
 30
0.0
 10
169.131774
 20
13.707583
 30
0.0
 10
169.250317
 20
14.212636
 30
0.0
 10
169.180438
 20
14.543722
 30
0.0
 10
169.145246
 20
14.710458
 30
0.0
 11
169.145246
 21
14.710458
 31
0.0
 11
168.909262
 21
15.158057
 31
0.0
 11
168.540055
 21
15.493385
 31
0.0
 11
168.071878
 21
15.685333
 31
0.0
 11
167.566253
 21
15.704764
 31
0.0
 11
167.091248
 21
15.552686
 31
0.0
 11
166.690927
 21
15.243206
 31
0.0
 11
166.421287
 21
14.815038
 31
0.0
 11
166.315488
 21
14.327632
 31
0.0
 11
166.383345
 21
13.826204
 31
0.0
 11
166.619330
 21
13.378605
 31
0.0
 11
166.988536
 21
13.043277
 31
0.0
 11
167.456713
 21
12.851329
 31
0.0
 11
167.962338
 21
12.831898
 31
0.0
 11
168.437344
 21
12.983976
 31
0.0
 11
168.837664
 21
13.293456
 31
0.0
 11
169.107304
 21
13.721624
 31
0.0
 11
169.213103
 21
14.209030
 31
0.0
 11
169.145246
 21
14.710458
 31
0.0
  0
LINE
  5
1fe
100
AcDbEntity
  8
Layer_1
 62
7
100
AcDbLine
 10
95.028257
 20
63.914056
 30
0.0
 11
147.665585
 21
92.432361
 31
0.0
  0
SPLINE
  5
1ff
100
AcDbEntity
  8
Layer_1
 62
7
100
AcDbSpline
 70
0
 71
3
 72
13
 73
9
 74
7
 40
0.000000
 40
0.000000
 40
0.000000
 40
0.000000
 40
1.522230
 40
3.018857
 40
4.541086
 40
6.063316
 40
7.559943
 40
9.082172
 40
9.082172
 40
9.082172
 40
9.082172
 10
89.216627
 20
68.291675
 30
0.0
 10
89.162466
 20
67.780837
 30
0.0
 10
89.055055
 20
66.767752
 30
0.0
 10
89.624389
 20
65.307627
 30
0.0
 10
90.655598
 20
64.155430
 30
0.0
 10
92.047606
 20
63.482181
 30
0.0
 10
93.608141
 20
63.337842
 30
0.0
 10
94.552258
 20
63.720624
 30
0.0
 10
95.028320
 20
63.913637
 30
0.0
 11
89.216627
 21
68.291675
 31
0.0
 11
89.177687
 21
66.769944
 31
0.0
 11
89.696645
 21
65.366172
 31
0.0
 11
90.716070
 21
64.235705
 31
0.0
 11
92.083940
 21
63.567786
 31
0.0
 11
93.576410
 21
63.456318
 31
0.0
 11
95.028320
 21
63.913637
 31
0.0
  0
LINE
  5
200
100
AcDbEntity
  8
Layer_1
 62
7
100
AcDbLine
 10
143.817987
 20
107.465282
 30
0.0
 11
101.004988
 21
107.269907
 31
0.0
  0
SPLINE
  5
201
100
AcDbEntity
  8
Layer_1
 62
7
100
AcDbSpline
 70
0
 71
3
 72
13
 73
9
 74
7
 40
0.000000
 40
0.000000
 40
0.000000
 40
0.000000
 40
3.530287
 40
6.982787
 40
10.513074
 40
14.043360
 40
17.495861
 40
21.026147
 40
21.026147
 40
21.026147
 40
21.026147
 10
147.665595
 20
92.432148
 30
0.0
 10
148.635036
 20
93.133387
 30
0.0
 10
150.552555
 20
94.520414
 30
0.0
 10
151.957694
 20
97.910802
 30
0.0
 10
151.867196
 20
101.516732
 30
0.0
 10
150.214317
 20
104.722806
 30
0.0
 10
147.353226
 20
107.021350
 30
0.0
 10
145.005142
 20
107.316693
 30
0.0
 10
143.818022
 20
107.466009
 30
0.0
 11
147.665595
 21
92.432148
 31
0.0
 11
150.322347
 21
94.756927
 31
0.0
 11
151.704449
 21
97.920714
 31
0.0
 11
151.604873
 21
101.449596
 31
0.0
 11
149.996969
 21
104.592456
 31
0.0
 11
147.264939
 21
106.703326
 31
0.0
 11
143.818022
 21
107.466009
 31
0.0
  0
LINE
  5
202
100
AcDbEntity
  8
Layer_1
 62
7
100
AcDbLine
 10
97.117048
 20
104.131451
 30
0.0
 11
89.216715
 21
68.290752
 31
0.0
  0
SPLINE
  5
203
100
AcDbEntity
  8
Layer_1
 62
7
100
AcDbSpline
 70
0
 71
3
 72
10
 73
6
 74
4
 40
0.000000
 40
0.000000
 40
0.000000
 40
0.000000
 40
1.797590
 40
3.554258
 40
5.351847
 40
5.351847
 40
5.351847
 40
5.351847
 10
101.005017
 20
107.270019
 30
0.0
 10
100.404138
 20
107.186241
 30
0.0
 10
99.216059
 20
107.020592
 30
0.0
 10
97.738037
 20
105.827320
 30
0.0
 10
97.325667
 20
104.700856
 30
0.0
 10
97.117108
 20
104.131139
 30
0.0
 11
101.005017
 21
107.270019
 31
0.0
 11
99.255200
 21
106.858350
 31
0.0
 11
97.888383
 21
105.754858
 31
0.0
 11
97.117108
 21
104.131139
 31
0.0
  0
LINE
  5
204
100
AcDbEntity
  8
Layer_1
 62
7
100
AcDbLine
 10
145.288453
 20
99.682163
 30
0.0
 11
145.288453
 21
99.682163
 31
0.0
  0
SPLINE
  5
205
100
AcDbEntity
  8
Layer_1
 62
7
100
AcDbSpline
 70
0
 71
3
 72
25
 73
21
 74
19
 40
0.000000
 40
0.000000
 40
0.000000
 40
0.000000
 40
0.505997
 40
1.004752
 40
1.510749
 40
2.016746
 40
2.515501
 40
3.021498
 40
3.527495
 40
4.026250
 40
4.532247
 40
5.038244
 40
5.536999
 40
6.042996
 40
6.548993
 40
7.047748
 40
7.553745
 40
8.059742
 40
8.558497
 40
9.064494
 40
9.064494
 40
9.064494
 40
9.064494
 10
145.288453
 20
99.682163
 30
0.0
 10
145.246063
 20
99.847215
 30
0.0
 10
145.161888
 20
100.174957
 30
0.0
 10
144.831688
 20
100.575079
 30
0.0
 10
144.395989
 20
100.843900
 30
0.0
 10
143.891346
 20
100.945252
 30
0.0
 10
143.383596
 20
100.868743
 30
0.0
 10
142.931895
 20
100.623287
 30
0.0
 10
142.592081
 20
100.237611
 30
0.0
 10
142.404390
 20
99.759451
 30
0.0
 10
142.391132
 20
99.245588
 30
0.0
 10
142.555223
 20
98.758449
 30
0.0
 10
142.875481
 20
98.356828
 30
0.0
 10
143.313856
 20
98.088411
 30
0.0
 10
143.817829
 20
97.986958
 30
0.0
 10
144.325579
 20
98.063467
 30
0.0
 10
144.777950
 20
98.309024
 30
0.0
 10
145.115088
 20
98.694297
 30
0.0
 10
145.312722
 20
99.173954
 30
0.0
 10
145.296581
 20
99.511948
 30
0.0
 10
145.288453
 20
99.682163
 30
0.0
 11
145.288453
 21
99.682163
 31
0.0
 11
145.126934
 21
100.161688
 31
0.0
 11
144.815982
 21
100.551644
 31
0.0
 11
144.384443
 21
100.815855
 31
0.0
 11
143.888403
 21
100.915738
 31
0.0
 11
143.395215
 21
100.841423
 31
0.0
 11
142.950632
 21
100.599805
 31
0.0
 11
142.616111
 21
100.220163
 31
0.0
 11
142.433875
 21
99.755892
 31
0.0
 11
142.420832
 21
99.250064
 31
0.0
 11
142.582351
 21
98.770538
 31
0.0
 11
142.893303
 21
98.380583
 31
0.0
 11
143.324841
 21
98.116372
 31
0.0
 11
143.820882
 21
98.016489
 31
0.0
 11
144.314070
 21
98.090803
 31
0.0
 11
144.758652
 21
98.332421
 31
0.0
 11
145.093174
 21
98.712064
 31
0.0
 11
145.275409
 21
99.176334
 31
0.0
 11
145.288453
 21
99.682163
 31
0.0
  0
LINE
  5
206
100
AcDbEntity
  8
Layer_1
 62
7
100
AcDbLine
 10
102.457137
 20
103.486120
 30
0.0
 11
102.457137
 21
103.486120
 31
0.0
  0
SPLINE
  5
207
100
AcDbEntity
  8
Layer_1
 62
7
100
AcDbSpline
 70
0
 71
3
 72
25
 73
21
 74
19
 40
0.000000
 40
0.000000
 40
0.000000
 40
0.000000
 40
0.505997
 40
1.004752
 40
1.510749
 40
2.016746
 40
2.515501
 40
3.021498
 40
3.527495
 40
4.026250
 40
4.532247
 40
5.038244
 40
5.536999
 40
6.042996
 40
6.548993
 40
7.047748
 40
7.553745
 40
8.059742
 40
8.558497
 40
9.064494
 40
9.064494
 40
9.064494
 40
9.064494
 10
102.457137
 20
103.486120
 30
0.0
 10
102.414747
 20
103.651172
 30
0.0
 10
102.330572
 20
103.978914
 30
0.0
 10
102.000372
 20
104.379037
 30
0.0
 10
101.564673
 20
104.647857
 30
0.0
 10
101.060030
 20
104.749209
 30
0.0
 10
100.552280
 20
104.672700
 30
0.0
 10
100.100580
 20
104.427244
 30
0.0
 10
99.760765
 20
104.041568
 30
0.0
 10
99.573074
 20
103.563409
 30
0.0
 10
99.559816
 20
103.049546
 30
0.0
 10
99.723907
 20
102.562406
 30
0.0
 10
100.044165
 20
102.160786
 30
0.0
 10
100.482540
 20
101.892368
 30
0.0
 10
100.986513
 20
101.790915
 30
0.0
 10
101.494263
 20
101.867424
 30
0.0
 10
101.946634
 20
102.112981
 30
0.0
 10
102.283772
 20
102.498254
 30
0.0
 10
102.481406
 20
102.977912
 30
0.0
 10
102.465265
 20
103.315905
 30
0.0
 10
102.457137
 20
103.486120
 30
0.0
 11
102.457137
 21
103.486120
 31
0.0
 11
102.295618
 21
103.965645
 31
0.0
 11
101.984666
 21
104.355601
 31
0.0
 11
101.553127
 21
104.619812
 31
0.0
 11
101.057087
 21
104.719695
 31
0.0
 11
100.563899
 21
104.645380
 31
0.0
 11
100.119317
 21
104.403762
 31
0.0
 11
99.784795
 21
104.024120
 31
0.0
 11
99.602560
 21
103.559850
 31
0.0
 11
99.589516
 21
103.054021
 31
0.0
 11
99.751035
 21
102.574496
 31
0.0
 11
100.061987
 21
102.184540
 31
0.0
 11
100.493525
 21
101.920329
 31
0.0
 11
100.989566
 21
101.820446
 31
0.0
 11
101.482754
 21
101.894761
 31
0.0
 11
101.927336
 21
102.136379
 31
0.0
 11
102.261858
 21
102.516021
 31
0.0
 11
102.444093
 21
102.980291
 31
0.0
 11
102.457137
 21
103.486120
 31
0.0
  0
LINE
  5
208
100
AcDbEntity
  8
Layer_1
 62
7
100
AcDbLine
 10
94.556655
 20
67.646656
 30
0.0
 11
94.556655
 21
67.646656
 31
0.0
  0
SPLINE
  5
209
100
AcDbEntity
  8
Layer_1
 62
7
100
AcDbSpline
 70
0
 71
3
 72
25
 73
21
 74
19
 40
0.000000
 40
0.000000
 40
0.000000
 40
0.000000
 40
0.505997
 40
1.004752
 40
1.510749
 40
2.016746
 40
2.515501
 40
3.021498
 40
3.527495
 40
4.026250
 40
4.532247
 40
5.038244
 40
5.536999
 40
6.042996
 40
6.548993
 40
7.047748
 40
7.553745
 40
8.059742
 40
8.558497
 40
9.064494
 40
9.064494
 40
9.064494
 40
9.064494
 10
94.556655
 20
67.646656
 30
0.0
 10
94.514265
 20
67.811708
 30
0.0
 10
94.430090
 20
68.139450
 30
0.0
 10
94.099890
 20
68.539573
 30
0.0
 10
93.664191
 20
68.808393
 30
0.0
 10
93.159548
 20
68.909745
 30
0.0
 10
92.651798
 20
68.833237
 30
0.0
 10
92.200098
 20
68.587781
 30
0.0
 10
91.860283
 20
68.202104
 30
0.0
 10
91.672592
 20
67.723945
 30
0.0
 10
91.659334
 20
67.210082
 30
0.0
 10
91.823425
 20
66.722942
 30
0.0
 10
92.143683
 20
66.321322
 30
0.0
 10
92.582058
 20
66.052905
 30
0.0
 10
93.086031
 20
65.951451
 30
0.0
 10
93.593781
 20
66.027960
 30
0.0
 10
94.046152
 20
66.273517
 30
0.0
 10
94.383290
 20
66.658790
 30
0.0
 10
94.580924
 20
67.138448
 30
0.0
 10
94.564783
 20
67.476441
 30
0.0
 10
94.556655
 20
67.646656
 30
0.0
 11
94.556655
 21
67.646656
 31
0.0
 11
94.395136
 21
68.126181
 31
0.0
 11
94.084184
 21
68.516137
 31
0.0
 11
93.652645
 21
68.780348
 31
0.0
 11
93.156605
 21
68.880231
 31
0.0
 11
92.663417
 21
68.805916
 31
0.0
 11
92.218835
 21
68.564299
 31
0.0
 11
91.884313
 21
68.184656
 31
0.0
 11
91.702078
 21
67.720386
 31
0.0
 11
91.689034
 21
67.214557
 31
0.0
 11
91.850553
 21
66.735032
 31
0.0
 11
92.161505
 21
66.345076
 31
0.0
 11
92.593043
 21
66.080865
 31
0.0
 11
93.089084
 21
65.980982
 31
0.0
 11
93.582272
 21
66.055297
 31
0.0
 11
94.026854
 21
66.296915
 31
0.0
 11
94.361376
 21
66.676557
 31
0.0
 11
94.543611
 21
67.140828
 31
0.0
 11
94.556655
 21
67.646656
 31
0.0
  0
LINE
  5
20a
100
AcDbEntity
  8
Layer_1
 62
7
100
AcDbLine
 10
230.313875
 20
97.316867
 30
0.0
 11
230.313875
 21
97.316867
 31
0.0
  0
SPLINE
  5
20b
100
AcDbEntity
  8
Layer_1
 62
7
100
AcDbSpline
 70
0
 71
3
 72
25
 73
21
 74
19
 40
0.000000
 40
0.000000
 40
0.000000
 40
0.000000
 40
1.744817
 40
3.464663
 40
5.209480
 40
6.954297
 40
8.674143
 40
10.418960
 40
12.163778
 40
13.883624
 40
15.628441
 40
17.373258
 40
19.093104
 40
20.837921
 40
22.582738
 40
24.302584
 40
26.047401
 40
27.792218
 40
29.512064
 40
31.256881
 40
31.256881
 40
31.256881
 40
31.256881
 10
230.313875
 20
97.316867
 30
0.0
 10
230.254136
 20
97.901439
 30
0.0
 10
230.135511
 20
99.062217
 30
0.0
 10
229.215180
 20
100.596203
 30
0.0
 10
227.867658
 20
101.736681
 30
0.0
 10
226.199007
 20
102.341553
 30
0.0
 10
224.428380
 20
102.341553
 30
0.0
 10
222.762066
 20
101.736681
 30
0.0
 10
221.405214
 20
100.596203
 30
0.0
 10
220.519553
 20
99.062217
 30
0.0
 10
220.210325
 20
97.316867
 30
0.0
 10
220.519553
 20
95.571517
 30
0.0
 10
221.405214
 20
94.037532
 30
0.0
 10
222.762066
 20
92.897053
 30
0.0
 10
224.428380
 20
92.292182
 30
0.0
 10
226.199007
 20
92.292182
 30
0.0
 10
227.867658
 20
92.897053
 30
0.0
 10
229.215180
 20
94.037532
 30
0.0
 10
230.135511
 20
95.571517
 30
0.0
 10
230.254136
 20
96.732295
 30
0.0
 10
230.313875
 20
97.316867
 30
0.0
 11
230.313875
 21
97.316867
 31
0.0
 11
230.009507
 21
99.034932
 31
0.0
 11
229.149584
 21
100.524362
 31
0.0
 11
227.813880
 21
101.646986
 31
0.0
 11
226.173808
 21
102.242427
 31
0.0
 11
224.453962
 21
102.242427
 31
0.0
 11
222.813890
 21
101.646986
 31
0.0
 11
221.478187
 21
100.524362
 31
0.0
 11
220.618264
 21
99.034932
 31
0.0
 11
220.313895
 21
97.316867
 31
0.0
 11
220.618264
 21
95.598803
 31
0.0
 11
221.478187
 21
94.109372
 31
0.0
 11
222.813890
 21
92.986749
 31
0.0
 11
224.453962
 21
92.391307
 31
0.0
 11
226.173808
 21
92.391307
 31
0.0
 11
227.813880
 21
92.986749
 31
0.0
 11
229.149584
 21
94.109372
 31
0.0
 11
230.009507
 21
95.598803
 31
0.0
 11
230.313875
 21
97.316867
 31
0.0
  0
LINE
  5
20c
100
AcDbEntity
  8
Layer_1
 62
7
100
AcDbLine
 10
226.763882
 20
97.316867
 30
0.0
 11
226.763882
 21
97.316867
 31
0.0
  0
SPLINE
  5
20d
100
AcDbEntity
  8
Layer_1
 62
7
100
AcDbSpline
 70
0
 71
3
 72
25
 73
21
 74
19
 40
0.000000
 40
0.000000
 40
0.000000
 40
0.000000
 40
0.505997
 40
1.004752
 40
1.510749
 40
2.016746
 40
2.515502
 40
3.021499
 40
3.527495
 40
4.026251
 40
4.532248
 40
5.038245
 40
5.537000
 40
6.042997
 40
6.548994
 40
7.047749
 40
7.553746
 40
8.059743
 40
8.558499
 40
9.064496
 40
9.064496
 40
9.064496
 40
9.064496
 10
226.763882
 20
97.316867
 30
0.0
 10
226.746558
 20
97.486393
 30
0.0
 10
226.712157
 20
97.823019
 30
0.0
 10
226.445261
 20
98.267875
 30
0.0
 10
226.054480
 20
98.598613
 30
0.0
 10
225.570571
 20
98.774026
 30
0.0
 10
225.057089
 20
98.774026
 30
0.0
 10
224.573858
 20
98.598613
 30
0.0
 10
224.180370
 20
98.267875
 30
0.0
 10
223.923529
 20
97.823019
 30
0.0
 10
223.833853
 20
97.316867
 30
0.0
 10
223.923529
 20
96.810716
 30
0.0
 10
224.180370
 20
96.365860
 30
0.0
 10
224.573858
 20
96.035121
 30
0.0
 10
225.057089
 20
95.859708
 30
0.0
 10
225.570571
 20
95.859708
 30
0.0
 10
226.054480
 20
96.035121
 30
0.0
 10
226.445261
 20
96.365860
 30
0.0
 10
226.712157
 20
96.810716
 30
0.0
 10
226.746558
 20
97.147341
 30
0.0
 10
226.763882
 20
97.316867
 30
0.0
 11
226.763882
 21
97.316867
 31
0.0
 11
226.675615
 21
97.815106
 31
0.0
 11
226.426238
 21
98.247041
 31
0.0
 11
226.038884
 21
98.572602
 31
0.0
 11
225.563263
 21
98.745280
 31
0.0
 11
225.064508
 21
98.745280
 31
0.0
 11
224.588887
 21
98.572602
 31
0.0
 11
224.201533
 21
98.247041
 31
0.0
 11
223.952155
 21
97.815106
 31
0.0
 11
223.863888
 21
97.316867
 31
0.0
 11
223.952155
 21
96.818629
 31
0.0
 11
224.201533
 21
96.386694
 31
0.0
 11
224.588887
 21
96.061133
 31
0.0
 11
225.064508
 21
95.888455
 31
0.0
 11
225.563263
 21
95.888455
 31
0.0
 11
226.038884
 21
96.061133
 31
0.0
 11
226.426238
 21
96.386694
 31
0.0
 11
226.675615
 21
96.818629
 31
0.0
 11
226.763882
 21
97.316867
 31
0.0
  0
ENDSEC
  0
SECTION
  2
OBJECTS
  0
DICTIONARY
  5
C
330
0
100
AcDbDictionary
  3
ACAD_GROUP
350
D
  3
ACAD_MLINESTYLE
350
17
  0
DICTIONARY
  5
D
330
C
100
AcDbDictionary
  0
DICTIONARY
  5
1A
330
C
100
AcDbDictionary
  0
DICTIONARY
  5
17
330
C
100
AcDbDictionary
  3
STANDARD
350
18
  0
DICTIONARY
  5
19
330
C
100
AcDbDictionary
  0
ENDSEC
  0
EOF
